<svg width="46" height="46" viewBox="0 0 46 46" fill="none" xmlns="http://www.w3.org/2000/svg">
<g clip-path="url(#clip0_2636_15435)">
<path d="M45.425 17.9017L40.8761 22.4506C40.8889 22.6294 40.8889 22.8211 40.8889 23C40.8889 32.8644 32.8644 40.8889 23 40.8889C22.8211 40.8889 22.6294 40.8889 22.4506 40.8761C21.6839 40.8633 20.9172 40.7867 20.1761 40.6717C11.6533 39.3044 5.11111 31.9061 5.11111 23C5.11111 13.1356 13.1356 5.11111 23 5.11111C26.8206 5.11111 30.36 6.31222 33.2733 8.35667L36.9278 4.70222C33.0689 1.75056 28.2389 0 23 0C10.2989 0 0 10.2989 0 23C0 35.7011 10.2989 46 23 46C35.7011 46 46 35.7011 46 23C46 21.2494 45.8083 19.5372 45.425 17.9017Z" fill="#15BBF0"/>
<path d="M17.7994 23.8307L13.5956 19.6268L9.97945 23.2429L14.1833 27.4468L17.7994 31.0629L21.4156 34.679L25.0317 31.0629L39.6494 16.4579L43.5083 12.5862C42.7161 11.0146 41.745 9.55789 40.6333 8.229L36.9917 11.8707L21.4156 27.4468L17.7994 23.8307Z" fill="#15BBF0"/>
</g>
<defs>
<clipPath id="clip0_2636_15435">
<rect width="46" height="46" fill="white"/>
</clipPath>
</defs>
</svg>
