<svg width="27" height="48" viewBox="0 0 27 48" fill="none" xmlns="http://www.w3.org/2000/svg">
<g clip-path="url(#clip0_2636_15423)">
<path d="M23.0533 24C21.1733 22.3467 18.7067 21.3333 16 21.3333H10.6667C7.72 21.3333 5.33333 18.9467 5.33333 16C5.33333 15.0267 5.6 14.12 6.05333 13.3333C6.28 12.9333 6.57333 12.56 6.89333 12.2267C7.86667 11.2667 9.2 10.6667 10.6667 10.6667H16C17.9733 10.6667 19.6933 11.7333 20.6133 13.3333H26.3333C26.08 12.3867 25.72 11.4933 25.2267 10.6667C23.4 7.48 19.9467 5.33333 16 5.33333V0H10.6667V5.33333C7.72 5.33333 5.05333 6.53333 3.12 8.45333C1.8 9.78667 0.826667 11.4533 0.333333 13.3333C0.12 14.1867 0 15.08 0 16C0 19.1867 1.4 22.0533 3.61333 24C5.49333 25.6533 7.96 26.6667 10.6667 26.6667H16C18.9467 26.6667 21.3333 29.0533 21.3333 32C21.3333 32.9733 21.0667 33.88 20.6133 34.6667C20.3867 35.0667 20.0933 35.44 19.7733 35.7733C18.8 36.7333 17.4667 37.3333 16 37.3333H10.6667C8.69333 37.3333 6.97333 36.2667 6.05333 34.6667H0.333333C0.586667 35.6133 0.946667 36.5067 1.44 37.3333C3.26667 40.52 6.72 42.6667 10.6667 42.6667V48H16V42.6667C18.9467 42.6667 21.6133 41.4667 23.5467 39.5467C24.8667 38.2133 25.84 36.5467 26.3333 34.6667C26.5467 33.8133 26.6667 32.92 26.6667 32C26.6667 28.8133 25.2667 25.9467 23.0533 24Z" fill="#15BBF0"/>
</g>
<defs>
<clipPath id="clip0_2636_15423">
<rect width="26.6667" height="48" fill="white"/>
</clipPath>
</defs>
</svg>
