<svg width="47" height="48" viewBox="0 0 47 48" fill="none" xmlns="http://www.w3.org/2000/svg">
<g clip-path="url(#clip0_2658_15442)">
<path d="M45.604 22.7291C47.5613 18.7347 46.0168 13.9547 42.0756 11.8642C41.29 11.4382 40.7441 10.6925 40.5843 9.81375C39.8121 5.41985 35.751 2.46395 31.3438 3.10307C30.465 3.23622 29.573 2.92997 28.9338 2.31749C25.7383 -0.784867 20.7186 -0.784867 17.5097 2.31749C16.8706 2.92997 15.9785 3.2229 15.0997 3.10307C10.6659 2.47727 6.63149 5.43316 5.85923 9.81375C5.69945 10.6925 5.15354 11.4515 4.36797 11.8642C0.440089 13.9547 -1.10443 18.7347 0.839534 22.7291C1.23898 23.5413 1.23898 24.4601 0.839534 25.259C-1.11775 29.2667 0.426774 34.0334 4.36797 36.1239C5.15354 36.5499 5.69945 37.2956 5.85923 38.1744C6.63149 42.5683 10.6925 45.5108 15.0997 44.885C15.9785 44.7652 16.8706 45.0581 17.5097 45.6706C19.1075 47.2151 21.1713 48.0007 23.2218 48.0007C25.2723 48.0007 27.3361 47.2285 28.9338 45.6706C29.573 45.0581 30.465 44.7519 31.3438 44.885C35.751 45.5108 39.8121 42.5549 40.5843 38.1744C40.7441 37.2956 41.29 36.5366 42.0756 36.1239C46.0168 34.0334 47.5613 29.2667 45.604 25.259C45.2046 24.4601 45.2046 23.528 45.604 22.7291ZM39.5857 31.4237C37.3355 32.6221 35.791 34.7524 35.3516 37.2556C35.0853 38.8002 33.6739 39.8387 32.1028 39.6124C29.5863 39.2529 27.0831 40.0651 25.2456 41.8359C24.1139 42.9278 22.3563 42.9278 21.2379 41.8359C19.6933 40.3314 17.6562 39.5192 15.5524 39.5192C15.1663 39.5192 14.7802 39.5458 14.3807 39.599C12.8229 39.8254 11.3982 38.7868 11.1319 37.2423C10.6925 34.7258 9.14799 32.6088 6.88447 31.4104C5.49973 30.6781 4.95382 29.0004 5.64619 27.5891C6.76464 25.2989 6.76464 22.6626 5.64619 20.3724C4.95382 18.961 5.49973 17.2834 6.88447 16.5511C9.13468 15.3527 10.6792 13.2223 11.1186 10.7192C11.3849 9.17463 12.7963 8.14939 14.3674 8.36243C16.8972 8.72193 19.4004 7.90973 21.2246 6.13885C22.3563 5.04703 24.1139 5.04703 25.2323 6.13885C27.0698 7.90973 29.5596 8.72193 32.0895 8.36243C33.634 8.14939 35.072 9.17463 35.3383 10.7192C35.7777 13.2357 37.3222 15.3527 39.5724 16.5511C40.9571 17.2834 41.5031 18.961 40.8107 20.3724C39.6922 22.6626 39.6922 25.2989 40.8107 27.5891C41.5031 29.0004 40.9571 30.6781 39.5724 31.4104L39.5857 31.4237Z" fill="#15BBF0"/>
<path d="M23.2211 12.9287L20.0256 19.3997L12.8755 20.4383L18.055 25.4846L16.83 32.5947L23.2211 29.2394L29.6122 32.5947L28.4006 25.4846L33.5668 20.4383L26.4167 19.3997L23.2211 12.9287Z" fill="#15BBF0"/>
</g>
<defs>
<clipPath id="clip0_2658_15442">
<rect width="46.4422" height="48" fill="white"/>
</clipPath>
</defs>
</svg>
