<svg width="34" height="48" viewBox="0 0 34 48" fill="none" xmlns="http://www.w3.org/2000/svg">
<g clip-path="url(#clip0_2875_18190)">
<path d="M31.0588 19.7647H8.47059V14.1176C8.47059 9.44471 12.2682 5.64706 16.9412 5.64706C21.1341 5.64706 24.6071 8.69647 25.2847 12.6918H30.9882C30.2682 5.56235 24.2541 0 16.9412 0C9.14823 0 2.82353 6.32471 2.82353 14.1176V19.7647H0V48H33.8824V19.7647H31.0588ZM25.4118 42.3529H5.66118C5.66118 42.3529 5.66118 42.3388 5.64706 42.3247V25.4118H28.2353V42.3247C28.2353 42.3247 28.2353 42.3388 28.2212 42.3529H25.4118Z" fill="#15BBF0"/>
<path d="M19.7647 31.0588H14.1177V36.7059H19.7647V31.0588Z" fill="#15BBF0"/>
</g>
<defs>
<clipPath id="clip0_2875_18190">
<rect width="33.8824" height="48" fill="white"/>
</clipPath>
</defs>
</svg>
