<?xml version="1.0" encoding="UTF-8"?> <svg xmlns="http://www.w3.org/2000/svg" version="1.1" id="Layer_1" x="0" y="0" width="414.9" height="91.1" viewBox="0 0 414.9 91.1" style="enable-background:new 0 0 414.9 91.1" xml:space="preserve"><style>.st0{fill:#514f60}.st3{fill:#ea5c8e}</style><path class="st0" d="M146.2 21.5h5.4v38.6h-5.4zM109.2 54.9V21.5h-1.7c-2.1 0-3.7 1.7-3.7 3.7v29.4c0 3.1 2.5 5.5 5.5 5.5H132c2.2 0 4-1.7 4-3.9v-1.3h-26.8zM169.6 60.1h1.7V42.3h24.3v-5.1h-24.3V26.6h25.6v-5.2H170c-2.2 0-4 1.8-4 4v31c0 2.1 1.6 3.7 3.6 3.7zM251.6 31.9c-1.2-2.5-3-4.6-5.2-6.3-2.3-1.7-4.9-2.9-7.7-3.6-3.1-.8-6.2-1.2-9.4-1.2-2.2 0-4.3.2-6.4.5-2 .3-3.9.9-5.8 1.6-1.8.7-3.4 1.6-4.9 2.7-1.5 1.1-2.8 2.4-3.8 3.9-1.1 1.6-1.9 3.3-2.5 5.1-.6 2-.9 4.1-.9 6.3-.1 3.1.6 6.2 1.9 9 1.2 2.5 3 4.6 5.2 6.3 2.3 1.7 4.9 2.9 7.7 3.6 3.1.8 6.3 1.2 9.4 1.2 3.2 0 6.3-.4 9.4-1.2 2.8-.7 5.4-1.9 7.7-3.6 2.2-1.6 4-3.8 5.2-6.3 1.3-2.8 2-5.9 1.9-9 .1-3.2-.5-6.2-1.8-9zm-3.6 9c0 2.2-.4 4.4-1.2 6.5-.8 1.8-1.9 3.4-3.5 4.7-1.7 1.3-3.7 2.3-5.8 2.9-5.5 1.3-11.1 1.3-16.6 0-2.1-.6-4.1-1.5-5.9-2.9-1.5-1.2-2.7-2.8-3.5-4.6-.8-2-1.2-4.2-1.2-6.5 0-2.2.4-4.4 1.2-6.4.8-1.8 2-3.4 3.5-4.6 1.7-1.4 3.7-2.4 5.9-3 5.4-1.4 11.2-1.4 16.6 0 2.1.6 4.1 1.5 5.8 2.9 1.5 1.2 2.7 2.8 3.5 4.6.9 1.9 1.3 4.1 1.2 6.4zM292.9 43.6c2.3-.5 4.3-1.7 5.9-3.3 1.7-2 2.5-4.6 2.4-7.3 0-1.7-.3-3.4-1-5-.7-1.5-1.8-2.8-3.1-3.7-1.6-1-3.4-1.8-5.3-2.1-2.4-.5-4.9-.7-7.4-.7h-15.1c-2.3 0-4.1 1.8-4.1 4.1v31.1c0 1.9 1.5 3.4 3.4 3.4h2V44.5h16.5l11.2 14.9c.4.5 1 .8 1.6.8h5.8l-12.8-16.6zm-22.3-17H281c2.9 0 5.4.1 7.3.3 1.6.1 3.1.4 4.6 1 .9.3 1.7 1 2.2 1.8.5 1 .8 2.2.7 3.3.1 1.1-.2 2.3-.7 3.3-.5.8-1.3 1.4-2.2 1.8-1.5.6-3 .9-4.6 1-2 .2-4.5.3-7.4.3h-10.3V26.6zM340.8 53.8l-20.9-32.3h-5.2v34.9c0 2.1 1.7 3.7 3.7 3.7h1.7V31.3L337.4 58c.8 1.3 2.2 2.1 3.8 2.1 1 0 1.9-.5 2.5-1.4l17.6-27.3v24.3c0 2.4 2 4.4 4.4 4.4h.9V21.5h-5.1l-20.7 32.3zM386.6 54.9V42.3h25.5v-5.1h-25.5V26.6h26.9v-5.2h-27.2c-2.9 0-5.3 2.4-5.3 5.3v27c0 3.5 2.8 6.3 6.3 6.3H411c1.7 0 3-1.3 3-3v-2.1h-27.4z"></path><path d="M72.5 6.4c-13.2-10.9-38-2.2-55.3 19.4s-20.9 48-7.7 58.9 37.9 2.2 55.3-19.4 20.8-48 7.7-58.9z" style="fill:#fff"></path><path d="M71 8.9c-11.7-9.7-33.7-2-49.2 17.2S3.4 68.7 15.1 78.4s33.7 1.9 49.2-17.2S82.7 18.6 71 8.9zm-8.2 47C49.8 72 31.3 78.5 21.5 70.4s-7.3-27.8 5.7-44S58.6 3.7 68.5 11.9s7.3 27.9-5.7 44z" style="fill:none"></path><path class="st3" d="M72.5 6.4c-13.2-10.9-38-2.2-55.3 19.4s-20.9 48-7.7 58.9 37.9 2.2 55.3-19.4 20.8-48 7.7-58.9zm-8.3 54.8C48.8 80.3 26.8 88.1 15.1 78.4s-8.7-33.1 6.8-52.3S59.3-.8 71 8.9s8.7 33.1-6.8 52.3z"></path><path class="st3" d="M68.5 11.9c-9.9-8.1-28.4-1.6-41.3 14.6s-15.6 35.9-5.7 44S49.8 72.1 62.8 56s15.6-36 5.7-44.1zM28 37.8c.9-5.4 3.5-13.4 12.9-13.4h4.5L41.9 45H26.8l1.2-7.2zm31.7 13.3c-.6 3.5-3.6 6-7.1 6H32.2c-4.3 0-7.1-3.6-6.2-8l.2-1.2h34l-.5 3.2z"></path></svg> 