<?xml version="1.0" encoding="UTF-8"?> <svg xmlns="http://www.w3.org/2000/svg" xmlns:xlink="http://www.w3.org/1999/xlink" width="133" height="54" viewBox="0 0 133 54"><defs><path id="a" d="M.451 8h4.764V.62H.451V8z"></path><path id="c" d="M.628 8h1.1V.516h-1.1V8z"></path><path id="e" d="M.566 8h4.962V.516H.566z"></path><path id="g" d="M.179 8h4.93V.516H.18V8z"></path><path id="i" d="M.46 8h4.484V.516H.46V8z"></path><path id="k" d="M.192 8h4.961V.516H.192V8z"></path><path id="m" d="M.755 8h4.763V.62H.755V8z"></path><path id="o" d="M.745 8h4.931V.516H.746z"></path><path id="q" d="M.715 8h5.231V.516H.715V8z"></path><path id="s" d="M.54 8h5.23V.62H.54z"></path><path id="u" d="M.112 8h1.101V.516h-1.1z"></path><path id="w" d="M.05 8h4.194V.62H.05z"></path></defs><g fill="none" fill-rule="evenodd"><path d="M60.282 27.836c0-3.015-1.234-4.432-3.56-4.432-2.289 0-3.524 1.38-3.524 4.432h7.084zm-7.084 3.452c0 1.489.254 2.47.727 3.124.617.799 1.562 1.235 2.797 1.235 1.38 0 2.688-.4 3.924-.944a1.95 1.95 0 0 1 .763-.182c.908 0 1.78.763 1.78 1.708 0 .69-.29 1.307-.945 1.634a12.636 12.636 0 0 1-5.522 1.236c-2.107 0-3.923-.691-5.268-2.035-1.308-1.308-1.998-3.124-1.998-5.268v-4.577c0-2.108.69-3.924 1.998-5.232 1.345-1.344 3.161-2.034 5.268-2.034 2.143 0 3.96.69 5.268 2.034 1.308 1.308 2.034 3.124 2.034 5.232v1.707a2.357 2.357 0 0 1-2.36 2.362h-8.466zM73.498 32.632l-3.852 5.667c-.363.509-.944.8-1.525.8-.981 0-1.89-.836-1.89-1.89 0-.363.11-.726.328-1.053l4.759-6.721-4.65-6.54a1.895 1.895 0 0 1-.327-1.053c0-.981.836-1.89 1.888-1.89.582 0 1.164.29 1.527.8l3.742 5.486 3.741-5.486c.363-.545.982-.8 1.563-.8 1.017 0 1.852.836 1.852 1.89 0 .363-.108.727-.327 1.054l-4.649 6.539 4.758 6.72c.255.328.364.69.364 1.055 0 1.017-.872 1.889-1.925 1.889a1.802 1.802 0 0 1-1.526-.8l-3.851-5.667zM93.506 30.851h-3.741c-3.161 0-3.343 1.708-3.343 2.325 0 .654.182 2.47 3.343 2.47 1.234 0 2.579-.18 3.74-.472v-4.323zm3.742 5.086a2.346 2.346 0 0 1-1.598 2.216c-1.781.618-3.851.945-5.885.945-2.217 0-3.96-.545-5.196-1.599-1.235-1.053-1.89-2.543-1.89-4.323 0-1.78.655-3.16 1.89-4.178 1.236-1.053 2.979-1.598 5.196-1.598h3.74v-1.272c0-1.526-1.125-2.725-3.015-2.725-1.707 0-2.651.22-3.922.981-.291.182-.691.327-1.018.327-.981 0-1.78-.726-1.78-1.634 0-.654.29-1.309.908-1.672 1.962-1.126 3.67-1.453 6.285-1.453 4.069 0 6.285 2.943 6.285 6.176v9.81zM112.243 26.928c0-2.216-1.308-3.524-3.56-3.524-1.2 0-2.398.181-3.524.472V37.21c0 1.054-.836 1.89-1.854 1.89a1.875 1.875 0 0 1-1.888-1.89V23.113a2.3 2.3 0 0 1 1.598-2.216 17.354 17.354 0 0 1 5.667-.945c2.144 0 3.96.691 5.268 2.035 1.31 1.308 2.035 3.124 2.035 5.232v9.99a1.876 1.876 0 0 1-1.889 1.89c-1.054 0-1.853-.836-1.853-1.89V26.93zM122.879 30.415c-1.962-.727-3.488-2.252-3.488-4.977 0-3.197 2.652-5.486 6.285-5.486 2.47 0 3.742.363 4.94.908.728.291 1.2.945 1.2 1.708 0 .945-.763 1.744-1.744 1.744-.255 0-.618-.073-.872-.182-.908-.436-2.397-.727-3.596-.727-1.49 0-2.471.727-2.471 1.962 0 .945.726 1.526 1.489 1.78l3.56 1.163c2.399.8 3.852 2.434 3.852 5.086 0 3.197-2.58 5.704-6.467 5.704-2.143 0-3.887-.4-5.231-1.017-.69-.327-1.127-.945-1.127-1.67 0-.946.8-1.818 1.816-1.818.255 0 .583.11.836.218.982.51 2.18.835 3.779.835 1.744 0 2.652-.653 2.652-1.889 0-1.344-1.09-1.78-2.434-2.252l-2.98-1.09zM23.682 52.81c.706 0 1.069-.405 1.069-1.111 0-.602-.52-1.09-1.235-1.09h-1.173v2.2h1.339zm-.23-3.25c.635 0 1.102-.425 1.102-.964 0-.613-.311-.966-.945-.966h-1.266v1.93h1.11zm-1.535 4.298a.671.671 0 0 1-.674-.664v-5.948c0-.363.3-.664.674-.664h1.692c1.225 0 2.045.81 2.045 2.014a1.83 1.83 0 0 1-.695 1.443c.612.415.892 1.038.892 1.66 0 1.298-.872 2.159-2.17 2.159h-1.764z" fill="#000"></path><g transform="translate(27 45.962)"><mask id="b" fill="#fff"><use xlink:href="#a"></use></mask><path d="M3.056 3.796c.478 0 1.027-.197 1.027-1.038 0-.623-.362-1.09-1.027-1.09H1.551v2.128h1.505zm-.57 1.048H1.55V7.46c0 .301-.26.54-.55.54a.545.545 0 0 1-.55-.54V1.284c0-.363.301-.664.674-.664h1.931c.612 0 1.142.197 1.526.581.394.394.602.934.602 1.557 0 .623-.208 1.152-.592 1.526-.249.24-.55.394-.903.488L5.132 7.19a.55.55 0 0 1 .083.28c0 .27-.249.53-.54.53a.517.517 0 0 1-.456-.26L2.485 4.844z" fill="#000" mask="url(#b)"></path></g><g transform="translate(33 45.962)"><mask id="d" fill="#fff"><use xlink:href="#c"></use></mask><path d="M.628 1.066c0-.3.25-.55.55-.55.29 0 .55.25.55.55V7.45c0 .301-.26.55-.55.55-.3 0-.55-.249-.55-.55V1.066z" fill="#000" mask="url(#d)"></path></g><g transform="translate(36 45.962)"><mask id="f" fill="#fff"><use xlink:href="#e"></use></mask><path d="M1.667 2.882V7.46c0 .3-.25.54-.54.54a.555.555 0 0 1-.561-.54V1.117c0-.332.29-.602.602-.602.229 0 .425.115.53.302l2.73 4.816V1.056c0-.302.26-.54.56-.54.29 0 .54.238.54.54v6.341a.61.61 0 0 1-.602.604.61.61 0 0 1-.52-.312l-2.74-4.807z" fill="#000" mask="url(#f)"></path></g><g transform="translate(43 45.962)"><mask id="h" fill="#fff"><use xlink:href="#g"></use></mask><path d="M4.01 4.876H2.992a.526.526 0 0 1-.53-.53c0-.29.24-.53.53-.53h1.443c.374 0 .675.302.675.676v2.532c0 .27-.156.509-.394.613C4.218 7.855 3.51 8 2.858 8 1.258 8 .178 6.92.178 5.31V3.206c0-1.61 1.08-2.69 2.68-2.69.57 0 1.245.178 1.723.468a.566.566 0 0 1 .259.478c0 .28-.24.498-.54.498a.55.55 0 0 1-.28-.083c-.27-.166-.747-.343-1.162-.343-1.007 0-1.578.623-1.578 1.63v2.2c0 1.008.57 1.62 1.578 1.62.404 0 .798-.073 1.152-.187v-1.92z" fill="#000" mask="url(#h)"></path></g><g transform="translate(49 45.962)"><mask id="j" fill="#fff"><use xlink:href="#i"></use></mask><path d="M1.685 4.294C.875 3.941.46 3.308.46 2.498.46 1.263 1.623.516 2.806.516c.571 0 1.173.104 1.713.342.218.094.404.24.404.53a.51.51 0 0 1-.716.456c-.248-.093-.611-.31-1.452-.31-.508 0-1.183.207-1.183.912 0 .488.238.706.653.893l1.183.52c.79.342 1.536.83 1.536 1.94C4.944 7.055 4.042 8 2.64 8c-.613 0-1.319-.166-1.858-.395a.509.509 0 0 1-.322-.488c0-.29.187-.529.498-.529.135 0 .24.031.333.073.425.187.861.321 1.35.321.747 0 1.192-.363 1.192-1.048 0-.519-.436-.882-.901-1.09l-1.246-.55z" fill="#000" mask="url(#j)"></path></g><path d="M59.105 53.858a.678.678 0 0 1-.674-.665v-5.947c0-.353.3-.664.675-.664h3.01c.3 0 .54.238.54.54 0 .29-.24.508-.54.508H59.53v1.931h2.45a.525.525 0 0 1 0 1.048h-2.45v2.201h2.657c.29 0 .54.228.54.52 0 .3-.25.528-.54.528h-3.083z" fill="#000"></path><g transform="translate(64 45.962)"><mask id="l" fill="#fff"><use xlink:href="#k"></use></mask><path d="M1.293 2.882V7.46c0 .3-.25.54-.54.54a.555.555 0 0 1-.561-.54V1.117c0-.332.29-.602.602-.602.228 0 .426.115.529.302l2.731 4.816V1.056c0-.302.26-.54.56-.54.291 0 .539.238.539.54v6.341c0 .343-.29.604-.601.604a.611.611 0 0 1-.52-.312L1.293 2.881z" fill="#000" mask="url(#l)"></path></g><path d="M71.667 53.858a.678.678 0 0 1-.675-.665v-5.947c0-.353.302-.664.675-.664h3.011c.301 0 .539.238.539.54 0 .29-.238.508-.539.508h-2.585v1.931h2.45c.301 0 .539.228.539.53 0 .29-.238.518-.539.518h-2.45v2.201h2.657c.291 0 .54.228.54.52 0 .3-.249.528-.54.528h-3.083z" fill="#000"></path><g transform="translate(76 45.962)"><mask id="n" fill="#fff"><use xlink:href="#m"></use></mask><path d="M3.36 3.796c.477 0 1.027-.197 1.027-1.038 0-.623-.363-1.09-1.027-1.09H1.854v2.128H3.36zm-.57 1.048h-.936V7.46c0 .301-.259.54-.55.54a.545.545 0 0 1-.549-.54V1.284c0-.363.3-.664.673-.664H3.36c.611 0 1.142.197 1.525.581.395.394.602.934.602 1.557 0 .623-.207 1.152-.59 1.526a2.022 2.022 0 0 1-.904.488L5.435 7.19a.55.55 0 0 1 .083.28c0 .27-.249.53-.539.53a.519.519 0 0 1-.457-.26L2.79 4.844z" fill="#000" mask="url(#n)"></path></g><g transform="translate(82 45.962)"><mask id="p" fill="#fff"><use xlink:href="#o"></use></mask><path d="M4.575 4.876H3.557a.526.526 0 0 1-.529-.53c0-.29.24-.53.53-.53H5c.373 0 .675.302.675.676v2.532c0 .27-.157.509-.395.613C4.783 7.855 4.077 8 3.423 8 1.824 8 .745 6.92.745 5.31V3.206c0-1.61 1.08-2.69 2.678-2.69.571 0 1.246.178 1.723.468a.566.566 0 0 1 .26.478c0 .28-.239.498-.54.498a.553.553 0 0 1-.28-.083c-.27-.166-.748-.343-1.163-.343-1.007 0-1.577.623-1.577 1.63v2.2c0 1.008.57 1.62 1.577 1.62.405 0 .798-.073 1.152-.187v-1.92z" fill="#000" mask="url(#p)"></path></g><g transform="translate(88 45.962)"><mask id="r" fill="#fff"><use xlink:href="#q"></use></mask><path d="M2.791 4.71L.787 1.326a.54.54 0 0 1 .457-.81c.187 0 .373.094.467.26L3.33 3.62 4.949.776a.536.536 0 0 1 .997.28c0 .093-.02.187-.073.27L3.87 4.71v2.75a.537.537 0 0 1-.54.54.536.536 0 0 1-.539-.54V4.71z" fill="#000" mask="url(#r)"></path></g><g transform="translate(97 45.962)"><mask id="t" fill="#fff"><use xlink:href="#s"></use></mask><path d="M2.604 1.668H1.068A.516.516 0 0 1 .54 1.15c0-.3.228-.529.53-.529H5.23c.301 0 .54.228.54.53 0 .29-.239.518-.54.518H3.705V7.45c0 .301-.248.55-.55.55a.554.554 0 0 1-.55-.55V1.668z" fill="#000" mask="url(#t)"></path></g><path d="M107.765 48.97c0-.925-.52-1.475-1.442-1.475-.924 0-1.454.55-1.454 1.474v2.502c0 .923.53 1.474 1.454 1.474.922 0 1.442-.55 1.442-1.474V48.97zm1.1 2.438c0 1.526-1.028 2.554-2.542 2.554-1.527 0-2.554-1.028-2.554-2.554v-2.377c0-1.525 1.027-2.553 2.554-2.553 1.514 0 2.543 1.028 2.543 2.553v2.377zM114.212 53.858a.688.688 0 0 1-.675-.675v-6.155c0-.3.26-.55.55-.55.302 0 .55.26.55.56v5.772h2.658a.525.525 0 1 1 .01 1.048h-3.093z" fill="#000"></path><g transform="translate(119 45.962)"><mask id="v" fill="#fff"><use xlink:href="#u"></use></mask><path d="M.112 1.066c0-.3.25-.55.551-.55.29 0 .55.25.55.55V7.45a.56.56 0 0 1-.55.55.554.554 0 0 1-.55-.55V1.066z" fill="#000" mask="url(#v)"></path></g><g transform="translate(122 45.962)"><mask id="x" fill="#fff"><use xlink:href="#w"></use></mask><path d="M1.151 4.647V7.46c0 .301-.25.54-.54.54a.555.555 0 0 1-.56-.54V1.284C.05.931.35.62.724.62h2.98c.3 0 .54.228.54.53 0 .29-.24.518-.54.518H1.15V3.6H3.57c.301 0 .54.228.54.53 0 .29-.239.518-.54.518H1.151z" fill="#000" mask="url(#x)"></path></g><path d="M128.196 53.858a.678.678 0 0 1-.674-.665v-5.947c0-.353.301-.664.674-.664h3.011c.301 0 .54.238.54.54 0 .29-.239.508-.54.508h-2.585v1.931h2.45c.301 0 .54.228.54.53 0 .29-.239.518-.54.518h-2.45v2.201h2.657c.291 0 .54.228.54.52 0 .3-.249.528-.54.528h-3.083z" fill="#000"></path><path class="logo-initial" d="M57.42.8S55.33 0 52.5 0c-5.126 0-7.824 2.8-9.133 4.599-1.24 1.703-2.018 3.477-2.607 5.93-.563 2.346-.653 5.28-.751 7.617-.244 5.874.307 16.214-2.228 16.214-1.301 0-2.19-2.002-2.49-2.77-.123-.311-1.113-3.187-2.338-8.626-.762-3.388-2.573-11.548-3.1-13.382-.243-.846-.856-3.088-2.05-5.033C26.24 1.999 23.574.715 21.26.715c-2.25 0-4.325 1.549-5.088 2.3-2.322 2.289-3.081 5.628-3.325 6.955-.263 1.432-.588 4.425-.588 4.425-.465 3.567-1.244 9.748-1.421 11.043-.908 6.668-2.805 7.743-4.634 8.338-.43.14-1.253.204-1.536.204-1.19 0-2.133-.345-2.133-.345-.13-.051-.37-.146-.65-.146-.162 0-.318.03-.461.094-.386.168-.561.399-.621.507C.058 35.234 0 36.462 0 36.81c0 .843.514 1.125.67 1.19.044.02 1.1.47 2.656.712 4.674.724 7.599-2.028 8.39-2.8.745-.725 2.03-2.22 2.878-5.143.54-1.865.855-3.694 1.094-5.725.18-1.534 1.357-11.682 1.597-13.104.253-1.495.638-3.048 1.376-4.47.52-1.001 1.416-2.076 2.737-2.076.508 0 .974.155 1.385.46 1.266.938 2.02 3.154 2.273 4.11.338 1.287 2.755 11.45 3.137 13.22 2.573 11.915 4.308 13.98 6.707 15.175 1.373.683 4.07 1.444 6.518-.486 2.746-2.165 2.817-6.39 3.004-8.955.192-2.643.199-4.758.212-5.707.13-9.436.208-12.343 2.727-15.982 1.356-1.96 4.137-3.343 8.747-1.914.112.034.36.095.566.095.894 0 1.266-.908 1.497-1.81.156-.61.59-2.366-.751-2.8" fill="#DA2F2D"></path></g></svg> 