<?xml version="1.0" encoding="UTF-8"?> <!-- Generator: Adobe Illustrator 24.0.1, SVG Export Plug-In . SVG Version: 6.00 Build 0) --> <svg xmlns="http://www.w3.org/2000/svg" xmlns:xlink="http://www.w3.org/1999/xlink" version="1.1" id="logoText" x="0px" y="0px" viewBox="0 0 307 113.9" style="enable-background:new 0 0 307 113.9;" xml:space="preserve"> <style type="text/css"> .st0{fill:#DA3F42;} </style> <path d="M288.8,87.4h4.6V105c0,3.9,2.1,5.9,4.8,5.9c3.1,0,5.4-1.7,5.4-5.9V87.4h3.6v17.5c0,6.2-3.5,9.2-9.1,9.2 c-5.5,0-9.4-2.9-9.4-9.2V87.3L288.8,87.4z M273.6,90.7l-3.6,12.1h7.7L273.6,90.7L273.6,90.7z M263.1,113.6l8.3-26.1h5.4 c0.3,0,0.4,0.2,0.5,0.4l8.9,25.8h-4.6c-0.3,0-0.6-0.2-0.7-0.7l-2.5-7.4H269l-2.4,8.1L263.1,113.6L263.1,113.6z M246.1,87.4h13.8V90 h-9.2v8.6h8.5v2.6h-8.5v9.2c0,0.2,0.2,0.4,0.3,0.4h9.2v2.7h-13.7c-0.3,0-0.5-0.3-0.5-0.6L246.1,87.4L246.1,87.4z M242,113.5h-4.8 c-0.3,0-0.7-0.2-0.9-0.6l-7.4-12.3c-0.1-0.2,0.1-0.4,0.3-0.4h0.7c2.9,0,5.2-2.2,5.2-5.8c0-3-1.8-4.9-4.8-4.9h-2.7 c-0.2,0-0.3,0.2-0.3,0.4v23.5h-4.6V91.3c0-0.2,0-0.5-0.2-0.7l-1.8-3.1c-0.1-0.1-0.1-0.2,0.2-0.2h11c4.9,0,8.4,2.5,8.4,6.8 c0,4.4-2.9,6.4-5.6,7.1l7.5,12.2L242,113.5z M200.1,87.4h17.3v2.8H211v23.4h-4.6V90.2H200v-2.8H200.1z M196.3,113.5h-0.9L179.7,94 v19.5h-3.3V90.9c0-0.5,0-1-0.3-1.2l-1.7-2.3h6L193,103V87.4h3.3V113.5L196.3,113.5z M169.1,113.5h-4.6V87.4h4.6V113.5z M148,89.5 c-4.1,0-6.5,4-6.5,10.4c0,7.4,2.4,11.2,6.5,11.2c4.3,0,6.7-3.8,6.7-11.2C154.7,93.5,152.5,89.4,148,89.5L148,89.5z M148,114.1 c-6.8,0-11.6-5-11.6-14.2c0-7.9,4.8-13.1,11.6-13.1c7.5,0,11.8,5.2,11.8,13.2C159.8,109.1,155.4,114.1,148,114.1z M134.5,112.5 c-1.6,0.9-3.8,1.5-6.2,1.5c-7.7,0-13.3-4.7-13.3-14.2c0-8.9,5.6-13.1,13-13.1c2.6,0,4.9,0.6,6.5,1.4v5.7c0,0.3-0.3,0.3-0.5,0.1 l-2.5-3.1c-0.4-0.5-0.6-0.7-1.2-0.9c-0.7-0.2-1.5-0.3-2.4-0.3c-3.8,0-7.9,3.3-7.9,10.3c0,6.9,3.5,10.7,8.7,10.7 c2.4,0,4.3-0.7,5.8-1.5C134.5,109.1,134.5,112.5,134.5,112.5z M91.2,104l-9.6-16.7H87l7.1,12.6c2.2-3.6,4.7-9,6.7-12 c0.3-0.5,0.5-0.6,1-0.6h3.5L95.9,104v9.5h-4.6L91.2,104L91.2,104z M77.9,113.4h-4.6V93.3L64.9,108c-0.1,0.1-0.4,0.1-0.5,0L56,94.4 v18.9h-3.2V89.4l-1.3-1.9c-0.1-0.2,0-0.3,0.1-0.3h5.2l8.4,13.5l7.5-13c0.2-0.4,0.5-0.5,1-0.5h4.2V113.4z M37.7,86l3.1-4.1 c0.2-0.3,0.5-0.4,0.8-0.4h3.8l-3.8,4.1c-0.3,0.3-0.5,0.4-0.8,0.4H37.7z M31.9,87.2H47v2.6H36.5v8.3h9.6v2.7h-9.6v9.4 c0,0.3,0.1,0.5,0.4,0.5h10.7v2.7H33.1c-0.7,0-1.2-0.4-1.2-1.2V87.3L31.9,87.2z M27.8,113.4h-5c-0.6,0-1-0.2-1.4-0.8L10.5,97.2 c-0.1-0.2,0-0.4,0.2-0.4h1.1c4.8,0,7.9-2.1,7.9-6.4c0-3.5-2.7-5.8-6.6-5.9h-6c-0.1,0-0.2,0.1-0.2,0.2v28.6H2.2V87.2 c0-0.3-0.1-0.4-0.2-0.6l-2.1-4.5c-0.1-0.1,0-0.3,0.2-0.3H14c6.5,0,10.8,3.5,10.8,8.4c0,5.3-4.1,7.6-7.7,8.1l10.6,14.9L27.8,113.4z"></path> <path class="st0" d="M288.3,88h4.6v17.6c0,3.9,2.1,5.9,4.8,5.9c3.1,0,5.4-1.7,5.4-5.9V88h3.6v17.5c0,6.2-3.5,9.2-9.1,9.2 c-5.5,0-9.4-2.9-9.4-9.2V87.9L288.3,88z M273.1,91.3l-3.6,12.1h7.7L273.1,91.3L273.1,91.3z M262.6,114.2l8.3-26.1h5.4 c0.3,0,0.4,0.2,0.5,0.4l8.9,25.8h-4.6c-0.3,0-0.6-0.2-0.7-0.7l-2.5-7.4h-9.4l-2.4,8.1L262.6,114.2L262.6,114.2z M245.6,88h13.8v2.6 h-9.2v8.6h8.5v2.6h-8.5v9.2c0,0.2,0.2,0.4,0.3,0.4h9.2v2.7H246c-0.3,0-0.5-0.3-0.5-0.6L245.6,88L245.6,88z M241.5,114.1h-4.8 c-0.3,0-0.7-0.2-0.9-0.6l-7.4-12.3c-0.1-0.2,0.1-0.4,0.3-0.4h0.7c2.9,0,5.2-2.2,5.2-5.8c0-3-1.8-4.9-4.8-4.9h-2.7 c-0.2,0-0.3,0.2-0.3,0.4V114h-4.6V91.9c0-0.2,0-0.5-0.2-0.7l-1.8-3.1c-0.1-0.1-0.1-0.2,0.2-0.2h11c4.9,0,8.4,2.5,8.4,6.8 c0,4.4-2.9,6.4-5.6,7.1l7.5,12.2L241.5,114.1z M199.6,88h17.3v2.8h-6.4v23.4h-4.6V90.8h-6.4V88H199.6z M195.8,114.1h-0.9l-15.7-19.5 v19.5h-3.3V91.5c0-0.5,0-1-0.3-1.2l-1.7-2.3h6l12.6,15.6V88h3.3V114.1L195.8,114.1z M168.6,114.1H164V88h4.6V114.1z M147.5,90.1 c-4.1,0-6.5,4-6.5,10.4c0,7.4,2.4,11.2,6.5,11.2c4.3,0,6.7-3.8,6.7-11.2C154.2,94.1,152,90,147.5,90.1L147.5,90.1z M147.5,114.7 c-6.8,0-11.6-5-11.6-14.2c0-7.9,4.8-13.1,11.6-13.1c7.5,0,11.8,5.2,11.8,13.2C159.3,109.7,154.9,114.7,147.5,114.7z M134,113.1 c-1.6,0.9-3.8,1.5-6.2,1.5c-7.7,0-13.3-4.7-13.3-14.2c0-8.9,5.6-13.1,13-13.1c2.6,0,4.9,0.6,6.5,1.4v5.7c0,0.3-0.3,0.3-0.5,0.1 l-2.5-3.1c-0.4-0.5-0.6-0.7-1.2-0.9c-0.7-0.2-1.5-0.3-2.4-0.3c-3.8,0-7.9,3.3-7.9,10.3c0,6.9,3.5,10.7,8.7,10.7 c2.4,0,4.3-0.7,5.8-1.5C134,109.7,134,113.1,134,113.1z M90.7,104.6l-9.6-16.7h5.4l7.1,12.6c2.2-3.6,4.7-9,6.7-12 c0.3-0.5,0.5-0.6,1-0.6h3.5l-9.4,16.7v9.5h-4.6L90.7,104.6L90.7,104.6z M77.4,114h-4.6V93.9l-8.4,14.7c-0.1,0.1-0.4,0.1-0.5,0 L55.5,95v18.9h-3.2V90L51,88.1c-0.1-0.2,0-0.3,0.1-0.3h5.2l8.4,13.5l7.5-13c0.2-0.4,0.5-0.5,1-0.5h4.2V114z M37.2,86.6l3.1-4.1 c0.2-0.3,0.5-0.4,0.8-0.4h3.8l-3.8,4.1c-0.3,0.3-0.5,0.4-0.8,0.4H37.2z M31.4,87.8h15.1v2.6H36v8.3h9.6v2.7H36v9.4 c0,0.3,0.1,0.5,0.4,0.5h10.7v2.7H32.6c-0.7,0-1.2-0.4-1.2-1.2L31.4,87.8L31.4,87.8z M27.3,114h-5c-0.6,0-1-0.2-1.4-0.8L10,97.8 c-0.1-0.2,0-0.4,0.2-0.4h1.1c4.8,0,7.9-2.1,7.9-6.4c0-3.5-2.7-5.8-6.6-5.9h-6c-0.1,0-0.2,0.1-0.2,0.2v28.6H1.7V87.8 c0-0.3-0.1-0.4-0.2-0.6l-2.1-4.5c-0.1-0.1,0-0.3,0.2-0.3h13.9c6.5,0,10.8,3.5,10.8,8.4c0,5.3-4.1,7.6-7.7,8.1l10.6,14.9L27.3,114z"></path> <path class="st0" d="M178.2,49c-1.7,1-3.5,1.7-6.5,1.7c-6,0-10.7-5-10.7-13.4c0-8,4.2-12.9,9.2-12.9c2,0,3.7,0.2,5,1.7 c0.7,1,1.7,2.2,2.5,3.5c0.2,0.2,0.5,0.2,0.5-0.2v-6.5c-1.7-0.7-4.5-1.7-7.5-1.7c-8.4,0-14.7,5.2-14.7,16.2c0,11.2,7,17.6,15.2,17.6 c2.7,0,5.2-0.5,7-2V49z M162,61.1c-6.7-8.7-11.9-16.2-15.4-21.6c3.5-0.5,7.5-3,7.5-8.7c0-5-4-8.9-10.7-8.9h-12.9 c-0.2,0-0.2,0.2-0.2,0.5l1.7,4.2c0,0,0.2,0.2,0.2,0.5v27.1h4.7V25.1c0-0.2,0-0.5,0.2-0.5h5c4.2,0,6.7,2.5,6.7,6.2 c0,4.2-2.7,6.7-7.5,6.7h-1.2c-0.2,0-0.5,0.2-0.2,0.5c5.5,8.4,10.4,15.7,15.4,22.4c0.2,0.5,0.7,0.7,1.2,0.7h5H162z M155.3,75.5 c22.4,0,35-14.7,35-34.5c0-22.6-13.9-37-35.3-37c-22.6,0-35.3,16.4-35.3,35.8C119.8,60.4,134.5,75.5,155.3,75.5z M115.3,41 c0-21.1,15.2-40,41-40c22.9,0,38.5,16.2,38.5,39c0,20.9-15.9,39.3-40.3,39.3C132,79.3,115.3,63.1,115.3,41z"></path> </svg> 