<?xml version="1.0" encoding="UTF-8"?> <svg xmlns="http://www.w3.org/2000/svg" width="260" height="208" viewBox="0 0 260 208" fill="none"><g clip-path="url(#clip0)"><path d="M117.45 171.21C118.55 171.21 120.45 170.85 121.95 168.465C121.1 166.57 120.49 162.74 120.405 161.35C119.97 154.225 122.715 147.52 125.72 147.35C127.92 147.215 129.685 149.305 129.885 152.68C130.43 161.56 127.47 165.27 125.99 168.465C126.24 169.705 128.345 171.815 130.33 171.815C131.003 171.819 131.655 171.583 132.17 171.15C131.964 170.459 131.863 169.741 131.87 169.02C131.87 163.87 135.18 159.52 138.05 159.52C140.325 159.52 141.65 162.52 141.65 164.52C141.65 166.87 139.65 168.785 136.725 170.625C137.356 171.181 138.165 171.493 139.005 171.505C143.2 171.505 145.395 166.435 147.005 161.8C147.3 160.915 147.82 159.665 148.845 159.665C150.61 159.665 151.345 171.28 154.28 171.28C155.535 171.28 156.56 168.705 156.56 166.725C156.56 165.255 156.06 165.11 156.06 162.975C156.06 160.625 157.31 158.645 159.005 158.645C160.035 158.645 160.405 159.645 160.405 160.915C160.405 165.62 157.02 174.37 152.025 174.37C148.27 174.37 148.565 167.9 147.245 167.9C145.745 167.9 143.71 174.445 136.435 174.445C135.766 174.415 135.111 174.241 134.515 173.935C133.919 173.63 133.396 173.2 132.98 172.675C131.22 173.855 129.745 174.37 128.055 174.37C125.34 174.37 124.16 171.575 123.055 171.575C121.73 171.575 120.265 174.445 115.85 174.445C112.32 174.445 111.73 169.74 110.485 169.74C109.38 169.74 107.69 174.445 105.855 174.445C102.76 174.445 102.105 166.285 99.3552 166.285C97.2252 166.285 90.4902 174.57 88.6602 174.38C87.9252 174.305 87.6152 173.755 87.6952 173.02C87.8002 172.02 88.6952 169.28 89.0302 168.02C89.6252 165.785 90.1702 163.335 90.4752 162.55C90.6077 162.183 90.8471 161.864 91.1626 161.634C91.478 161.404 91.8551 161.274 92.2452 161.26C92.5802 161.295 92.6752 161.91 92.7802 162.415C93.1502 164.235 93.6702 166.09 94.2552 166.09C95.2852 166.09 98.6952 159.545 100.68 159.545C103.11 159.545 103.4 169.84 106.705 169.84C107.81 169.84 108.62 168.515 109.355 166.895C109.43 164.17 110.165 160.285 112.355 160.285C113.9 160.285 114.635 163.735 113.53 166.75C113.555 170.325 115.905 171.21 117.45 171.21ZM176.255 162.39C175.345 166.17 172.58 171.725 168.46 171.725C167.505 171.725 165.815 171.36 165.815 170.4C165.815 169.44 172.29 169.23 172.29 164.3C172.29 162.465 170.6 159.89 168.095 159.89C164.79 159.89 161.565 163.495 161.565 168.49C161.565 172.99 164.345 174.445 167.14 174.445C171.995 174.445 174.935 170.47 176.475 167.165C177.215 169.37 177.65 174.445 179.475 174.445C180.21 174.445 180.73 174.075 181.61 172.095C183.81 167.165 185.945 161.505 188.89 161.505C189.985 161.505 189.33 163.505 191.975 163.505C192.261 163.502 192.542 163.442 192.804 163.328C193.066 163.215 193.303 163.051 193.501 162.845C193.699 162.64 193.853 162.397 193.956 162.13C194.059 161.864 194.108 161.58 194.1 161.295C194.1 159.6 192.56 158.295 190.21 158.295C183.3 158.295 181.83 168.66 180.71 168.66C178.87 168.66 179.455 160.35 178.13 160.35C176.99 160.33 176.415 161.735 176.255 162.39ZM127.49 154.635C127.365 152.58 126.87 151.635 125.765 151.725C124.3 151.815 123.62 156.42 123.92 161.265C124.11 164.42 124.585 164.905 125.02 164.875C125.83 164.845 127.775 159.2 127.49 154.635ZM115.54 150.315C115.499 149.749 115.237 149.222 114.81 148.847C114.384 148.473 113.827 148.282 113.26 148.315C111.865 148.315 110.55 149.78 110.69 151.62C110.78 152.83 111.495 153.83 112.9 153.83C114.51 153.865 115.685 152.025 115.54 150.33V150.315ZM138.4 165.315C138.4 164.07 137.74 163.04 136.935 163.04C136.265 163.04 134.73 163.77 134.73 166.125C134.66 167.239 134.999 168.34 135.685 169.22C137.81 168.565 138.4 166.8 138.4 165.325V165.315ZM167.14 162.815C168.685 162.815 169.14 164.645 168.76 165.75C168.38 166.855 167.07 168.105 165.01 168.47C164.57 167.385 164.345 162.835 167.14 162.835V162.815ZM82.5002 157.635C82.0851 156.568 81.7508 155.472 81.5002 154.355C81.1302 151.9 82.4152 150.28 83.5952 149.91C84.9202 149.54 85.4352 150.205 85.9452 151.75C86.6102 154.1 86.6802 157.185 86.4452 161.595C86.1552 167.625 83.1402 174.905 75.6452 174.755C69.1702 174.615 66.3102 170.42 66.0102 164.025C65.8375 160.543 66.2862 157.059 67.3352 153.735C67.9952 151.455 68.5852 150.645 70.6402 150.205C72.2602 149.91 72.1152 151.6 71.7452 153.59C70.9402 158 70.5652 160.13 70.8652 165.13C71.1552 170.42 73.5852 172.48 76.2302 172.48C80.2002 172.555 81.9602 169.25 82.7002 164.48C83.3102 160.635 82.8702 158.79 82.5002 157.635Z" fill="#0067B1"></path><path d="M169.225 61.98C169.725 65.685 175.345 70.68 176.865 70.56C177.865 70.475 178.27 65.725 178.27 61.98C178.27 59.835 178.39 58.16 177.27 57.765C175.435 61.395 170.725 62.135 169.225 61.98ZM169.535 60.345C173.585 60.345 177.295 57.105 177.295 54.26C177.295 52.93 176.67 51.84 175.07 51.645C175.214 51.8166 175.322 52.015 175.389 52.2286C175.456 52.4423 175.48 52.667 175.46 52.89C175.46 55.04 172.19 57.42 168.64 57.42C167.35 57.42 166.96 58.315 166.96 58.78C166.935 59.875 167.99 60.345 169.51 60.345H169.535ZM168.675 55.935C168.13 55.935 167.35 55.935 166.92 55.08C166.565 54.375 166.685 53.245 166.02 52.735C166.646 52.8904 167.291 52.9561 167.935 52.93C169.69 52.93 171.37 51.725 172.66 51.725C172.809 51.7055 172.961 51.7199 173.104 51.7672C173.247 51.8145 173.378 51.8936 173.486 51.9984C173.594 52.1032 173.677 52.231 173.729 52.3724C173.781 52.5139 173.8 52.6651 173.785 52.815C173.76 54.53 170.29 55.935 168.65 55.935H168.675Z" fill="#0067B1"></path><path d="M81.4 86.5152C82.725 86.5152 82.455 78.4002 84.6 78.4002C85.1 78.4002 85.26 78.9002 85.26 79.5352C85.26 81.3652 84.365 84.0352 84.365 85.5352C84.365 86.2752 84.56 86.5102 84.91 86.5102C85.85 86.5102 87.485 77.5752 89.085 77.5752C89.585 77.5752 89.825 78.0752 89.825 78.5752C89.825 80.4502 87.445 85.8302 87.445 87.3502C87.445 87.5852 87.525 87.7802 87.72 87.7802C88.695 87.7802 90.645 83.5702 91.27 81.4652C91.62 80.3702 92.09 79.7852 92.52 79.7852C92.95 79.7852 93.26 80.2152 93.26 81.1102C93.26 83.2202 91.305 88.1702 89.59 91.4902C88.265 94.0652 86.2 97.7652 86.2 99.8352C86.2 100.885 86.395 101.98 87.915 103.305C85.415 103.15 84.415 102.915 83.47 100.965C79.295 109.275 91.155 108.465 87.095 115.825C86.355 114.5 80.505 113.135 80.505 105.41C80.505 98.7402 86.355 94.8402 86.355 92.0702C86.3587 91.7917 86.2968 91.5162 86.1744 91.2661C86.0519 91.0159 85.8723 90.7981 85.65 90.6302C84.365 89.5352 84.325 88.6302 83.315 88.6302C82.57 88.6302 81.675 90.3452 82.61 91.8652C82.92 92.3652 83.195 92.6852 83.195 93.1552C83.195 94.2452 81.48 97.1552 80.27 97.1552C79.06 97.1552 78.125 94.1552 78.125 89.3152C78.125 85.0252 79.1 80.6952 80.31 80.6952C80.66 80.6952 80.775 80.9302 80.775 81.2452C80.775 81.7452 80.62 82.7452 80.62 84.4802C80.62 86.3602 81.05 86.5152 81.4 86.5152Z" fill="#0067B1"></path><path d="M91.345 97.9448C92.985 97.9448 94.345 96.7298 94.345 94.0448V90.0448C94.345 88.5448 94.46 86.8098 95.475 85.5948C95.3798 86.1091 95.3412 86.6322 95.36 87.1548C95.36 90.5098 97.23 92.8148 97.23 96.0498C97.23 97.2598 96.88 97.9248 95.945 97.9248C95.01 97.9248 95.125 97.1048 94.945 97.1048C94.765 97.1048 94.555 97.6048 94.555 98.1548C94.5553 98.4415 94.6139 98.725 94.7274 98.9882C94.8408 99.2514 95.0067 99.4888 95.2149 99.6857C95.4231 99.8827 95.6693 100.035 95.9384 100.134C96.2075 100.233 96.4938 100.275 96.78 100.26C97.4745 100.224 98.1277 99.9183 98.6009 99.4087C99.0741 98.899 99.3303 98.2251 99.315 97.5298C99.315 94.0298 96.585 90.1198 96.585 86.3798C96.5891 85.1416 96.8549 83.9182 97.365 82.7898C97.365 90.5498 103.955 96.2048 103.955 99.4448C103.959 99.6233 103.926 99.8005 103.858 99.9656C103.79 100.131 103.689 100.28 103.561 100.404C103.433 100.529 103.28 100.625 103.113 100.688C102.946 100.751 102.768 100.779 102.59 100.77C102.421 100.777 102.251 100.749 102.093 100.69C101.934 100.63 101.788 100.54 101.665 100.423C101.541 100.307 101.443 100.167 101.374 100.012C101.305 99.8567 101.268 99.6895 101.265 99.5198C101.265 99.2448 101.225 99.1698 101.11 99.1698C100.875 99.1698 100.175 99.9498 100.175 100.965C100.184 101.349 100.269 101.728 100.425 102.079C100.581 102.431 100.804 102.748 101.083 103.013C101.362 103.278 101.69 103.485 102.049 103.623C102.408 103.76 102.791 103.825 103.175 103.815C103.635 103.812 104.09 103.717 104.513 103.535C104.936 103.354 105.318 103.09 105.638 102.759C105.957 102.428 106.207 102.036 106.374 101.607C106.54 101.178 106.618 100.72 106.605 100.26C106.605 96.1698 98.605 89.9648 98.605 83.3348C98.5727 81.818 98.9163 80.3167 99.605 78.9648C94.455 82.2798 92.86 86.6898 92.86 90.5498C92.86 93.9048 92.74 95.5799 91.025 95.5799C90.13 95.5799 89.895 94.7648 89.58 94.7648C89.35 94.7648 89.23 95.4648 89.23 95.6598C89.2103 95.9507 89.2501 96.2426 89.3472 96.5175C89.4443 96.7924 89.5965 97.0446 89.7946 97.2586C89.9926 97.4726 90.2323 97.6438 90.4989 97.7618C90.7656 97.8798 91.0535 97.9421 91.345 97.9448V97.9448Z" fill="#0067B1"></path><path d="M158.945 58.98C160.66 58.98 161.945 58.195 161.945 57.73C161.945 57.575 161.71 57.455 161.2 57.455C160.047 57.4325 158.899 57.3154 157.765 57.105C156.125 56.835 154.875 56.21 154.41 56.21C154.25 56.21 154.175 56.285 154.175 56.405C154.18 57.42 156.055 58.98 158.945 58.98ZM150.445 54.025C150.945 53.695 153.14 54.22 155.98 52.815C156.285 52.6412 156.629 52.5467 156.98 52.54C158.345 52.54 157.98 54.1 159.245 54.1C160.22 54.1 161.47 53.28 162.215 53.28C163.375 53.28 165.055 56.95 165.055 58.665C165.055 60.665 162.055 61.865 158.505 61.865C153.32 61.865 150.195 57.34 150.195 54.415C150.192 54.333 150.214 54.2519 150.258 54.1824C150.301 54.1129 150.365 54.058 150.44 54.025H150.445Z" fill="#0067B1"></path><path d="M92.1651 112.635C90.8801 112.95 88.8101 114.975 88.8101 118.18C88.8101 122 92.91 127.89 99.655 127.89C105.35 127.89 106.755 123.95 106.755 121.295C106.755 115.405 103.13 111.295 98.41 111.295C95.835 111.295 93.53 113.17 93.53 115.935C93.5325 116.793 93.7059 117.642 94.0402 118.432C94.3744 119.223 94.8628 119.939 95.4767 120.538C96.0907 121.138 96.818 121.609 97.6161 121.924C98.4142 122.24 99.2671 122.393 100.125 122.375C100.578 122.401 101.031 122.332 101.456 122.174C101.881 122.016 102.268 121.772 102.594 121.457C102.92 121.142 103.177 120.762 103.35 120.343C103.522 119.924 103.605 119.473 103.595 119.02C103.595 117.265 101.995 114.85 99.655 114.85C99.4941 114.841 99.333 114.865 99.1823 114.922C99.0316 114.98 98.8946 115.068 98.7804 115.182C98.6662 115.295 98.5773 115.432 98.5195 115.582C98.4617 115.733 98.4363 115.894 98.4451 116.055C98.4451 116.99 99.735 117.93 101.33 117.93C101.624 117.938 101.917 117.885 102.19 117.775C102.272 117.916 102.313 118.077 102.31 118.24C102.31 119.14 101.45 119.685 100.125 119.685C99.6159 119.696 99.1096 119.606 98.6359 119.418C98.1623 119.231 97.7308 118.951 97.367 118.595C97.0032 118.238 96.7143 117.813 96.5173 117.343C96.3203 116.874 96.2193 116.369 96.22 115.86C96.22 114.46 97.4301 113.445 99.1851 113.445C102.66 113.445 104.725 116.525 104.725 119.61C104.725 122.375 103.225 123.975 100.085 123.975C93.8451 123.96 90.8001 118.345 92.1651 112.635Z" fill="#0067B1"></path><path d="M133.665 127.705C133.667 128.013 133.76 128.314 133.933 128.569C134.105 128.824 134.35 129.023 134.635 129.139C134.92 129.256 135.233 129.285 135.535 129.224C135.837 129.163 136.114 129.013 136.331 128.795C136.549 128.576 136.696 128.298 136.756 127.996C136.815 127.693 136.784 127.38 136.665 127.096C136.547 126.811 136.347 126.568 136.091 126.397C135.834 126.226 135.533 126.135 135.225 126.135C135.019 126.136 134.816 126.177 134.626 126.256C134.437 126.335 134.265 126.451 134.12 126.597C133.975 126.743 133.86 126.916 133.782 127.106C133.704 127.296 133.664 127.5 133.665 127.705V127.705ZM136.69 135.5C137.479 135.499 138.267 135.447 139.05 135.345C139.635 135.345 139.675 135.695 139.675 135.93C139.675 136.79 137.76 137.845 134.37 137.845C132.37 137.845 131.17 136.79 130.82 135.62C128.469 137.106 125.76 137.929 122.98 138C114.98 138 112.955 134.5 110.48 133.395C108.565 132.54 105.645 134.215 101.545 129.65C102.163 129.764 102.791 129.818 103.42 129.81C107.005 129.81 108.92 128.055 108.92 125.245C108.913 124.881 108.886 124.517 108.84 124.155C109.928 124.697 110.873 125.488 111.598 126.464C112.323 127.439 112.809 128.572 113.015 129.77C113.095 130.16 114.69 130.51 115.705 130.51C117.11 130.51 118.905 129.925 119.175 127.625C123.86 127.235 127.02 124.47 127.675 120.955C129.35 121.5 131.26 123.025 131.73 123.805C132.485 123.557 133.276 123.439 134.07 123.455C135.542 123.486 137.001 123.736 138.4 124.195C138.48 123.695 138.555 123.06 139.335 123.06C140.505 123.06 140.195 124.35 140.585 125.09C140.78 125.48 141.76 125.715 141.76 126.495C141.76 126.76 141.655 127.015 141.467 127.202C141.279 127.39 141.025 127.495 140.76 127.495C140.6 127.491 140.442 127.464 140.29 127.415C139.515 127.69 139.475 133.305 136.195 133.305C133.78 133.305 131.555 131.305 130.58 128.805C130.491 128.487 130.311 128.203 130.061 127.987C129.811 127.772 129.502 127.635 129.175 127.595C128.555 127.595 128.2 127.715 127.46 128.535C126.185 129.894 124.645 130.976 122.934 131.713C121.223 132.45 119.378 132.827 117.515 132.82C116.19 132.82 115.135 132.705 114.865 132.705C114.705 132.705 114.705 132.74 114.705 132.78C114.705 133.055 116.03 134.11 118.92 134.11C125.785 134.11 127.46 130.245 128.555 130.245C128.752 130.238 128.946 130.295 129.107 130.407C129.269 130.52 129.389 130.683 129.45 130.87C131.015 134.635 134.505 135.5 136.69 135.5V135.5Z" fill="#0067B1"></path><path d="M160.35 110.635C159.53 110.635 155 116.685 152.08 116.685C151.375 116.685 150.79 115.355 150.79 114.345C150.79 113.8 151.14 113.41 152.395 113.135C159.1 111.635 157.615 106.58 163.345 106.58C166.505 106.58 170.02 108.725 170.02 113.58C170.02 118.73 162.69 125.125 161.595 125.125C160.7 125.125 159.725 123.84 159.725 122.98C159.725 122.705 159.84 122.355 160.62 122.045C164.36 120.545 166.505 117.13 166.505 115.37C166.517 115.271 166.508 115.171 166.478 115.076C166.448 114.981 166.398 114.894 166.331 114.82C166.264 114.747 166.182 114.689 166.09 114.65C165.998 114.611 165.9 114.592 165.8 114.595C165.14 114.595 162.3 121.065 159.14 121.065C156.95 121.065 154.725 119.065 154.725 118.145C154.725 116.58 161.05 113.695 161.05 111.51C161.05 110.695 160.66 110.635 160.35 110.635ZM164.555 108.22C164.01 108.22 163.425 108.65 163.425 109.72C163.44 110.171 163.579 110.61 163.827 110.987C164.075 111.365 164.422 111.667 164.83 111.86C165.173 112.058 165.559 112.166 165.955 112.175C167.09 112.175 167.99 111.86 167.99 110.925C167.99 109.725 166.225 108.24 164.555 108.24V108.22Z" fill="#0067B1"></path><path d="M91.7252 63.0751C91.7252 63.3837 91.8167 63.6853 91.9881 63.9418C92.1595 64.1984 92.4032 64.3983 92.6882 64.5164C92.9733 64.6345 93.2869 64.6654 93.5896 64.6052C93.8922 64.545 94.1701 64.3964 94.3883 64.1782C94.6065 63.9601 94.7551 63.6821 94.8152 63.3795C94.8754 63.0769 94.8445 62.7632 94.7265 62.4782C94.6084 62.1931 94.4085 61.9495 94.1519 61.778C93.8954 61.6066 93.5938 61.5151 93.2852 61.5151C92.8719 61.5165 92.4759 61.6812 92.1836 61.9735C91.8913 62.2658 91.7265 62.6618 91.7252 63.0751V63.0751ZM89.6952 59.5751C89.6962 59.8835 89.7885 60.1846 89.9606 60.4405C90.1326 60.6963 90.3766 60.8955 90.6617 61.0128C90.9468 61.1301 91.2603 61.1603 91.5626 61.0996C91.8649 61.0388 92.1424 60.8898 92.3601 60.6715C92.5777 60.4531 92.7258 60.1751 92.7856 59.8726C92.8454 59.5702 92.8142 59.2568 92.696 58.972C92.5778 58.6872 92.3778 58.4439 92.1214 58.2727C91.865 58.1015 91.5635 58.0101 91.2552 58.0101C91.0489 58.0075 90.844 58.0457 90.6525 58.1225C90.4609 58.1994 90.2865 58.3133 90.1392 58.4579C89.9919 58.6024 89.8746 58.7746 89.7941 58.9647C89.7136 59.1547 89.6715 59.3588 89.6702 59.5651L89.6952 59.5751ZM88.2902 70.2601C87.3952 70.4951 85.5202 71.5851 85.5202 73.5351C85.5187 73.8513 85.5826 74.1644 85.7078 74.4548C85.833 74.7452 86.0168 75.0065 86.2478 75.2225C86.4788 75.4384 86.7519 75.6043 87.05 75.7098C87.3482 75.8152 87.6648 75.8579 87.9802 75.8351C88.5087 75.8649 89.0332 75.7285 89.4802 75.4451C89.0055 75.0176 88.6265 74.4946 88.368 73.9104C88.1095 73.3262 87.9774 72.694 87.9802 72.0551C87.9699 71.4415 88.0663 70.8307 88.2652 70.2501L88.2902 70.2601ZM78.7252 70.7951C78.6961 70.9887 78.6844 71.1845 78.6902 71.3801C78.6902 73.2151 79.6602 74.2301 80.9502 74.2301C81.9202 74.2301 83.0552 73.6451 84.0652 72.3551C83.6026 72.4323 83.1343 72.4708 82.6652 72.4701C81.2252 72.4701 79.6452 72.0851 78.7252 70.7951ZM77.3602 74.2651C77.3602 77.2301 78.2602 78.6351 79.8602 78.6351C81.1102 78.6351 82.7852 77.7401 84.7752 76.0201C83.5525 76.3538 82.2964 76.55 81.0302 76.6051C79.6052 76.6051 78.5152 76.0601 77.3452 74.2651H77.3602ZM87.4602 58.6651C87.6915 57.9339 87.8112 57.172 87.8152 56.4051C87.8152 54.5301 86.9552 51.6851 84.3152 51.6851C83.9683 51.6824 83.6244 51.7493 83.3038 51.882C82.9833 52.0147 82.6927 52.2105 82.4492 52.4576C82.2058 52.7048 82.0145 52.9984 81.8867 53.3209C81.7589 53.6434 81.6972 53.9883 81.7052 54.3351C81.6752 57.4201 84.7552 58.6651 87.4452 58.6651H87.4602ZM84.1452 68.4951C82.8602 68.4951 81.4552 66.8951 81.4552 65.4551C81.4552 64.6751 82.0402 63.6951 82.4552 63.6951C82.6102 63.6951 82.6902 63.8151 82.7252 64.0901C82.8188 64.8617 83.1132 65.5952 83.5791 66.2173C84.045 66.8394 84.6661 67.3283 85.3802 67.6351C85.4952 67.7151 85.5752 67.7551 85.5752 67.8301C85.5752 68.1051 84.8352 68.4951 84.1302 68.4951H84.1452ZM87.7252 63.7351C87.9952 64.1051 88.7252 64.5551 88.7252 64.8301C88.7252 65.3751 88.4102 66.0751 87.7902 66.0751C86.4202 66.0751 85.3302 64.0101 85.3302 62.8401C85.3302 62.1001 85.7602 62.0201 86.3302 62.0201C86.5376 62.0066 86.7436 62.0629 86.9152 62.1801C87.2902 62.3701 87.2902 63.1351 87.7252 63.7351ZM78.5602 68.5751C78.4825 68.7049 78.4426 68.8539 78.4452 69.0051C78.4649 69.1947 78.5491 69.3717 78.6839 69.5065C78.8187 69.6412 78.9957 69.7255 79.1852 69.7451C79.4952 69.7451 79.6852 69.6651 79.8452 69.6651C80.7802 69.6651 81.8452 70.3301 83.3452 70.3301C84.4944 70.2754 85.6153 69.9553 86.6202 69.3951C89.4302 67.9901 90.5252 64.5201 90.5252 63.9301C90.5252 63.1901 89.9302 63.2851 89.4302 62.6051C88.9302 61.9251 89.1252 61.3251 88.8052 61.0051C88.6252 60.8251 88.0652 60.8101 87.3652 60.7301C87.1302 60.7051 86.8152 60.6951 86.5052 60.6951C84.905 60.643 83.3268 61.079 81.9802 61.9451C78.6002 64.1001 79.1002 67.6751 78.5552 68.5751H78.5602ZM91.5102 67.0151C90.4359 68.2755 89.8161 69.8603 89.7502 71.5151C89.7502 73.6201 91.0402 75.3751 93.0302 75.3751C94.9402 75.3751 95.8402 73.7351 95.8402 72.0601C95.8352 69.4301 93.4552 67.5951 91.5052 67.0151H91.5102ZM83.1602 59.5151C82.4163 60.0405 81.5354 60.3376 80.6252 60.3701C80.2286 60.3797 79.8342 60.3087 79.4659 60.1613C79.0976 60.014 78.7631 59.7933 78.4825 59.5128C78.202 59.2323 77.9814 58.8978 77.834 58.5294C77.6867 58.1611 77.6156 57.7667 77.6252 57.3701C77.6185 56.7084 77.8121 56.06 78.1807 55.5103C78.5492 54.9606 79.0755 54.5353 79.6902 54.2901C79.6568 54.5085 79.6434 54.7294 79.6502 54.9501C79.6452 57.1851 80.8952 58.8601 83.1552 59.5251L83.1602 59.5151Z" fill="#0067B1"></path><path d="M151.925 72.47C151.925 72.7936 152.021 73.1099 152.201 73.3789C152.381 73.6479 152.636 73.8574 152.935 73.981C153.234 74.1046 153.563 74.1367 153.881 74.0732C154.198 74.0097 154.489 73.8535 154.718 73.6244C154.946 73.3952 155.101 73.1034 155.164 72.7859C155.227 72.4684 155.193 72.1395 155.069 71.8409C154.944 71.5422 154.734 71.2872 154.465 71.1081C154.195 70.9291 153.878 70.834 153.555 70.835C153.123 70.8389 152.71 71.0126 152.405 71.3185C152.1 71.6245 151.927 72.0381 151.925 72.47V72.47ZM152.04 77.385C152.039 77.7484 152.146 78.1038 152.347 78.4064C152.548 78.7089 152.835 78.9449 153.17 79.0844C153.506 79.2239 153.875 79.2606 154.232 79.19C154.588 79.1194 154.915 78.9445 155.172 78.6876C155.429 78.4306 155.604 78.1032 155.675 77.7468C155.745 77.3904 155.709 77.021 155.569 76.6855C155.43 76.35 155.194 76.0634 154.891 75.8622C154.589 75.6609 154.233 75.554 153.87 75.555C153.384 75.555 152.919 75.7478 152.576 76.091C152.233 76.4342 152.04 76.8997 152.04 77.385V77.385ZM146.42 80.7C146.419 81.2333 146.576 81.7548 146.872 82.1986C147.167 82.6425 147.588 82.9887 148.08 83.1934C148.572 83.3982 149.114 83.4523 149.637 83.3488C150.161 83.2454 150.641 82.9891 151.019 82.6124C151.396 82.2357 151.653 81.7555 151.758 81.2326C151.862 80.7097 151.809 80.1676 151.605 79.6748C151.401 79.1821 151.056 78.7609 150.613 78.4646C150.169 78.1682 149.648 78.01 149.115 78.01C148.401 78.0113 147.717 78.295 147.212 78.799C146.707 79.3031 146.422 79.9865 146.42 80.7V80.7ZM147.865 75.2C147.866 75.5083 147.958 75.8095 148.13 76.0653C148.302 76.3212 148.546 76.5204 148.831 76.6377C149.116 76.755 149.43 76.7852 149.732 76.7244C150.034 76.6637 150.312 76.5147 150.53 76.2963C150.747 76.078 150.895 75.8 150.955 75.4975C151.015 75.195 150.984 74.8816 150.866 74.5969C150.747 74.3121 150.547 74.0688 150.291 73.8976C150.035 73.7264 149.733 73.635 149.425 73.635C149.219 73.6357 149.016 73.6768 148.826 73.7561C148.637 73.8353 148.464 73.9511 148.32 74.0969C148.175 74.2427 148.06 74.4156 147.982 74.6057C147.904 74.7959 147.864 74.9995 147.865 75.205V75.2ZM142.755 78.32C142.755 78.6288 142.846 78.9306 143.018 79.1872C143.19 79.4439 143.434 79.6438 143.719 79.7617C144.004 79.8797 144.318 79.9103 144.621 79.8497C144.924 79.7891 145.202 79.64 145.42 79.4213C145.638 79.2027 145.786 78.9242 145.845 78.6213C145.905 78.3183 145.873 78.0045 145.755 77.7196C145.636 77.4346 145.435 77.1913 145.178 77.0205C144.921 76.8497 144.619 76.759 144.31 76.76C143.896 76.7627 143.501 76.9287 143.21 77.2219C142.918 77.5151 142.755 77.9117 142.755 78.325V78.32ZM146.755 69.195C146.755 69.6895 146.901 70.1728 147.176 70.5839C147.451 70.9951 147.841 71.3155 148.298 71.5047C148.755 71.6939 149.258 71.7434 149.743 71.647C150.227 71.5505 150.673 71.3124 151.023 70.9628C151.372 70.6132 151.61 70.1677 151.707 69.6827C151.803 69.1978 151.754 68.6951 151.565 68.2383C151.375 67.7815 151.055 67.391 150.644 67.1163C150.233 66.8416 149.749 66.695 149.255 66.695C148.593 66.699 147.961 66.9648 147.495 67.4343C147.029 67.9038 146.768 68.5387 146.77 69.2L146.755 69.195ZM149.685 64.395C149.685 64.6917 149.773 64.9817 149.938 65.2284C150.102 65.475 150.337 65.6673 150.611 65.7808C150.885 65.8944 151.186 65.9241 151.477 65.8662C151.768 65.8083 152.036 65.6655 152.245 65.4557C152.455 65.2459 152.598 64.9786 152.656 64.6877C152.714 64.3967 152.684 64.0951 152.571 63.821C152.457 63.5469 152.265 63.3126 152.018 63.1478C151.771 62.983 151.481 62.895 151.185 62.895C150.793 62.9055 150.421 63.0688 150.148 63.35C149.875 63.6313 149.723 64.0082 149.725 64.4L149.685 64.395ZM142.64 68.135C142.64 68.4327 142.728 68.7237 142.894 68.9709C143.06 69.2181 143.296 69.4103 143.572 69.5231C143.847 69.6358 144.15 69.664 144.442 69.6041C144.733 69.5442 145.001 69.3988 145.209 69.1865C145.418 68.9742 145.559 68.7046 145.614 68.412C145.669 68.1194 145.636 67.8171 145.518 67.5435C145.401 67.2698 145.205 67.0373 144.955 66.8756C144.705 66.7138 144.412 66.6301 144.115 66.635C143.721 66.6416 143.346 66.8025 143.07 67.0831C142.794 67.3637 142.64 67.7415 142.64 68.135V68.135ZM142.445 73.205C142.445 73.6759 142.584 74.1363 142.846 74.5278C143.108 74.9193 143.48 75.2243 143.915 75.4043C144.35 75.5843 144.829 75.6312 145.291 75.5389C145.753 75.4467 146.177 75.2195 146.509 74.8862C146.842 74.5528 147.068 74.1283 147.16 73.6663C147.251 73.2043 147.203 72.7256 147.022 72.2908C146.841 71.856 146.535 71.4846 146.143 71.2237C145.751 70.9628 145.291 70.824 144.82 70.825C144.506 70.8237 144.196 70.8847 143.906 71.0045C143.616 71.1243 143.353 71.3006 143.132 71.523C142.911 71.7454 142.737 72.0095 142.619 72.3C142.501 72.5904 142.441 72.9015 142.445 73.215V73.205ZM137.53 75.705C137.53 76.1453 137.66 76.5757 137.905 76.9417C138.15 77.3077 138.498 77.5929 138.904 77.7611C139.311 77.9294 139.759 77.9732 140.191 77.8869C140.622 77.8006 141.019 77.5882 141.33 77.2766C141.641 76.9649 141.852 76.568 141.938 76.136C142.023 75.7041 141.978 75.2566 141.809 74.8501C141.64 74.4436 141.354 74.0964 140.987 73.8526C140.621 73.6087 140.19 73.479 139.75 73.48C139.161 73.4853 138.598 73.7222 138.182 74.1396C137.767 74.5569 137.532 75.1211 137.53 75.71V75.705ZM138.855 70.205C138.855 70.5136 138.946 70.8152 139.118 71.0717C139.289 71.3282 139.533 71.5282 139.818 71.6463C140.103 71.7643 140.417 71.7952 140.719 71.735C141.022 71.6748 141.3 71.5263 141.518 71.3081C141.736 71.0899 141.885 70.812 141.945 70.5094C142.005 70.2068 141.974 69.8931 141.856 69.608C141.738 69.323 141.538 69.0793 141.281 68.9079C141.025 68.7365 140.723 68.645 140.415 68.645C140.21 68.645 140.006 68.6855 139.817 68.7642C139.627 68.843 139.455 68.9583 139.31 69.1037C139.165 69.2491 139.05 69.4217 138.972 69.6115C138.894 69.8013 138.854 70.0047 138.855 70.21V70.205ZM152.55 82.205C152.55 81.8072 152.708 81.4257 152.989 81.1444C153.27 80.8631 153.652 80.705 154.05 80.705C154.448 80.705 154.829 80.8631 155.11 81.1444C155.392 81.4257 155.55 81.8072 155.55 82.205C155.55 82.6028 155.392 82.9844 155.11 83.2657C154.829 83.547 154.448 83.705 154.05 83.705C153.652 83.705 153.27 83.547 152.989 83.2657C152.708 82.9844 152.55 82.6028 152.55 82.205V82.205Z" fill="#0067B1"></path><path d="M153.555 127.08C153.75 127.08 153.985 127.195 153.985 127.9C153.985 128.76 153.595 129.9 152.2 130.785C150.936 131.617 149.452 132.051 147.94 132.03C148.273 131.119 148.459 130.16 148.49 129.19C148.482 128.889 148.455 128.588 148.41 128.29H148.91C150.54 128.324 152.148 127.905 153.555 127.08V127.08ZM153.87 123.22C154.012 123.07 154.12 122.891 154.187 122.695C154.253 122.499 154.276 122.291 154.255 122.085V121.19C154.255 120.055 152.55 119.395 150.205 119.395C147.355 119.395 145.835 120.68 145.835 121.23V123.025C145.835 123.765 147.55 124.525 149.66 124.525C151.172 124.594 152.661 124.132 153.87 123.22V123.22ZM155.87 123.65C153.793 125.317 151.202 126.211 148.54 126.18C146.435 126.18 145.495 125.52 145.185 125.52C144.795 125.52 144.365 125.91 143.935 126.415C143.005 127.51 141.795 129.54 141.795 131.76C141.795 133.32 143.005 134.875 145.26 134.875C152.56 134.875 158.02 130.315 158.02 126.61C158.045 124.505 156.795 123.635 155.895 123.635L155.87 123.65Z" fill="#0067B1"></path><path d="M157.265 90.845C157.265 91.82 157.575 92.95 158.55 92.95C159.37 92.95 160.075 91.705 160.075 90.34C160.075 88.775 159.8 87.57 159.8 86.945C159.8 86.67 159.92 86.555 160.075 86.555C160.66 86.595 161.205 88.19 161.83 88.19C162.535 88.19 163.58 86.905 164.01 86.905C164.125 86.905 164.165 87.06 164.165 87.1C164.165 87.685 163.265 88.975 163.265 89.48C163.265 89.905 165.53 89.98 165.53 90.375C165.53 90.96 163.16 90.96 162.03 91.47C160.9 91.98 160.275 92.52 160.275 93.3C160.275 94.08 161.055 94.235 162.15 94.235C164.755 94.235 166.59 92.835 167.175 92.835C167.201 92.8336 167.227 92.8377 167.251 92.8469C167.276 92.8562 167.298 92.8705 167.316 92.8889C167.335 92.9074 167.349 92.9294 167.358 92.9537C167.367 92.978 167.371 93.0041 167.37 93.03C167.37 93.42 166.04 94.705 166.04 95.29C166.04 95.955 168.46 96.73 168.425 97.125C168.385 97.24 168.225 97.28 167.955 97.28C167.525 97.28 166.86 97.16 166.355 97.16C166.23 97.1417 166.103 97.1496 165.982 97.1831C165.861 97.2167 165.747 97.2753 165.65 97.355C165.38 97.67 165.73 99.735 165.185 99.735C164.64 99.735 163.35 95.135 160.355 95.135C159.925 95.135 159.61 95.485 159.61 96.07C159.61 97.63 161.135 99.425 162.58 100.28C163.235 100.71 164.325 101.14 164.325 101.375C164.325 101.84 161.825 101.415 161.825 102.195C161.825 102.895 162.14 103.95 162.14 104.575C162.14 104.77 162.1 105 161.865 105C161.4 105 160.265 102.86 159.72 102.86C159.175 102.86 158.22 104.145 157.805 104.145C157.748 104.139 157.696 104.111 157.66 104.067C157.624 104.023 157.606 103.967 157.61 103.91C157.61 103.015 159.055 100.985 159.055 98.995C159.055 98.06 158.94 96.03 157.805 96.03C156.87 96.03 155.805 97.53 155.345 98.995C155.075 99.855 155.27 103.17 154.645 103.17C154.02 103.17 154.215 100.945 153.43 100.945C152.855 100.945 151.605 102 151.175 102C151.1 102 151.02 101.96 151.02 101.88C151.02 101.415 152.155 99.88 152.155 99.58C152.155 98.995 149.575 98.92 149.575 98.45C149.575 98.175 150.575 97.98 151.53 97.825C153.53 97.475 156.44 96.03 156.44 94.005C156.44 91.745 154.25 90.765 152.815 89.83C152.075 89.36 151.255 88.975 151.255 88.66C151.255 88.345 152.195 88.35 152.58 88.35C153.165 88.35 153.745 88.31 153.745 87.85C153.745 87.5 153.665 86.8 153.665 86.25C153.665 85.86 153.705 85.55 153.865 85.55C154.45 85.55 155.27 87.46 155.66 87.46C156.28 87.46 157.16 85.9 157.73 85.9C157.92 85.9 158 86.02 158 86.37C158.005 87.8 157.265 89.44 157.265 90.845ZM138.66 79.415C139.09 82.73 143.54 81.055 143.54 85.07C143.54 85.655 143.38 86.515 143.38 87.255C143.38 88.115 143.46 88.855 144.115 88.855C144.77 88.855 144.935 88.39 144.935 87.76C144.935 87.13 144.78 86.36 144.78 85.93C144.754 85.7137 144.776 85.4944 144.844 85.2874C144.911 85.0803 145.023 84.8905 145.172 84.7311C145.32 84.5717 145.502 84.4465 145.703 84.3643C145.905 84.2821 146.122 84.2448 146.34 84.255C147.84 84.255 148.955 85.755 151.18 85.755C150.68 88.255 145.52 87.585 145.52 90.32C145.52 91.685 146.885 91.995 147.785 91.995C148.605 91.995 148.88 91.875 148.88 91.175C148.88 90.785 148.8 90.355 148.8 90.085C148.799 90.0435 148.807 90.0022 148.823 89.9637C148.838 89.9252 148.861 89.8902 148.891 89.8608C148.92 89.8314 148.955 89.8082 148.994 89.7926C149.032 89.7771 149.073 89.7694 149.115 89.77C149.975 89.77 154.18 92.97 154.18 93.945C154.18 94.84 149.74 95.74 148.45 95.74C148.39 95.7473 148.329 95.7414 148.271 95.723C148.214 95.7045 148.161 95.6738 148.116 95.6329C148.072 95.5921 148.036 95.5421 148.013 95.4864C147.989 95.4306 147.978 95.3705 147.98 95.31C147.98 95.035 148.645 94.215 148.645 93.75C148.645 93.4 148.06 93.165 146.495 93.165C145.755 93.165 145.21 93.245 145.21 93.83C145.21 94.88 146.925 96.17 146.925 97.14C146.925 97.925 146.46 98.39 145.21 98.39C144.155 98.39 142.56 97.57 142.56 96.205C142.56 95.115 143.685 94.025 143.685 93.36C143.685 93.165 143.54 92.86 143.07 92.86C141.625 92.86 141.235 96.68 136.125 97.11C136.613 96.7281 137.004 96.2356 137.265 95.6732C137.525 95.1108 137.649 94.4945 137.625 93.875C137.625 93.055 137.43 92.375 137.43 91.495C137.43 90.325 137.975 89.735 138.755 89.735C140.2 89.735 140.9 91.765 141.84 91.765C142.134 91.747 142.409 91.6143 142.606 91.3955C142.804 91.1768 142.907 90.8894 142.895 90.595C142.895 87.63 137.195 88.06 137.195 83.885C137.225 82.77 137.605 81.365 138.66 79.415Z" fill="#0067B1"></path><path d="M146.07 104.77C146.061 104.898 146.079 105.027 146.122 105.148C146.165 105.269 146.232 105.38 146.32 105.473C146.407 105.567 146.514 105.642 146.631 105.693C146.749 105.744 146.876 105.77 147.005 105.77C147.148 105.76 147.288 105.722 147.416 105.658C147.544 105.594 147.658 105.505 147.752 105.396C147.845 105.287 147.915 105.16 147.959 105.023C148.002 104.887 148.018 104.743 148.005 104.6C148.005 103.78 147.265 102.65 146.56 102.65C146.245 102.65 146.365 103.115 146.285 103.625C146.26 103.985 146.07 104.455 146.07 104.77ZM144.04 99.5798C148.135 100.36 150.36 103.445 150.36 106.33C150.36 108.33 149.115 110.15 146.925 110.15C144.925 110.15 143.5 108.785 143.5 106.6C143.5 104.965 144.78 103.245 144.78 101.57C144.784 100.838 144.521 100.131 144.04 99.5798V99.5798ZM138.855 106.215C139.016 106.363 139.143 106.543 139.229 106.744C139.316 106.945 139.358 107.161 139.355 107.38C139.355 107.965 139.085 108.59 139.085 109.255C139.08 109.483 139.12 109.711 139.204 109.923C139.288 110.136 139.413 110.33 139.573 110.493C139.733 110.657 139.924 110.787 140.134 110.876C140.345 110.964 140.571 111.01 140.8 111.01C141.045 111.013 141.287 110.966 141.514 110.872C141.74 110.779 141.945 110.641 142.116 110.466C142.288 110.291 142.422 110.084 142.511 109.856C142.6 109.628 142.642 109.384 142.635 109.14C142.64 107.635 141.115 106.215 138.855 106.215V106.215ZM151.765 103.715C152.014 104.085 152.151 104.519 152.16 104.965C152.16 106.055 151.415 107.07 151.415 108.2C151.413 108.517 151.476 108.832 151.6 109.124C151.725 109.417 151.907 109.681 152.137 109.9C152.367 110.119 152.64 110.289 152.938 110.399C153.235 110.509 153.553 110.557 153.87 110.54C154.233 110.539 154.593 110.466 154.927 110.323C155.261 110.18 155.563 109.971 155.814 109.708C156.065 109.446 156.261 109.135 156.389 108.795C156.517 108.455 156.575 108.093 156.56 107.73C156.56 105.665 154.69 103.91 151.765 103.715V103.715ZM139.79 101.635C141.585 101.87 142.015 102.495 142.015 103.005C142.015 103.86 141.235 104.135 140.49 104.135C139.945 104.135 139.32 104.015 138.66 104.015C138.207 103.985 137.753 104.059 137.333 104.233C136.914 104.406 136.54 104.674 136.24 105.015C136.74 105.095 137.49 105.445 137.49 106.225C137.49 108.49 131.21 106.615 131.21 112.43C131.21 115.51 134.41 118.865 139.245 118.865C141.745 118.865 143.345 118.045 143.345 117.11C143.345 116.365 142.015 116.875 142.015 116.25C142.015 115.975 142.485 115.465 142.485 115.04C142.485 114.85 142.33 114.495 142.015 114.495C141.315 114.495 139.985 115.625 137.295 115.625C135.185 115.625 133.12 114.42 133.12 112.78C133.12 112.43 133.275 112.23 133.51 112.23C133.745 112.23 134.055 112.39 134.33 112.39C134.605 112.39 134.6 112.23 134.6 111.805C134.6 111.38 134.6 110.165 135.34 110.165C136.08 110.165 137.49 112.895 142.875 112.895C144.665 112.895 148.135 112.545 149.425 111.395C149.4 112.734 149.111 114.054 148.573 115.28C148.035 116.507 147.259 117.614 146.291 118.539C145.322 119.463 144.18 120.187 142.931 120.668C141.681 121.149 140.348 121.377 139.01 121.34C131.715 121.34 127.815 115.485 127.815 110.105C127.845 107.067 129.076 104.165 131.24 102.031C133.403 99.8983 136.322 98.7078 139.36 98.7198C141.075 98.7198 142.525 99.2998 142.525 100.045C142.525 101.065 139.985 100.44 139.79 101.635Z" fill="#0067B1"></path><path d="M114.555 57.1049C117.13 57.1049 118.3 59.33 118.3 61.825C118.3 62.915 117.99 64.52 117.48 64.52C116.97 64.52 117.05 63.6199 116.98 62.7999C116.9 61.7449 116.705 61.5149 116.355 61.5149C115.69 61.5149 115.26 63.0749 115.26 64.5149C115.26 65.4099 115.42 66.4249 116.12 66.4249C116.497 66.4185 116.856 66.2641 117.12 65.9949C116.965 67.7849 115.62 69.3499 113.765 69.3499C110.335 69.3499 109.045 65.35 108.655 62.99C106.59 65.175 104.68 66.7749 101.245 66.7749C98.05 66.7749 96.605 64.4349 96.605 62.2099C96.605 61.5449 96.84 59.8299 97.66 59.8299C98.63 59.8299 97.775 63.0299 99.685 63.0299C100.155 63.0299 101.01 62.6399 101.48 61.3549C101.746 60.6146 101.891 59.8364 101.91 59.0499C101.91 57.9949 101.675 57.3349 100.91 57.3349C100.256 57.3981 99.6401 57.6718 99.155 58.115C99.5098 56.8818 100.259 55.7988 101.287 55.0313C102.315 54.2639 103.567 53.8542 104.85 53.865C107.93 53.865 109.57 56.5949 109.57 59.6349C109.57 60.0793 109.53 60.5228 109.45 60.9599C110.725 58.7799 112.565 57.1049 114.555 57.1049ZM111.555 61.7099C111.555 61.0449 111.4 60.8899 111.245 60.8899C110.855 60.8899 110.425 61.3599 109.8 62.3899C109.88 63.7949 110.115 64.42 110.505 64.42C110.895 64.42 111.55 63.0749 111.55 61.7099H111.555ZM106.225 63.3049C106.655 63.3049 107.225 62.8399 108.225 61.7099C108.293 61.1913 108.32 60.6679 108.305 60.145C108.305 59.37 107.995 58.5099 107.525 58.5099C106.355 58.5099 105.77 61.63 105.77 62.45C105.725 62.915 105.975 63.3049 106.225 63.3049ZM112.585 66.7799C113.56 66.7799 114.65 63.0349 114.65 60.6949C114.65 60.1949 114.575 59.6399 114.34 59.6399C113.52 59.6399 112.155 63.4999 112.155 65.6099C112.135 66.4299 112.33 66.7799 112.565 66.7799H112.585ZM103.01 64.6349C104.335 64.6349 105.855 57.4549 105.855 56.2449C105.855 55.9349 105.74 55.7 105.465 55.7C104.26 55.7 102.58 62.5249 102.58 64.0499C102.58 64.3199 102.66 64.6349 103.01 64.6349Z" fill="#0067B1"></path><path d="M107.26 67.5952C105.585 67.5952 105.505 69.6302 105.505 73.7202C104.26 71.0302 102.19 68.1452 99.7752 68.1452C98.1352 68.1452 97.5102 69.2352 97.5102 71.1452C97.5084 71.5897 97.5485 72.0333 97.6302 72.4702C97.8252 71.8102 98.4452 71.5352 99.2252 71.5352C100.905 71.5352 102.93 72.8252 104.26 74.5802C102.859 74.2806 101.436 74.0983 100.005 74.0352C99.2996 74.0004 98.5949 74.1199 97.9402 74.3852C96.8102 74.8852 95.2852 76.5702 95.2852 79.1052C95.289 79.5362 95.3292 79.966 95.4052 80.3902C96.7702 77.3452 100.405 75.9852 102.735 75.9852C103.102 75.9832 103.468 76.0082 103.83 76.0602C102.62 77.1502 102.33 79.0602 102.27 80.3502C102.23 80.9752 101.995 81.0152 101.565 81.0152C101.565 82.3002 102.565 84.2152 102.565 85.1902C102.572 85.3371 102.539 85.4832 102.471 85.6133C102.402 85.7434 102.3 85.8528 102.175 85.9302C102.175 87.6452 103.89 88.8952 103.89 89.9852C103.921 90.2151 103.862 90.4481 103.725 90.6352C103.845 91.3402 105.725 92.5202 105.975 93.1102C106.275 93.8302 106.61 93.9502 106.805 93.9502C107.47 93.9502 108.525 93.1702 108.525 92.4502C108.511 92.3281 108.472 92.2101 108.412 92.1029C108.352 91.9956 108.272 91.9013 108.175 91.8252C107.43 91.2802 107.04 90.1102 106.73 89.3252C106.557 89.3349 106.386 89.2822 106.249 89.1767C106.111 89.0712 106.016 88.9199 105.98 88.7502C105.765 87.9402 105.755 86.4352 105.445 85.5402C104.945 85.4252 104.7 85.2252 104.7 84.1752C104.7 83.6752 105.015 81.6752 105.015 80.9752C104.937 80.9752 104.859 80.9584 104.787 80.9259C104.716 80.8934 104.652 80.8459 104.6 80.7867C104.549 80.7275 104.51 80.6579 104.488 80.5826C104.466 80.5073 104.459 80.4281 104.47 80.3502C104.47 79.1052 105.715 78.1302 106.065 76.5302C108.29 78.1652 108.835 79.8452 108.835 81.3302C108.827 82.0782 108.735 82.8229 108.56 83.5502C110.2 82.7302 112.66 81.5202 112.66 79.0502C112.66 77.6052 111.995 76.0052 107.59 75.3802C109.037 74.874 110.558 74.6121 112.09 74.6052C114.59 74.6052 116.03 75.3802 116.345 77.1352C116.87 76.4011 117.18 75.5355 117.24 74.6352C117.24 72.7252 115.64 71.4802 113.615 71.4802C111.235 71.4802 109.115 72.7252 106.865 74.2452C107.865 72.1402 108.58 70.8952 109.83 70.8952C110.027 70.9029 110.223 70.928 110.415 70.9702C109.95 69.2752 108.195 67.5952 107.26 67.5952Z" fill="#0067B1"></path><path d="M172.98 95.7202C174.93 95.7202 176.48 98.2552 176.48 101.22C176.444 102.91 176.06 104.574 175.351 106.108C174.642 107.642 173.624 109.013 172.36 110.135C172.325 104.87 165.86 106.545 165.86 102.725C165.84 102.375 165.892 102.024 166.013 101.694C166.133 101.364 166.32 101.062 166.56 100.806C166.801 100.551 167.092 100.347 167.414 100.208C167.737 100.068 168.084 99.996 168.435 99.9952C168.969 99.9636 169.505 100.041 170.008 100.222C170.512 100.404 170.973 100.685 171.365 101.05C171.029 100.726 170.763 100.338 170.581 99.9083C170.4 99.4786 170.308 99.0166 170.31 98.5502C170.33 97.0852 171.27 95.7202 172.98 95.7202Z" fill="#0067B1"></path><path d="M144.04 55.8199C143.725 55.3199 142.54 55.0399 142.015 55.0399C141.313 55.0189 140.623 55.2341 140.058 55.6511C139.492 56.068 139.083 56.6627 138.895 57.3399C138.72 56.9198 138.627 56.4701 138.62 56.0149C138.62 54.2999 139.79 52.1899 142.62 52.1899C145.12 52.1899 146.085 53.5149 146.44 53.5149C146.795 53.5149 147.22 53.1249 147.53 53.1249C147.96 53.1249 147.96 53.7899 147.96 54.2599C147.96 55.8199 147.26 58.5099 145.5 59.4849C145.094 58.6628 144.413 58.0084 143.575 57.6349C143.459 57.5878 143.36 57.5068 143.29 57.4025C143.22 57.2982 143.184 57.1753 143.185 57.0499C143.213 56.7898 143.306 56.5409 143.456 56.326C143.605 56.1111 143.806 55.9371 144.04 55.8199V55.8199ZM138.15 58.6649C139.15 59.6399 140.06 60.0699 141.15 60.0699C141.58 60.0699 142.09 59.9549 142.365 59.9549C142.64 59.9549 142.95 60.1099 142.95 60.3799C142.853 60.9672 142.548 61.4999 142.09 61.8799C142.567 62.0696 143.077 62.163 143.59 62.1549C145.81 62.1549 148.345 60.7449 148.345 57.2399C148.802 57.9965 149.058 58.8569 149.09 59.7399C149.09 63.9899 145.965 65.6249 143.09 65.6249C142.044 65.6078 141.01 65.3976 140.04 65.0049C139.3 65.0049 139.34 66.5049 138.835 66.4449C137.935 66.2899 137.12 64.2999 137.12 62.1949C137.099 60.9412 137.458 59.7105 138.15 58.6649V58.6649Z" fill="#0067B1"></path><path d="M104.765 33.8599C104.765 33.6249 103.595 33.3899 101.995 33.3899C99.4602 33.3899 99.8102 35.4999 97.8602 35.4999C95.9102 35.4999 96.3602 33.3099 93.7652 33.3099C92.2052 33.3099 90.7652 33.5849 90.7652 33.9349C90.7652 34.4049 92.5952 34.2099 92.5952 35.4999C92.5952 36.8649 88.6552 37.2549 88.6552 38.0749C88.6552 38.3449 88.9652 38.4599 89.3602 38.4599C90.2152 38.4599 91.5802 38.0749 92.5552 38.0749C93.1052 38.0749 93.6102 38.1899 93.6102 38.6949C93.6102 39.6699 91.5052 41.4249 91.5052 42.1949C91.5052 42.4299 91.7002 42.5099 91.8952 42.5099C92.6752 42.5099 94.0002 40.5099 95.2502 40.5099C97.3152 40.5099 95.9502 44.9149 97.0802 44.9149C98.2102 44.9149 97.7452 40.5849 99.4202 40.5849C100.79 40.5849 101.8 43.5849 102.735 43.5849C102.794 43.583 102.853 43.5693 102.907 43.5445C102.961 43.5197 103.009 43.4843 103.049 43.4405C103.089 43.3967 103.12 43.3454 103.14 43.2894C103.16 43.2335 103.169 43.1742 103.165 43.1149C103.165 42.2999 101.995 40.6149 101.995 39.5299C101.995 38.8649 102.465 38.5299 103.09 38.5299C103.985 38.5299 105.195 39.0749 105.855 39.0749C106.09 39.0749 106.325 38.9949 106.325 38.7249C106.325 37.7899 102.855 36.7749 102.855 35.5649C102.855 34.3549 104.765 34.4049 104.765 33.8599ZM113.93 37.8599C113.93 38.5599 116.39 40.0799 117.52 40.0799C118.18 40.0799 118.375 39.1849 118.375 38.2449C118.375 37.0799 117.875 37.0399 116.875 37.0399C115.57 37.0199 113.93 37.3699 113.93 37.8399V37.8599ZM117.99 45.5799C117.99 43.2399 111.66 38.9899 111.59 37.1549C111.592 37.0607 111.613 36.9677 111.651 36.8818C111.69 36.7958 111.746 36.7186 111.815 36.6549C112.9 35.5099 117.4 34.6549 117.4 33.6999C117.4 33.1999 116.465 33.1999 115.995 33.1999C112.37 33.1999 107.065 34.5249 107.065 35.8149C107.065 37.1049 111.825 40.3799 111.825 41.9799C111.825 42.4049 111.55 42.5649 111.12 42.5649C109.795 42.5649 106.91 40.9649 105.545 40.9649C104.92 40.9649 104.685 41.3899 104.685 42.0149C104.685 43.8899 106.91 47.4399 106.91 48.4899C106.91 48.6049 106.87 48.7649 106.715 48.7649C106.01 48.7649 102.715 44.8649 101.525 44.8649C101.1 44.8649 101.06 45.4499 101.06 46.3049V47.6349C101.06 48.5299 101.02 49.0749 100.59 49.0749C99.5902 49.0749 99.0902 46.2299 98.1352 46.2299C97.1802 46.2299 96.9252 51.2999 95.9502 51.2999C94.8202 51.2999 95.7952 45.7199 94.7002 45.7199C93.4952 45.7199 92.1252 49.4249 91.2702 49.4249C90.9602 49.4249 90.8802 49.1149 90.8802 48.8399C90.8802 47.7099 91.5402 45.8799 91.5402 44.7849C91.5402 44.2399 91.3852 43.9299 90.9202 43.9299C89.7102 43.9299 87.0552 45.8799 86.0452 45.8799C85.8852 45.8799 85.6902 45.7999 85.6902 45.6449C85.6902 44.7099 89.9452 41.7449 89.9452 40.4199C89.9452 39.0949 84.0902 39.9899 84.0902 38.5049C84.0902 37.2599 88.2652 35.9699 88.2652 34.6849C88.2652 33.5499 83.3152 33.0449 81.4002 33.0449C79.1002 33.0449 77.8552 33.3149 77.8552 33.9799C77.8552 34.9799 83.0802 35.3099 83.0802 36.2049C83.0802 37.0999 77.6602 39.3649 77.6602 40.7049C77.6602 41.8749 85.3002 40.7799 85.3002 41.9949C85.3002 43.3199 78.6352 49.0499 78.6352 50.9599C78.6352 51.3899 78.9452 51.5849 79.3752 51.5849C81.4002 51.5849 86.6652 47.7249 88.1102 47.7249C88.6102 47.7249 88.6552 48.3499 88.6552 48.8949C88.6552 49.8949 88.3052 51.4699 88.3052 52.5999C88.3052 53.4999 88.5402 54.0999 89.3052 54.0999C90.7502 54.0999 92.0752 51.6449 93.0502 51.6449C94.2952 51.6449 93.5502 58.8599 95.4302 58.8599C97.0252 58.8599 97.6902 51.0599 98.7052 51.0599C99.7202 51.0599 100.54 53.3199 101.475 53.3199C102.645 53.3199 102.1 49.3849 103.345 49.3849C104.71 49.3849 108.61 54.0649 110.345 54.0649C110.89 54.0649 111.085 53.6349 111.085 53.0649C111.085 50.9999 108.2 46.3199 108.2 44.8399C108.2 44.4499 108.315 44.3399 108.745 44.3399C110.27 44.3399 114.715 46.4499 116.82 46.4499C117.56 46.4599 117.99 46.0699 117.99 45.5599V45.5799ZM82.3752 43.3199C82.3752 44.0999 79.4102 46.7099 78.3752 46.7099C77.9852 46.7099 77.8752 46.2449 77.8752 45.8149C77.8752 45.0349 78.2252 43.9449 78.6552 43.5899C79.1552 43.1249 80.3302 42.8899 81.2252 42.8899C81.7502 42.8699 82.3752 42.9849 82.3752 43.2999V43.3199ZM111.045 47.3199C111.045 48.6849 115.92 55.3549 116.855 55.3549C117.635 55.3549 118.22 53.9899 118.22 52.8199C118.224 52.5175 118.145 52.2199 117.99 51.9599C117.285 50.9849 112.33 47.0849 111.24 47.0849C111.184 47.0912 111.133 47.1185 111.097 47.1613C111.061 47.204 111.042 47.259 111.045 47.3149V47.3199Z" fill="#0067B1"></path><path d="M173.68 35.4998C173.68 35.6986 173.739 35.893 173.85 36.0579C173.961 36.2228 174.119 36.351 174.303 36.4258C174.487 36.5007 174.69 36.519 174.884 36.4784C175.079 36.4377 175.257 36.34 175.396 36.1976C175.535 36.0552 175.628 35.8747 175.664 35.6791C175.699 35.4835 175.676 35.2817 175.596 35.0995C175.517 34.9173 175.385 34.7629 175.217 34.6561C175.049 34.5492 174.854 34.4948 174.655 34.4998C174.524 34.4984 174.395 34.5234 174.274 34.5735C174.154 34.6236 174.045 34.6976 173.953 34.7911C173.862 34.8846 173.791 34.9956 173.744 35.1174C173.697 35.2392 173.675 35.3693 173.68 35.4998V35.4998ZM167.325 44.1348C167.325 41.3698 160.7 40.6648 160.7 40.0398C160.7 39.5398 164.4 38.6748 166.31 38.6348C163.385 34.8948 159.215 35.2848 159.215 34.6348C159.215 34.2448 162.34 33.4648 165.215 33.4648C167.63 33.4648 169.895 34.0098 169.895 35.8448C169.895 36.8448 169.075 37.9148 169.075 39.4698C169.051 39.6827 169.075 39.8982 169.145 40.1008C169.214 40.3033 169.328 40.4879 169.478 40.641C169.628 40.7941 169.81 40.912 170.011 40.9862C170.212 41.0604 170.427 41.0889 170.64 41.0698C171.85 41.0698 172.14 39.7848 172.14 38.4198C172.14 37.2898 171.945 36.4198 171.945 35.8848C171.926 35.5216 171.983 35.1584 172.113 34.8187C172.243 34.4791 172.443 34.1705 172.7 33.9131C172.957 33.6557 173.265 33.4552 173.604 33.3245C173.944 33.1939 174.307 33.1361 174.67 33.1548C176 33.1548 176.31 33.7348 178.26 33.7348C177.855 33.9786 177.514 34.3144 177.264 34.7149C177.014 35.1154 176.862 35.5694 176.82 36.0398C176.82 37.6798 177.875 38.8098 177.875 42.1648C177.875 48.3248 172.1 50.5098 165.04 50.5098C163.016 50.5067 160.995 50.3496 158.995 50.0398C158.685 50.0048 158.605 49.9248 158.605 49.7298C158.605 49.2298 161.38 48.9498 161.38 46.4548C161.319 45.6943 161.214 44.938 161.065 44.1898C161.064 44.1485 161.072 44.1075 161.088 44.0692C161.103 44.0309 161.127 43.9963 161.156 43.9673C161.185 43.9383 161.22 43.9156 161.259 43.9005C161.298 43.8855 161.339 43.8785 161.38 43.8798C161.965 43.8798 163.135 46.1398 165.315 46.1398C165.584 46.1634 165.856 46.1278 166.11 46.0354C166.364 45.943 166.595 45.7962 166.787 45.6052C166.978 45.4142 167.126 45.1836 167.219 44.9296C167.312 44.6756 167.348 44.4043 167.325 44.1348ZM173.915 40.1998C173.915 43.6698 171.385 46.3198 166.815 47.0598C167.315 47.0998 167.815 47.0998 168.26 47.0998C173.6 47.0998 175.555 44.6848 175.555 42.6548C175.582 42.1212 175.437 41.5929 175.142 41.1475C174.847 40.7021 174.417 40.3629 173.915 40.1798V40.1998Z" fill="#0067B1"></path><path d="M171.225 90.4552C171.85 88.5052 172.63 87.1402 173.91 85.0302C172.63 84.3702 169.235 82.9652 169.235 80.6652C169.235 77.9702 172.59 75.8652 173.285 75.8652C173.595 75.8652 173.675 76.1402 173.675 76.6452C173.675 78.0502 173.01 80.3102 173.01 81.5202C173.01 82.6152 173.715 83.6702 174.34 83.6702C174.965 83.6702 176.84 81.3302 176.84 79.0252C176.88 77.6909 176.411 76.3912 175.528 75.3901C174.645 74.3891 173.414 73.7616 172.085 73.6352C171.035 73.6352 169.12 75.3502 164.635 75.3502C156.25 75.3502 154.335 67.0452 154.335 63.4152C154.335 63.2602 154.375 63.2202 154.415 63.2202C155.496 63.9458 156.785 64.2971 158.085 64.2202C159.45 64.2202 160.7 63.8702 162.69 63.8702C167.365 63.8702 169.435 67.1052 172.325 71.2402C174.07 72.3302 178.245 74.0852 178.245 79.0402C178.245 83.4102 173.6 85.8252 172.48 90.5052C174.265 90.3152 175.32 87.1152 177.155 87.1152C178.09 87.1152 178.52 87.8552 178.52 89.0252C178.458 90.1466 178.174 91.2445 177.684 92.2554C177.195 93.2664 176.511 94.1704 175.67 94.9152C175.706 94.7225 175.72 94.5261 175.71 94.3302C175.71 93.2402 175.28 91.6802 174.03 91.6802C172.085 91.6802 171.46 93.7852 170.37 95.5402C169.24 91.5402 167.715 87.9702 164.985 85.7902C162.255 83.6102 157.485 84.7902 157.485 80.7152C157.485 79.6252 158.185 78.0652 158.185 76.8152C158.209 76.4147 158.1 76.0176 157.875 75.6852C161.62 77.0902 160.295 79.5852 162.6 82.1602C164.035 83.8002 168.015 85.3602 170.315 92.1052C170.368 91.7577 170.394 91.4067 170.395 91.0552C170.395 85.2802 162.755 79.6252 162.09 77.2852C166.53 77.7852 167.31 78.8852 169.42 84.7352C169.825 85.9702 171.225 88.9752 171.225 90.4552ZM170.225 71.5352C170.225 70.7202 168.155 70.6402 167.96 68.3402C167.92 67.9902 167.805 67.3652 167.375 67.3652C166.67 67.3652 167.215 69.5102 166.435 69.5102C164.645 69.5102 164.06 66.0102 163.395 66.0102C163.24 66.0102 163.05 66.1252 163.05 66.5952C163.05 67.0652 163.13 67.2952 163.13 67.8002C163.13 68.3052 163.01 68.6602 162.545 68.6602C161.49 68.6602 160.545 66.2052 159.655 66.2052C159.562 66.1953 159.469 66.2223 159.396 66.2803C159.323 66.3383 159.276 66.4227 159.265 66.5152C159.265 66.9852 160.045 67.8402 160.045 68.2702C160.045 69.2102 157.51 68.7002 157.51 69.4802C157.51 69.8302 157.86 69.9502 158.325 69.9502C159.15 69.9502 160.435 69.6002 161.1 69.6002C161.49 69.6002 162.075 69.6752 162.075 70.1802C162.075 70.6852 160.67 71.4302 160.67 71.9352C160.681 72.0383 160.733 72.1328 160.813 72.1983C160.894 72.2638 160.997 72.295 161.1 72.2852C162.155 72.2852 164.02 70.4552 165.345 70.4552C165.58 70.4552 166.165 70.5702 166.165 70.9252C166.165 71.4252 164.84 72.3252 164.84 73.0652C164.83 73.1685 164.861 73.2715 164.927 73.3519C164.992 73.4324 165.087 73.4839 165.19 73.4952C165.89 73.4952 166.825 71.6652 168.155 71.6652C168.655 71.6652 169.405 71.8602 169.795 71.8602C170.095 71.8502 170.225 71.6352 170.225 71.5352V71.5352Z" fill="#0067B1"></path><path d="M141.155 48.1698C141.78 48.1698 141.9 49.6948 142.015 50.5898C142.095 51.0598 142.17 51.0898 142.37 51.0898C142.835 51.0898 143.575 49.2948 144.08 49.2948C144.82 49.2948 146.81 51.3598 150.125 51.3598C154.845 51.3598 159.295 48.0448 159.295 42.1948C159.295 36.5398 155.295 33.2248 149.795 33.2248C147.18 33.2248 145.265 34.5098 144.25 34.5098C143.635 34.5498 142.7 33.0098 142.25 33.0098C142.055 33.0098 141.86 33.3998 141.86 34.0648C141.86 34.4948 141.86 35.8598 141.39 35.8598C140.45 35.8598 136.825 33.1698 136.825 34.1398C136.825 35.1098 139.245 37.7698 139.245 38.4698C139.245 39.1698 136.865 39.8398 136.865 40.3048C136.865 41.1648 139.4 41.3048 139.4 42.4098C139.4 43.5148 136.745 44.3598 136.745 45.1798C136.745 45.8448 139.4 45.3748 139.4 46.1798C139.4 46.9848 137.45 49.7298 137.45 50.5048C137.45 50.7048 137.49 50.7048 137.645 50.7048C138.385 50.7098 140.61 48.1698 141.155 48.1698ZM142.29 41.7798C142.29 41.3498 140.765 40.5298 140.765 40.0598C140.765 39.9848 140.84 39.9448 140.96 39.9448C141.39 39.9448 142.13 40.0998 142.72 40.0998C143.22 40.0998 143.305 37.9148 143.685 37.9148C143.96 37.9148 144.425 39.9848 144.86 39.9848C145.295 39.9848 146.3 39.3998 146.695 39.3998C146.77 39.3998 146.85 39.4348 146.85 39.5148C146.85 39.7898 145.85 40.8398 145.85 41.1548C145.85 41.4698 148.04 41.9348 148.04 42.2448C148.04 42.6348 145.815 42.5998 145.815 42.9498C145.815 43.2198 146.635 44.3148 146.635 44.6648C146.637 44.6807 146.635 44.6969 146.629 44.7119C146.624 44.727 146.615 44.7406 146.603 44.7517C146.592 44.7628 146.578 44.7711 146.562 44.776C146.547 44.7809 146.531 44.7821 146.515 44.7798C146.205 44.7798 145.015 44.2348 144.645 44.2348C144.215 44.2348 143.52 45.8348 143.145 45.8348C143.03 45.8348 142.955 45.6748 142.955 45.4798L142.875 43.9248C142.88 43.8856 142.877 43.8458 142.865 43.808C142.854 43.7703 142.834 43.7354 142.808 43.7056C142.782 43.6759 142.75 43.6519 142.714 43.6354C142.679 43.6189 142.64 43.6102 142.6 43.6098C142.13 43.6098 141.235 43.5698 140.96 43.5698C140.765 43.5698 140.685 43.5298 140.685 43.4548C140.725 43.1348 142.29 42.0498 142.29 41.7798ZM149.895 49.1898C147.16 49.1898 145.365 47.8248 145.365 47.1198C145.36 47.0445 145.37 46.9689 145.395 46.8977C145.42 46.8266 145.46 46.7614 145.512 46.7064C145.563 46.6514 145.626 46.6078 145.695 46.5782C145.765 46.5487 145.84 46.5339 145.915 46.5348C146.77 46.5348 148.645 47.8598 149.27 47.8598C149.425 47.8598 149.54 47.7848 149.54 47.5498C149.54 46.8448 148.88 45.6748 148.88 45.0948C148.88 44.9348 148.995 44.8198 149.23 44.8198C150.285 44.8198 151.845 45.2498 152.665 45.2498C152.94 45.2498 153.015 45.0948 153.015 44.9348C153.015 44.0798 150.48 42.3998 150.48 41.8948C150.48 41.3898 153.635 40.7248 153.635 39.9848C153.635 39.2448 149.345 39.7498 149.345 39.0098C149.345 38.4598 150.165 37.5098 150.165 37.0948C150.165 36.8998 150.01 36.8248 149.74 36.8248C149.385 36.8248 147.51 37.5648 146.74 37.5648C146.35 37.5648 145.88 37.4898 145.88 36.9398C145.88 36.0448 147.38 35.0698 149.785 35.0698C153.645 35.0698 155.945 37.7198 155.945 42.1698C155.935 47.7848 152 49.1898 149.895 49.1898V49.1898Z" fill="#0067B1"></path><path d="M123.485 116.665C123.478 117.08 123.326 117.48 123.055 117.795C122.63 117.015 121.42 116.625 120.87 116.625C116.87 116.625 118.37 122.44 114.085 122.44C112.29 122.44 112.135 122.205 111.475 122.205C111.2 122.205 111.045 122.32 111.045 122.555C111.045 123.555 112.485 126.055 116.505 126.055C120.525 126.055 124.385 123.6 124.385 120.555C124.376 120.005 124.257 119.463 124.035 118.96C124.145 118.832 124.283 118.73 124.438 118.661C124.593 118.593 124.761 118.56 124.93 118.565C125.555 118.565 125.905 119.27 126.49 119.27C126.634 119.273 126.778 119.248 126.912 119.194C127.046 119.141 127.168 119.06 127.27 118.959C127.372 118.857 127.453 118.735 127.507 118.602C127.561 118.468 127.588 118.324 127.585 118.18C127.585 117.944 127.513 117.713 127.381 117.518C127.248 117.323 127.059 117.172 126.84 117.085C127.006 116.963 127.143 116.805 127.238 116.622C127.333 116.439 127.385 116.236 127.39 116.03C127.396 115.863 127.368 115.696 127.308 115.539C127.248 115.383 127.156 115.24 127.04 115.12C126.923 115 126.783 114.905 126.628 114.841C126.474 114.776 126.307 114.744 126.14 114.745C125.977 114.744 125.816 114.777 125.668 114.844C125.519 114.91 125.387 115.008 125.28 115.13C125.205 114.435 124.815 113.77 124.07 113.77C123.93 113.769 123.792 113.798 123.664 113.854C123.536 113.91 123.421 113.993 123.327 114.096C123.233 114.199 123.161 114.321 123.117 114.453C123.073 114.586 123.057 114.726 123.07 114.865C123.055 115.49 123.485 116 123.485 116.665Z" fill="#0067B1"></path><path d="M112.995 118.135C111.825 118.135 110.07 116.885 110.07 116.18C110.083 115.933 110.192 115.701 110.375 115.533C110.557 115.366 110.798 115.277 111.045 115.285C112.02 115.285 113.775 116.495 113.775 117.51C113.775 117.795 113.58 118.135 112.995 118.135ZM102.115 109.395C105.235 110.175 106.79 111.85 107.115 113.845C107.425 115.75 107.815 117.315 108.555 118.095C109.757 119.342 111.39 120.08 113.12 120.16C114.525 120.16 115.655 119.695 115.655 118.405C115.655 117 113.745 113.845 110.935 113.845C110.665 113.845 110.315 113.885 109.935 113.885C109.515 113.902 109.101 113.777 108.76 113.53C108.14 112.985 107.945 110.06 106.76 108.305C105.47 106.355 104.07 105.805 102.155 105.805C100.795 105.805 99.2701 106.545 99.2701 107.64C99.2651 108.32 99.6151 108.785 102.115 109.41V109.395Z" fill="#0067B1"></path><path d="M121.695 104.635C121.695 102.88 118.065 102.845 118.065 100.19C118.065 99.5249 118.495 98.3949 119.35 97.1899C119.705 99.2199 120.52 100.27 122.28 100.935C125.75 102.22 126.215 104.17 126.215 106.24C126.215 109.74 123.76 114.12 117.44 114.12C112.37 114.12 108.74 109.595 108.74 105.775C108.74 104.72 109.015 103.55 109.68 103.55C110.265 103.55 110.46 104.015 110.925 104.485C112.685 106.24 114.595 106.71 117.365 106.71C119.86 106.72 121.695 105.705 121.695 104.635ZM121.85 107.445C120.51 108.055 119.975 107.945 119.975 109.32C119.975 109.82 119.86 110.485 119.86 110.82C119.86 111.29 119.94 111.565 120.485 111.565C121.89 111.565 124.11 109.185 124.11 107.155C124.11 106.61 123.8 106.38 123.445 106.38C123.09 106.38 122.785 107.03 121.85 107.46V107.445ZM109.405 87.7499C109.405 85.2499 115.335 83.9249 115.335 80.8449C115.301 80.1243 115.115 79.4189 114.79 78.7749C116.855 79.9049 118.375 81.8199 118.375 83.3799C118.375 86.0699 115.57 87.3199 115.57 88.9949C115.57 90.9449 118.57 91.2599 118.57 93.6749C118.57 95.6749 115.725 97.9649 115.725 100.54C115.72 101.517 116.082 102.46 116.74 103.182C117.397 103.904 118.302 104.353 119.275 104.44C118.621 104.605 117.95 104.698 117.275 104.715C113.335 104.715 109.275 101.48 109.275 97.6149C109.279 96.7178 109.463 95.8306 109.818 95.0066C110.173 94.1826 110.691 93.4389 111.34 92.8199C112.435 93.7549 113.525 94.3799 114.225 94.3799C114.925 94.3799 115.125 94.0699 115.125 93.5999C115.14 92.1699 109.405 90.8449 109.405 87.7649V87.7499Z" fill="#0067B1"></path><path d="M86.78 107.03C86.8698 107.689 87.2142 108.287 87.7395 108.696C88.2647 109.104 88.929 109.29 89.59 109.215C90.0427 109.177 90.4823 109.045 90.88 108.825C91.0092 109.436 91.3712 109.972 91.8893 110.32C92.4074 110.668 93.0407 110.801 93.655 110.69C93.9871 110.664 94.3105 110.571 94.6057 110.417C94.9009 110.263 95.1618 110.05 95.3725 109.792C95.5833 109.534 95.7396 109.236 95.8319 108.916C95.9243 108.596 95.9509 108.261 95.91 107.93C95.8832 107.619 95.8055 107.315 95.68 107.03C95.68 107.03 95.87 107.03 96.01 106.985C96.6659 106.898 97.2635 106.562 97.68 106.048C98.0966 105.534 98.3005 104.88 98.25 104.22C98.1852 103.558 97.8636 102.948 97.3541 102.521C96.8446 102.094 96.1879 101.883 95.525 101.935C95.0534 101.986 94.606 102.17 94.235 102.465C94.0695 101.834 93.6756 101.287 93.1297 100.929C92.5838 100.572 91.9247 100.429 91.28 100.53C90.9549 100.577 90.6423 100.688 90.3601 100.856C90.0778 101.024 89.8314 101.246 89.635 101.509C89.4386 101.773 89.296 102.072 89.2153 102.39C89.1347 102.709 89.1176 103.04 89.165 103.365C89.1875 103.634 89.2533 103.897 89.36 104.145L88.97 104.2C88.3147 104.307 87.7244 104.659 87.3181 105.184C86.9117 105.709 86.7194 106.369 86.78 107.03ZM94.07 105.495C94.1071 105.791 94.0553 106.091 93.9212 106.357C93.7872 106.623 93.5769 106.843 93.3172 106.989C93.0575 107.135 92.7602 107.201 92.4632 107.177C92.1662 107.154 91.8829 107.042 91.6494 106.857C91.416 106.672 91.243 106.421 91.1525 106.137C91.062 105.853 91.0581 105.549 91.1414 105.263C91.2246 104.977 91.3911 104.722 91.6197 104.531C91.8483 104.34 92.1287 104.221 92.425 104.19C92.8154 104.149 93.2064 104.263 93.5139 104.507C93.8215 104.751 94.0211 105.106 94.07 105.495Z" fill="#0067B1"></path></g><defs><clipPath id="clip0"><rect width="128.115" height="141.735" fill="white" transform="translate(66 33)"></rect></clipPath></defs></svg> 