<?xml version="1.0" encoding="UTF-8"?> <svg xmlns="http://www.w3.org/2000/svg" xmlns:xlink="http://www.w3.org/1999/xlink" viewBox="0 0 350.9 351.22"><defs><style>.cls-1{fill:none;}.cls-2{fill:#fff;}.cls-3{clip-path:url(#clip-path);}.cls-4{clip-path:url(#clip-path-2);}.cls-5{clip-path:url(#clip-path-3);}</style><clipPath id="clip-path" transform="translate(-0.54 -0.57)"><rect class="cls-1" width="352" height="352"></rect></clipPath><clipPath id="clip-path-2" transform="translate(-0.54 -0.57)"><path class="cls-1" d="M175.5,1.15C163.16,36.49,150.35,71.66,137.91,107c4,.07,8.07.05,12.1,0,5,0,10,0,15,.1,6.61.27,13.54,3,17.19,8.81,4.18,6.53,3.95,14.9,1.32,22-12.3,34.61-24.72,69.18-37,103.81-5.86.08-11.72.07-17.58.05-5,0-10,0-15,0h-1a9.15,9.15,0,0,1-3.53-.43c13.79-38,27.26-76.21,40.85-114.32-3.17,0-6.34,0-9.51,0s-6.62,0-9.93,0a58.23,58.23,0,0,0-2.45,6.45c-12.5,35.16-25.11,70.29-37.57,105.47-.59.9-.44,2.86-1.85,2.87-4.93,0-9.87,0-14.8,0-5.41,0-10.82,0-16.23,0-.43,0-.87,0-1.3,0a13.61,13.61,0,0,1-4.27-.37C80.78,162.71,108.5,83.78,136.88,5.09,81.44,17,33.75,58.44,13.14,111.13,4.69,132,1,154.52.54,177c.58,10.77,1.34,21.57,3.43,32.18A175.71,175.71,0,0,0,132.26,345.81q42.38-118.5,84.48-237.1c.28-.57.85-1.72,1.13-2.3,10.76.1,21.52.09,32.28.08q9.93,0,19.85,0c1.35,0,2.71,0,4.07,0,4.39-.06,8.79-.11,13,1.2,6.38,1.72,12.32,6.31,14.28,12.8,1.45,5.12.44,10.57-1.38,15.46-11.09,32.38-22.83,64.53-34.28,96.77-2.84,8.4-11.38,13.66-20,14-6.77.12-13.53.1-20.3.08s-13.56,0-20.33.08q-18.66,52-37.09,104c2.11.9,4.3.75,6.51.6a27.12,27.12,0,0,1,3.49-.08c5.06.39,10.08-.54,15.11-.9a175.35,175.35,0,0,0,140.83-97.58,177.42,177.42,0,0,0,17.53-66,166.53,166.53,0,0,1-.17-23.85A175.64,175.64,0,0,0,191.07,1a23.43,23.43,0,0,0-4.92-.47c-3.54,0-7.09.56-10.65.58"></path></clipPath><clipPath id="clip-path-3" transform="translate(-0.54 -0.57)"><path class="cls-2" d="M247.55,127.41c-11.87,33.16-23.62,66.36-35.49,99.51,6.51,0,13.06.32,19.56-.14,11.5-33.44,23.74-66.62,35.43-100-2.62-.06-5.24-.05-7.85,0-2.41,0-4.81,0-7.21,0a7,7,0,0,1-1.52,0l-.89,0a2.54,2.54,0,0,0-2,.72"></path></clipPath></defs><g id="Layer_2" data-name="Layer 2"><g id="Layer_1-2" data-name="Layer 1"><g class="cls-3"><g class="cls-4"><rect class="cls-2" width="350.9" height="351.22"></rect></g><path class="cls-2" d="M247.55,127.41c-11.87,33.16-23.62,66.36-35.49,99.51,6.51,0,13.06.32,19.56-.14,11.5-33.44,23.74-66.62,35.43-100-2.62-.06-5.24-.05-7.85,0-2.41,0-4.81,0-7.21,0a7,7,0,0,1-1.52,0l-.89,0a2.54,2.54,0,0,0-2,.72" transform="translate(-0.54 -0.57)"></path><g class="cls-5"><rect class="cls-2" x="211.52" y="126.11" width="54.99" height="100.55"></rect></g></g></g></g></svg> 