<svg width="48" height="48" viewBox="0 0 48 48" fill="none" xmlns="http://www.w3.org/2000/svg">
<g clip-path="url(#clip0)">
<path d="M24 12.5225C27.7384 12.5225 28.1808 12.5369 29.6574 12.6042C31.0222 12.6664 31.7636 12.8942 32.2571 13.086C32.9106 13.3399 33.3769 13.6434 33.867 14.133C34.3572 14.6231 34.6606 15.0894 34.914 15.7429C35.1057 16.2364 35.3336 16.9778 35.3958 18.3426C35.4631 19.8187 35.4775 20.2616 35.4775 24C35.4775 27.7384 35.4631 28.1807 35.3958 29.6573C35.3336 31.0222 35.1057 31.7635 34.914 32.257C34.6601 32.9106 34.3566 33.3768 33.867 33.867C33.3769 34.3571 32.9106 34.6606 32.2571 34.914C31.7636 35.1057 31.0222 35.3336 29.6574 35.3958C28.1813 35.463 27.7384 35.4775 24 35.4775C20.2616 35.4775 19.8187 35.463 18.3426 35.3958C16.9778 35.3336 16.2364 35.1057 15.7429 34.914C15.0894 34.66 14.6231 34.3566 14.133 33.867C13.6428 33.3768 13.3394 32.9106 13.086 32.257C12.8943 31.7635 12.6664 31.0222 12.6042 29.6573C12.5369 28.1813 12.5225 27.7384 12.5225 24C12.5225 20.2616 12.5369 19.8192 12.6042 18.3426C12.6664 16.9778 12.8943 16.2364 13.086 15.7429C13.3399 15.0894 13.6434 14.6231 14.133 14.133C14.6231 13.6428 15.0894 13.3394 15.7429 13.086C16.2364 12.8942 16.9778 12.6664 18.3426 12.6042C19.8192 12.5369 20.2616 12.5225 24 12.5225ZM24 10C20.1977 10 19.7209 10.0161 18.2276 10.0845C16.7377 10.1523 15.7201 10.389 14.8293 10.7352C13.9085 11.0931 13.1277 11.5716 12.3496 12.3502C11.5716 13.1282 11.0926 13.909 10.7352 14.8293C10.389 15.7201 10.1523 16.7377 10.0845 18.2276C10.0161 19.7208 10 20.1977 10 24C10 27.8023 10.0161 28.2791 10.0845 29.7724C10.1523 31.2623 10.389 32.2798 10.7352 33.1706C11.0931 34.0915 11.5716 34.8723 12.3502 35.6503C13.1288 36.4289 13.909 36.9074 14.8299 37.2653C15.7201 37.6115 16.7383 37.8482 18.2282 37.916C19.7214 37.9844 20.1982 38.0005 24.0006 38.0005C27.8029 38.0005 28.2797 37.9844 29.7729 37.916C31.2629 37.8482 32.281 37.6115 33.1712 37.2653C34.0921 36.9074 34.8729 36.4289 35.6509 35.6503C36.4295 34.8717 36.908 34.0915 37.2659 33.1706C37.6121 32.2804 37.8488 31.2623 37.9166 29.7724C37.985 28.2791 38.0011 27.8023 38.0011 24C38.0011 20.1977 37.985 19.7208 37.9166 18.2276C37.8488 16.7377 37.6121 15.7196 37.2659 14.8293C36.908 13.9085 36.4295 13.1277 35.6509 12.3496C34.8723 11.5711 34.0921 11.0926 33.1712 10.7347C32.2799 10.389 31.2623 10.1523 29.7724 10.0845C28.2791 10.0161 27.8023 10 24 10Z" fill="white"></path>
<path d="M23.9995 16.8115C20.0288 16.8115 16.8105 20.0303 16.8105 24.0005C16.8105 27.9706 20.0293 31.1894 23.9995 31.1894C27.9696 31.1894 31.1884 27.9706 31.1884 24.0005C31.1884 20.0303 27.9702 16.8115 23.9995 16.8115ZM23.9995 28.667C21.422 28.667 19.333 26.5774 19.333 24.0005C19.333 21.423 21.4226 19.334 23.9995 19.334C26.5764 19.334 28.666 21.4235 28.666 24.0005C28.666 26.578 26.577 28.667 23.9995 28.667Z" fill="white"></path>
<path d="M31.4729 18.2066C32.4008 18.2066 33.1529 17.4545 33.1529 16.5267C33.1529 15.5988 32.4008 14.8467 31.4729 14.8467C30.5451 14.8467 29.793 15.5988 29.793 16.5267C29.793 17.4545 30.5451 18.2066 31.4729 18.2066Z" fill="white"></path>
</g>
<defs>
<clipPath id="clip0">
<rect width="28" height="28" fill="white" transform="translate(10 10)"></rect>
</clipPath>
</defs>
</svg>