<svg width="48" height="48" viewBox="0 0 48 48" fill="none" xmlns="http://www.w3.org/2000/svg">
<path d="M20.0235 32H16.3059V19.9843H20.0471V32H20.0235ZM18.1647 18.3351C16.9647 18.3351 16 17.3691 16 16.1675C16 14.966 16.9647 14 18.1647 14C19.3647 14 20.3294 14.966 20.3294 16.1675C20.3294 17.3691 19.3647 18.3351 18.1647 18.3351ZM34 32H30.2588V26.1571C30.2588 24.767 30.2353 22.9764 28.3294 22.9764C26.3765 22.9764 26.0941 24.5079 26.0941 26.0628V32H22.3765V19.9843H25.9529V21.6335H26C26.4941 20.6911 27.7176 19.7016 29.5294 19.7016C33.3176 19.7016 34 22.199 34 25.4267V32V32Z" fill="white"></path>
</svg>