<svg width="48" height="48" viewBox="0 0 48 48" fill="none" xmlns="http://www.w3.org/2000/svg">
<path d="M20.9084 34C29.2102 34 33.7466 27.0746 33.7466 21.0746C33.7466 20.8657 33.7466 20.6866 33.7466 20.4776C34.6361 19.8507 35.407 19.0448 36 18.1194C35.1995 18.4776 34.31 18.7164 33.4205 18.8358C34.3396 18.2687 35.0809 17.3731 35.407 16.3284C34.5472 16.8358 33.5687 17.2239 32.531 17.4328C31.7008 16.5373 30.5445 16 29.2399 16C26.7493 16 24.7331 18.0298 24.7331 20.5373C24.7331 20.8955 24.7628 21.2537 24.8517 21.5821C21.0863 21.403 17.7655 19.5821 15.5418 16.8358C15.1563 17.4925 14.9191 18.2985 14.9191 19.1343C14.9191 20.7164 15.7197 22.0896 16.9353 22.9254C16.1941 22.8955 15.5121 22.6866 14.8895 22.3582C14.8895 22.3881 14.8895 22.3881 14.8895 22.4179C14.8895 24.6269 16.4313 26.4478 18.5067 26.8657C18.1213 26.9552 17.7359 27.0149 17.3208 27.0149C17.0243 27.0149 16.7574 26.9851 16.4609 26.9254C17.0243 28.7463 18.7143 30.0597 20.6712 30.0896C19.1294 31.3134 17.1725 32.0299 15.0674 32.0299C14.7116 32.0299 14.3558 32 14 31.9701C15.9865 33.2537 18.3585 34 20.9084 34Z" fill="white"></path>
</svg>