<svg width="120" height="120" viewBox="0 0 120 120" fill="none" xmlns="http://www.w3.org/2000/svg">
<rect width="120" height="120" rx="4" fill="#F4F4F4"/>
<path fill-rule="evenodd" clip-rule="evenodd" d="M56.1732 40.2454L53.9011 37.038C53.855 36.9727 53.7139 36.9938 53.5862 37.0841C53.4576 37.1753 53.3913 37.301 53.4374 37.3663L55.6345 40.4677C49.2153 43.3026 49.0338 50.2684 49.0338 50.2684H74.8537C74.8537 50.2684 74.5975 43.3649 68.2251 40.5061L70.4493 37.3663C70.4954 37.301 70.4292 37.1753 70.3005 37.0841C70.1729 36.9938 70.0317 36.9727 69.9857 37.038L67.6884 40.2809C66.1343 39.672 64.2437 39.2961 61.9438 39.289C59.6308 39.2818 57.732 39.6459 56.1732 40.2454ZM57.3763 43.5456C57.9832 44.1526 57.9832 45.1366 57.3763 45.7436C56.7693 46.3506 55.7852 46.3506 55.1783 45.7436C54.5713 45.1366 54.5713 44.1526 55.1783 43.5456C55.7852 42.9386 56.7693 42.9386 57.3763 43.5456ZM67.8695 43.1118C68.7168 43.2493 69.2921 44.0476 69.1546 44.8949C69.0171 45.7422 68.2187 46.3176 67.3714 46.18C66.5242 46.0425 65.9488 45.2441 66.0863 44.3969C66.2239 43.5496 67.0222 42.9742 67.8695 43.1118ZM79.1171 68.8961C80.6473 68.8961 81.8867 67.6567 81.8867 66.1275V53.685C81.8867 52.1558 80.6463 50.9164 79.1171 50.9164C77.5878 50.9164 76.3485 52.1558 76.3485 53.685V66.1275C76.3485 67.6567 77.5878 68.8961 79.1171 68.8961ZM48.9263 51.8017H74.9602V62.518H74.9353V73.7585C74.9353 74.6168 74.2393 75.3137 73.3801 75.3137H70.0557V82.2315C70.0557 83.7608 68.8163 85.0001 67.2861 85.0001C65.7568 85.0001 64.5175 83.7608 64.5175 82.2315V75.3137H59.3691V82.2315C59.3691 83.7608 58.1297 85.0001 56.6005 85.0001C55.0712 85.0001 53.8319 83.7608 53.8319 82.2315V75.3137H50.5064C49.6472 75.3137 48.9503 74.6177 48.9503 73.7585V62.518H48.9263V51.8017ZM47.5382 66.1275C47.5382 67.6568 46.2988 68.8961 44.7686 68.8961C43.2394 68.8961 42 67.6568 42 66.1275V53.6851C42 52.1558 43.2394 50.9165 44.7686 50.9165C46.2979 50.9165 47.5382 52.1558 47.5382 53.6851V66.1275Z" fill="#333333"/>
</svg>
