<svg width="120" height="25" viewBox="0 0 120 25" fill="none" xmlns="http://www.w3.org/2000/svg">
<path d="M53.4077 7.07495L53.602 7.25404V7.07495H53.4077Z" fill="#777777"/>
<path d="M56.4902 18.7806H53.4114L53.6095 18.9635H56.6693V18.3805L56.4902 18.1899V18.7806Z" fill="#777777"/>
<path d="M56.6695 6.67856L56.4904 6.48804V7.07485H55.8464V17.7328H56.0293V7.25395H56.6695V6.67856Z" fill="#777777"/>
<path d="M116.494 7.07495L116.688 7.25404V7.07495H116.494Z" fill="#777777"/>
<path d="M119.572 18.7806H116.49L116.692 18.9635H119.755V18.3805L119.572 18.1899V18.7806Z" fill="#777777"/>
<path d="M119.111 7.25776H119.755V7.01007V6.73953V6.67856L119.572 6.48804V6.68618V7.07485H119.176H118.928V17.7328H119.111V7.25776Z" fill="#777777"/>
<path d="M20.2526 9.27662L20.0735 9.06323V17.7321H20.2526V9.27662Z" fill="#777777"/>
<path d="M28.3917 7.25404H28.4451H28.4756V7.07495H28.1936L28.3917 7.25404Z" fill="#777777"/>
<path d="M18.2676 7.24941V7.07031H17.9856L18.1837 7.24941H18.2676Z" fill="#777777"/>
<path d="M20.8015 18.7806H17.9856L18.1837 18.9635H20.9844V18.3805L20.8015 18.1899V18.7806Z" fill="#777777"/>
<path d="M28.7882 18.9405H30.6324L30.5943 7.2576H31.3259V6.67841L31.143 6.4917V7.0747H30.4076L30.4495 18.7614H28.6357L28.7882 18.9405Z" fill="#777777"/>
<path d="M65.1365 9.27662L64.9536 9.06323V17.7321H65.1365V9.27662Z" fill="#777777"/>
<path d="M63.1509 7.24941V7.07031H62.8613L63.0633 7.24941H63.1509Z" fill="#777777"/>
<path d="M73.2716 7.25404H73.325H73.3593V7.07495H73.0735L73.2716 7.25404Z" fill="#777777"/>
<path d="M73.668 18.9405H75.5123L75.4742 7.2576H76.2058V6.67841L76.0229 6.4917V7.0747H75.2875L75.3294 18.7614H73.5156L73.668 18.9405Z" fill="#777777"/>
<path d="M65.6811 18.7806H62.8613L63.0633 18.9635H65.864V18.3805L65.6811 18.1899V18.7806Z" fill="#777777"/>
<path d="M46.8538 7.98525V7.82901V7.80615H43.3291V17.721H43.512V7.98525H46.8538Z" fill="#777777"/>
<path d="M40.8901 7.98905V7.80615H37.3692V8.21768H36.79L36.992 8.39678H37.5521V7.98905H40.8901Z" fill="#777777"/>
<path d="M43.9842 18.7649H40.7224L40.9244 18.9478H44.1709V18.3686L43.9842 18.1819V18.7649Z" fill="#777777"/>
<path d="M47.894 8.21805H47.3186L47.5167 8.39715H48.0769V6.26328L47.894 6.07275V8.21805Z" fill="#777777"/>
<path d="M3.39905 13.9752H3.71151L5.97493 8.89584L5.82632 8.53003L3.39905 13.9752Z" fill="#777777"/>
<path d="M7.4493 6.2478H7.27783L12.441 17.7059H12.6125L7.4493 6.2478Z" fill="#777777"/>
<path d="M8.68799 15.3884H2.78175C2.78175 15.3884 1.85961 17.6099 1.82532 17.709H2.12635L2.15683 17.6366L3.01419 15.5675H8.77944L8.69942 15.3884" fill="#777777"/>
<path d="M13.0814 18.7617H9.82727L10.0254 18.9446H13.2605V18.3578L13.0814 18.1672V18.7617Z" fill="#777777"/>
<path d="M2.3283 18.7617H0.0915527L0.270645 18.9446H2.51121V18.3425L2.3283 18.1672V18.7617Z" fill="#777777"/>
<path d="M83.7011 8.9186C82.8226 9.86697 82.3353 11.1125 82.3369 12.4052C82.3364 13.2701 82.5624 14.1201 82.9923 14.8706C82.6811 14.1995 82.5199 13.4688 82.5198 12.7291C82.5198 9.98172 84.6575 7.63447 87.3286 7.62685C87.9717 7.62853 88.607 7.76753 89.192 8.03457C88.5261 7.64922 87.7702 7.44678 87.0009 7.44776C86.3791 7.45164 85.7649 7.58434 85.1969 7.83749C84.629 8.09064 84.1196 8.45876 83.7011 8.9186Z" fill="#777777"/>
<path d="M93.4862 9.69653C94.0463 10.909 94.209 12.2675 93.951 13.578C93.693 14.8884 93.0276 16.0839 92.0497 16.9936C90.6532 18.2099 88.8521 18.8596 87.0008 18.815C85.8396 18.8247 84.6901 18.5816 83.6323 18.1025C84.7703 18.7049 86.041 19.0128 87.3285 18.9979C89.145 19.0422 90.9122 18.4046 92.2821 17.2108C93.2935 16.273 93.9619 15.0236 94.1809 13.6618C94.3998 12.3 94.1566 10.9041 93.49 9.69653" fill="#777777"/>
<path d="M98.2798 7.07031L98.4779 7.24941V7.07031H98.2798Z" fill="#777777"/>
<path d="M101.031 7.96585H105.093C105.742 7.94263 106.388 8.04484 106.998 8.26687C106.319 7.90237 105.55 7.73602 104.781 7.78676H100.848V11.6201H101.031V7.96585Z" fill="#777777"/>
<path d="M108.404 13.4498C108.511 13.6497 108.602 13.8573 108.678 14.0709L109.821 17.7099H109.97L108.922 14.4329C108.809 14.0702 108.625 13.7335 108.381 13.4421" fill="#777777"/>
<path d="M104.998 13.3884H100.844V17.7171H101.031V13.5866H105.329C105.4 13.5946 105.471 13.61 105.539 13.6323C105.38 13.5137 105.194 13.4364 104.998 13.4075" fill="#777777"/>
<path d="M110.698 18.7687H107.985L108.244 18.9516H110.881V18.3686L110.698 18.1819V18.7687Z" fill="#777777"/>
<path d="M109.906 9.69174C109.925 10.5773 109.602 11.4362 109.003 12.0885C108.702 12.4083 108.349 12.6739 107.958 12.8735C108.036 12.9402 108.108 13.0142 108.172 13.0945C108.597 12.8808 108.973 12.5825 109.279 12.2178C109.584 11.8532 109.811 11.43 109.947 10.9742C110.082 10.5185 110.123 10.0398 110.067 9.56758C110.011 9.09539 109.859 8.6397 109.62 8.22852C109.818 8.68929 109.916 9.18653 109.909 9.68793" fill="#777777"/>
<path d="M101.492 18.7612H98.2837L98.4818 18.9441H101.675V18.3687L101.492 18.1782V18.7612Z" fill="#777777"/>
<path d="M56.0978 18.1173H55.4538V6.68583H56.0978V6.41528H53.3352V6.68583H53.9982V18.1173H53.3352V18.3916H56.0978V18.1173Z" fill="#777777"/>
<path d="M116.421 18.1173V18.3916H119.18V18.1173H118.536V6.68583H119.18V6.41528H116.421V6.68583H117.084V18.1173H116.421Z" fill="#777777"/>
<path d="M28.1214 6.68583H28.8835V16.0367C28.8835 16.0367 20.6262 6.44958 20.63 6.41528H17.9208V6.68583H18.6829V18.1173H17.9208V18.3878H20.4204V18.1173H19.6888V8.00807L28.5901 18.3726H30.0648L30.0267 6.68583H30.7583V6.41528H28.1214V6.68583Z" fill="#777777"/>
<path d="M72.997 6.68583H73.7591V16.0367C73.7591 16.0367 65.5056 6.44958 65.5094 6.41528H62.7964V6.68583H63.5585V18.1173H62.7964V18.3878H65.2999V18.1173H64.5683V8.00807L73.4657 18.3726H74.9404L74.9023 6.68583H75.6377V6.41528H73.0047V6.68583H72.997Z" fill="#777777"/>
<path d="M36.9768 7.4175H41.2864V18.1097H40.6501V18.3764H43.5956V18.1097H42.9402L42.9364 7.4175H47.246V7.82903H47.5013V6H47.246V6.41534H36.9768V6H36.7139V7.82903H36.9768V7.4175Z" fill="#777777"/>
<path d="M12.1821 18.0868L6.81313 6.17139H5.83384L0.685886 17.7781C0.63635 17.8886 0.586814 17.9915 0.537277 18.0906H0V18.3725H1.90524V18.0906H1.29556C1.34508 17.7869 1.43745 17.4918 1.56992 17.2142L2.48824 14.9926H8.92033L9.95297 17.2789C10.073 17.5295 10.1491 17.7989 10.1778 18.0753H9.72053V18.3573H12.6546V18.0753H12.1554M2.79689 14.3487L5.84527 7.51648L8.62311 14.3487H2.79689Z" fill="#777777"/>
<path d="M87.0011 6.26304C83.3125 6.26304 80.3213 8.82368 80.3213 12.3598C80.3213 15.8959 83.1449 18.4566 87.0011 18.4566C90.8573 18.4566 93.6618 15.8731 93.6618 12.3446C93.6618 8.81606 90.6705 6.2478 86.982 6.2478M86.982 17.6792C84.2385 17.6792 81.9217 15.2634 81.9217 12.3903C81.9217 9.51719 84.1546 7.05562 86.982 7.05562C89.8094 7.05562 92.0423 9.52862 92.0423 12.3903C92.0423 15.252 89.7294 17.6792 86.982 17.6792Z" fill="#777777"/>
<path d="M108.313 14.2047C108.099 13.6255 107.833 13.0272 107.044 12.8481H107.006C108.214 12.5014 109.509 11.5564 109.509 9.7045C109.509 7.37249 107.524 6.42749 105.318 6.42749H98.1921V6.69423H98.8514C98.8514 6.69423 98.8514 6.72471 98.8514 6.74376V18.0685C98.8514 18.0685 98.8514 18.1028 98.8514 18.118H98.1921V18.3886H101.08V18.118H100.444C100.444 18.118 100.444 18.0837 100.444 18.0685V13.0006H105.017C105.432 13.0387 106.194 13.3511 106.579 14.4905L107.897 18.3771H110.302V18.1066H109.54L108.313 14.2047ZM104.746 12.006H100.456V7.39916H104.75C107.257 7.39916 108.126 8.42418 108.126 9.79214C108.126 11.1601 107.124 12.006 104.75 12.006" fill="#777777"/>
</svg>
