<?xml version="1.0" encoding="UTF-8"?>
<svg id="Layer_1" data-name="Layer 1" xmlns="http://www.w3.org/2000/svg" viewBox="0 0 278 40">
  <defs>
    <style>
      .cls-1 {
        fill: #fff;
        stroke: #231f20;
        stroke-miterlimit: 10;
        stroke-width: .25px;
      }
    </style>
  </defs>
  <path id="path8" class="cls-1" d="M26.74,28.42c.07-.11,.16-.2,.27-.28,.11-.08,.22-.14,.34-.2,.12-.06,.23-.11,.34-.16,.09-.05,.18-.11,.26-.17,.07-.06,.11-.14,.1-.23,0-.1-.04-.2-.11-.26-.1-.06-.21-.1-.33-.09-.09,0-.18,.01-.27,.05-.07,.03-.14,.07-.2,.11-.05,.03-.08,.08-.12,.12-.02,.02-.03,.05-.04,.09,0,.01,0,.03,0,.04v.04l-.04,.03-.31-.39,.04-.02,.04,.02s.03,.02,.04,.02c.04,0,.07-.02,.1-.05,.05-.04,.1-.08,.16-.11,.08-.05,.16-.09,.25-.11,.12-.04,.25-.06,.38-.05,.19-.01,.37,.04,.52,.15,.12,.1,.19,.26,.18,.42,0,.1-.03,.21-.09,.29-.06,.08-.14,.15-.22,.21-.09,.06-.19,.11-.29,.15-.11,.04-.21,.09-.3,.14-.09,.04-.17,.1-.24,.16-.07,.05-.11,.13-.13,.21h1.28s.06,0,.08-.02c.01-.02,.02-.04,.02-.07h.05v.43h-.05s0-.04-.02-.05c-.02-.01-.05-.02-.08-.01h-1.53s-.1,.02-.11,.06h-.05v-.04c0-.14,.03-.28,.1-.4"/>
  <path id="path10" class="cls-1" d="M31.04,27.31l-.04-.02s0-.02,0-.03c0,0,0-.02,0-.02,0-.03-.02-.05-.04-.07-.03-.03-.07-.05-.11-.07-.05-.02-.11-.04-.16-.05-.06-.01-.12-.02-.18-.02-.1,0-.2,.02-.3,.05-.08,.03-.16,.08-.23,.14-.06,.06-.11,.13-.14,.21-.03,.08-.05,.16-.05,.25v.03s0,.02,0,.04h0c.07-.1,.17-.17,.29-.21,.12-.04,.25-.05,.38-.05,.1,0,.2,.01,.3,.04,.1,.02,.19,.06,.27,.12,.08,.05,.14,.12,.18,.2,.05,.08,.07,.18,.07,.28,0,.2-.08,.38-.23,.5-.19,.13-.41,.19-.64,.17-.14,0-.28-.02-.42-.07-.11-.04-.22-.11-.3-.2-.08-.09-.14-.19-.18-.3-.04-.12-.06-.25-.06-.39,0-.15,.02-.3,.07-.44,.04-.13,.11-.24,.21-.34,.09-.1,.2-.17,.33-.22,.14-.05,.28-.08,.43-.08,.08,0,.16,0,.24,.02,.07,.01,.13,.03,.18,.05l.13,.05s.05,.02,.08,.02c.02,0,.04,0,.05-.02l.03-.03,.05,.03-.2,.43Zm-.09,.62c-.03-.06-.08-.1-.13-.14-.06-.04-.12-.06-.19-.07-.07-.01-.15-.02-.22-.02-.07,0-.15,.01-.22,.03-.07,.02-.13,.05-.19,.09-.06,.04-.1,.08-.14,.14-.03,.06-.05,.12-.05,.19,0,.08,.02,.16,.06,.22,.04,.06,.09,.11,.15,.15,.07,.04,.14,.06,.21,.08,.08,.02,.16,.02,.24,.02,.07,0,.14,0,.2-.03,.06-.02,.12-.05,.17-.09,.05-.04,.09-.09,.11-.14,.03-.06,.04-.13,.04-.2,0-.08-.01-.15-.05-.22"/>
  <path id="path12" class="cls-1" d="M35.16,28.13h-.05v-.45h.05c0,.06,.05,.11,.11,.12,.01,0,.02,0,.03,0h.85v.04s-.04,0-.06,.02c-.01,.02-.02,.05-.02,.08v.33s0,.06,.02,.08c.01,.01,.03,.02,.05,.02v.04c-.17,.14-.37,.24-.58,.3-.18,.05-.36,.08-.54,.08-.16,0-.32-.02-.48-.07-.14-.04-.27-.11-.38-.2-.11-.08-.19-.19-.25-.31-.06-.12-.09-.26-.09-.4,0-.14,.03-.28,.09-.41,.06-.13,.14-.24,.24-.33,.11-.1,.23-.17,.37-.22,.15-.05,.31-.08,.46-.08,.14,0,.28,.01,.42,.04,.09,.02,.18,.05,.27,.09,.06,.02,.12,.05,.17,.09,.03,.02,.06,.04,.1,.04,.01,0,.03,0,.04,0l.03-.03,.05,.03-.27,.39-.05-.03s.02-.03,.02-.05c0-.03-.03-.06-.06-.08-.05-.04-.1-.07-.16-.1-.08-.04-.16-.06-.25-.08-.1-.02-.2-.03-.31-.03-.13,0-.26,.02-.38,.06-.1,.03-.19,.09-.27,.17-.07,.07-.12,.15-.15,.24-.03,.09-.05,.18-.05,.28,0,.11,.02,.23,.07,.33,.04,.09,.11,.17,.18,.24,.08,.07,.17,.12,.27,.15,.1,.03,.2,.05,.3,.05,.16,0,.31-.02,.46-.06,.12-.03,.24-.09,.34-.16v-.28h-.45c-.09,0-.14,.03-.14,.08"/>
  <path id="path14" class="cls-1" d="M37.3,26.88s-.05-.03-.07-.02v-.04h1.65s.09,0,.13-.02c.02-.01,.03-.03,.03-.06h.05v.43h-.05s-.01-.06-.03-.08c-.04-.02-.08-.03-.12-.03h-1.23v.6h.8s.08,0,.11-.02c.03-.01,.05-.05,.05-.08h.05v.46h-.05s0-.06-.04-.08c-.04-.02-.08-.03-.12-.02h-.82v.64h1.33s.09,0,.12-.03c.03-.03,.04-.06,.04-.1h.05v.45h-.05s-.05-.07-.14-.07h-1.76v-.04s.05,0,.07-.02c.01-.02,.02-.04,.02-.07v-1.71s0-.05-.02-.07"/>
  <path id="path16" class="cls-1" d="M42.14,28.3v-1.35s0-.05-.02-.07c-.02-.02-.05-.03-.08-.02v-.04h.47v.05s-.05,0-.07,.02c-.01,.02-.02,.04-.02,.07v1.71s0,.05,.02,.07c.02,.02,.05,.03,.07,.02v.03h-.5v-.04c.05,0,.08,0,.08-.03,0-.02,0-.03-.02-.04l-.02-.03-1.4-1.53v1.54s0,.05,.02,.07c.02,.02,.05,.03,.07,.02v.04h-.47v-.04s.05,0,.07-.02c.01-.02,.02-.04,.02-.07v-1.71s0-.05-.02-.07c-.02-.02-.05-.03-.07-.02v-.04h.67v.06s-.04,0-.06,0c-.01,0-.02,.02-.02,.03,0,0,0,.02,0,.02l.02,.02,1.24,1.35h.02Z"/>
  <path id="path18" class="cls-1" d="M43.78,26.88s-.05-.03-.08-.02v-.04h1.65s.09,0,.13-.02c.02-.01,.03-.04,.03-.06h.05v.43h-.05s-.01-.06-.03-.08c-.04-.02-.08-.03-.12-.03h-1.23v.6h.8s.08,0,.12-.02c.03-.01,.05-.05,.05-.08h.05v.46h-.05s-.01-.06-.04-.08c-.04-.02-.08-.03-.12-.02h-.82v.64h1.31s.08,0,.12-.03c.03-.03,.04-.06,.04-.1h.05v.45h-.05s-.05-.07-.14-.07h-1.76v-.04s.06,0,.08-.02c.01-.02,.02-.04,.02-.07v-1.71s0-.05-.02-.07"/>
  <path id="path20" class="cls-1" d="M47.19,28.73s.05,.03,.08,.02v.03h-.52v-.04s.06,0,.08-.02c.01-.02,.02-.04,.02-.07v-1.72s0-.05-.02-.07c-.02-.02-.05-.03-.08-.02v-.04h1.32c.2-.02,.39,.03,.56,.14,.12,.1,.18,.25,.17,.41,0,.14-.04,.27-.13,.38-.12,.11-.27,.17-.43,.18l.5,.74s.04,.06,.07,.08c.03,.01,.05,.02,.08,.02v.05h-.57v-.04s.04,0,.07,0c.01,0,.02-.02,.01-.03,0-.02,0-.03-.02-.04l-.48-.74h-.73v.72s0,.05,.02,.07m.84-1.05c.12,.01,.24-.02,.34-.09,.07-.06,.1-.15,.1-.24,0-.04,0-.09-.02-.13-.01-.04-.04-.07-.07-.09-.04-.03-.09-.05-.14-.05-.07-.01-.15-.02-.23-.02h-.84v.62h.86Z"/>
  <path id="path22" class="cls-1" d="M50.17,28.58l-.04,.08s-.02,.04-.02,.06c0,.03,.02,.04,.07,.04v.03h-.48v-.04h.04s.03-.01,.04-.02c.01-.02,.02-.04,.04-.06l.05-.1,.71-1.53s.04-.08,.05-.1c0-.02,.01-.03,.01-.05,0-.03-.02-.05-.07-.05v-.04h.58v.06s-.06,.01-.06,.05c0,.02,0,.04,.02,.06,.01,.02,.03,.06,.05,.1l.76,1.5s.04,.08,.05,.1c.01,.02,.02,.04,.04,.06,0,.01,.02,.02,.04,.02h.06v.04h-.54v-.04s.04,0,.06,0c.01-.01,.02-.02,.01-.04,0-.01,0-.03,0-.04,0,0-.02-.04-.04-.09l-.15-.3h-1.11l-.15,.3Zm1.12-.55l-.45-.89-.41,.89h.86Z"/>
  <path id="path24" class="cls-1" d="M53.03,27.06s-.07,0-.11,.02c-.02,.02-.03,.05-.03,.08h-.05v-.45h.05c0,.07,.05,.1,.14,.1h1.73v.03l-1.36,1.71h1.18c.09,0,.14-.04,.14-.1h.05v.44h-.04s0-.06-.03-.07c-.03-.01-.07-.02-.11-.01h-1.73v-.04l1.32-1.7h-1.15Z"/>
  <path id="path26" class="cls-1" d="M55.8,28.75s.05,0,.07-.02c.01-.02,.02-.04,.02-.07v-1.72s0-.05-.02-.07c-.02-.02-.05-.03-.07-.02v-.04h.52v.05s-.05,0-.07,.02c-.01,.02-.02,.04-.02,.07v1.72s0,.05,.02,.07c.02,.02,.05,.03,.07,.02v.03h-.52v-.04h0Z"/>
  <path id="path28" class="cls-1" d="M59,26.86c.14,.04,.27,.11,.38,.2,.1,.09,.19,.19,.25,.32,.12,.28,.12,.59,0,.87-.06,.12-.14,.23-.25,.32-.11,.09-.24,.15-.38,.19-.31,.08-.64,.08-.95,0-.14-.04-.26-.1-.37-.19-.1-.09-.19-.2-.24-.32-.12-.28-.12-.59,0-.87,.06-.12,.14-.23,.25-.32,.11-.09,.24-.16,.37-.2,.31-.09,.64-.09,.95,0m-1.09,.39c-.28,.31-.28,.79,0,1.1,.37,.27,.87,.27,1.24,0,.29-.31,.29-.79,0-1.1-.37-.27-.87-.27-1.24,0"/>
  <path id="path30" class="cls-1" d="M62.62,28.3v-1.35s0-.05-.02-.07c-.02-.02-.05-.03-.08-.02v-.04h.47v.05s-.05,0-.07,.02c-.01,.02-.02,.04-.02,.07v1.71s0,.05,.02,.07c.02,.02,.05,.03,.07,.02v.03h-.5v-.04c.05,0,.08,0,.08-.03,0-.02,0-.03-.01-.04l-.02-.03-1.4-1.53v1.54s0,.05,.02,.07c.02,.02,.05,.03,.08,.02v.04h-.48v-.04s.06,0,.08-.02c.01-.02,.02-.04,.02-.07v-1.71s0-.05-.02-.07c-.02-.02-.05-.03-.08-.02v-.04h.67v.06s-.04,0-.06,0c-.01,0-.02,.02-.01,.03,0,0,0,.02,0,.02l.02,.02,1.24,1.35h.02Z"/>
  <path id="path32" class="cls-1" d="M64.2,28.75s.05,0,.07-.02c.01-.02,.02-.04,.02-.07v-1.72s0-.05-.02-.07c-.02-.02-.05-.03-.07-.02v-.04h.52v.05s-.06,0-.08,.02c-.01,.02-.02,.04-.02,.07v1.72s0,.05,.02,.07c.02,.02,.05,.03,.08,.02v.03h-.52v-.04h0Z"/>
  <rect id="rect34" class="cls-1" x="6.06" y="28.03" width="19.23" height=".16"/>
  <rect id="rect36" class="cls-1" x="65.53" y="28.03" width="19.23" height=".16"/>
  <path id="path54" class="cls-1" d="M40.7,13.89l.14,.13v-.13h-.14Z"/>
  <polygon id="polygon56" class="cls-1" points="42.89 22.35 40.7 22.35 40.84 22.48 43.02 22.48 43.02 22.06 42.89 21.92 42.89 22.35"/>
  <polygon id="polygon58" class="cls-1" points="43.02 13.6 42.89 13.46 42.89 13.89 42.43 13.89 42.43 21.59 42.56 21.59 42.56 14.02 43.02 14.02 43.02 13.6"/>
  <path id="path60" class="cls-1" d="M85.67,13.89l.14,.13v-.13h-.14Z"/>
  <polygon id="polygon62" class="cls-1" points="87.87 22.35 85.67 22.35 85.82 22.48 88 22.48 88 22.06 87.87 21.92 87.87 22.35"/>
  <polygon id="polygon64" class="cls-1" points="87.54 14.02 88 14.02 88 13.84 88 13.64 88 13.6 87.87 13.46 87.87 13.61 87.87 13.89 87.59 13.89 87.41 13.89 87.41 21.59 87.54 21.59 87.54 14.02"/>
  <polygon id="polygon66" class="cls-1" points="17.06 15.48 16.93 15.33 16.93 21.59 17.06 21.59 17.06 15.48"/>
  <polygon id="polygon68" class="cls-1" points="22.86 14.02 22.9 14.02 22.92 14.02 22.92 13.89 22.72 13.89 22.86 14.02"/>
  <polygon id="polygon70" class="cls-1" points="15.64 14.01 15.64 13.88 15.44 13.88 15.58 14.01 15.64 14.01"/>
  <polygon id="polygon72" class="cls-1" points="17.45 22.35 15.44 22.35 15.58 22.48 17.58 22.48 17.58 22.06 17.45 21.92 17.45 22.35"/>
  <polygon id="polygon74" class="cls-1" points="23.14 22.47 24.46 22.47 24.43 14.02 24.95 14.02 24.95 13.6 24.82 13.47 24.82 13.89 24.3 13.89 24.33 22.34 23.03 22.34 23.14 22.47"/>
  <polygon id="polygon76" class="cls-1" points="49.06 15.48 48.93 15.33 48.93 21.59 49.06 21.59 49.06 15.48"/>
  <polygon id="polygon78" class="cls-1" points="47.64 14.01 47.64 13.88 47.44 13.88 47.58 14.01 47.64 14.01"/>
  <polygon id="polygon80" class="cls-1" points="54.86 14.02 54.9 14.02 54.92 14.02 54.92 13.89 54.72 13.89 54.86 14.02"/>
  <polygon id="polygon82" class="cls-1" points="55.14 22.47 56.46 22.47 56.43 14.02 56.95 14.02 56.95 13.6 56.82 13.47 56.82 13.89 56.3 13.89 56.33 22.34 55.03 22.34 55.14 22.47"/>
  <polygon id="polygon84" class="cls-1" points="49.45 22.35 47.44 22.35 47.58 22.48 49.58 22.48 49.58 22.06 49.45 21.92 49.45 22.35"/>
  <polygon id="polygon86" class="cls-1" points="36.02 14.55 36.02 14.43 36.02 14.42 33.51 14.42 33.51 21.59 33.64 21.59 33.64 14.55 36.02 14.55"/>
  <polygon id="polygon88" class="cls-1" points="31.77 14.55 31.77 14.42 29.26 14.42 29.26 14.71 28.85 14.71 28.99 14.84 29.39 14.84 29.39 14.55 31.77 14.55"/>
  <polygon id="polygon90" class="cls-1" points="33.98 22.34 31.65 22.34 31.8 22.47 34.11 22.47 34.11 22.05 33.98 21.92 33.98 22.34"/>
  <polygon id="polygon92" class="cls-1" points="36.76 14.71 36.35 14.71 36.5 14.84 36.89 14.84 36.89 13.3 36.76 13.16 36.76 14.71"/>
  <polygon id="polygon94" class="cls-1" points="5.04 18.88 5.26 18.88 6.88 15.2 6.77 14.94 5.04 18.88"/>
  <polygon id="polygon96" class="cls-1" points="7.93 13.29 7.81 13.29 11.49 21.57 11.61 21.57 7.93 13.29"/>
  <path id="path98" class="cls-1" d="M8.81,19.9H4.6s-.66,1.61-.68,1.68h.21l.02-.05,.61-1.5h4.11l-.06-.13"/>
  <polygon id="polygon100" class="cls-1" points="11.94 22.34 9.62 22.34 9.77 22.47 12.07 22.47 12.07 22.05 11.94 21.91 11.94 22.34"/>
  <polygon id="polygon102" class="cls-1" points="4.28 22.34 2.68 22.34 2.81 22.47 4.41 22.47 4.41 22.03 4.28 21.91 4.28 22.34"/>
  <path id="path104" class="cls-1" d="M62.29,15.22c-.63,.69-.97,1.59-.97,2.52,0,.63,.16,1.24,.47,1.78-.22-.49-.34-1.01-.34-1.55,0-1.99,1.52-3.68,3.43-3.69,.46,0,.91,.1,1.33,.29-.47-.28-1.01-.43-1.56-.42-.9,0-1.75,.39-2.35,1.06"/>
  <path id="path106" class="cls-1" d="M69.27,15.78c.82,1.8,.41,3.93-1.02,5.28-1,.88-2.28,1.35-3.6,1.32h0c-.83,0-1.65-.17-2.4-.52,.81,.44,1.72,.66,2.64,.65,1.3,.03,2.56-.43,3.53-1.29,1.48-1.4,1.84-3.64,.86-5.43"/>
  <path id="path108" class="cls-1" d="M72.69,13.88l.14,.13v-.13h-.14Z"/>
  <path id="path110" class="cls-1" d="M74.65,14.53h2.9c.46-.02,.92,.06,1.36,.22-.48-.26-1.03-.38-1.58-.35h-2.8v2.77h.13v-2.64Z"/>
  <path id="path112" class="cls-1" d="M79.91,18.5c.08,.14,.14,.29,.2,.45h0l.82,2.63h.11l-.75-2.37c-.08-.26-.21-.51-.39-.72"/>
  <path id="path114" class="cls-1" d="M77.48,18.45h-2.96v3.13h.13v-2.99h3.06c.05,0,.1,.02,.15,.03-.11-.09-.25-.14-.39-.16"/>
  <polygon id="polygon116" class="cls-1" points="81.54 22.34 79.61 22.34 79.79 22.48 81.67 22.48 81.67 22.05 81.54 21.92 81.54 22.34"/>
  <path id="path118" class="cls-1" d="M80.98,15.78c.01,.64-.22,1.26-.64,1.73-.21,.23-.47,.42-.74,.57,.06,.05,.11,.1,.15,.16,1.23-.63,1.72-2.14,1.1-3.39-.02-.05-.05-.09-.07-.13,.14,.33,.21,.69,.21,1.06"/>
  <polygon id="polygon120" class="cls-1" points="74.98 22.34 72.69 22.34 72.83 22.47 75.11 22.47 75.11 22.05 74.98 21.92 74.98 22.34"/>
  <polygon id="polygon122" class="cls-1" points="42.61 21.87 42.15 21.87 42.15 13.61 42.61 13.61 42.61 13.41 40.64 13.41 40.64 13.61 41.12 13.61 41.12 21.87 40.64 21.87 40.64 22.07 42.61 22.07 42.61 21.87"/>
  <polygon id="polygon124" class="cls-1" points="85.62 21.87 85.62 22.07 87.59 22.07 87.59 21.87 87.13 21.87 87.13 13.61 87.59 13.61 87.59 13.41 85.62 13.41 85.62 13.61 86.1 13.61 86.1 21.87 85.62 21.87"/>
  <path id="path126" class="cls-1" d="M22.67,13.61h.54v6.76s-5.89-6.93-5.88-6.96h-1.93v.2h.54v8.27h-.54v.2h1.78v-.2h-.52v-7.31l6.35,7.49h1.05l-.03-8.45h.52v-.2h-1.88v.2Z"/>
  <path id="path128" class="cls-1" d="M54.66,13.61h.54v6.76s-5.88-6.93-5.88-6.96h-1.93v.2h.54v8.27h-.54v.2h1.78v-.2h-.52v-7.31l6.34,7.49h1.05l-.03-8.45h.52v-.2h-1.88v.2h0Z"/>
  <polygon id="polygon130" class="cls-1" points="28.98 14.13 32.05 14.13 32.05 21.87 31.6 21.87 31.6 22.06 33.7 22.06 33.7 21.87 33.23 21.87 33.23 14.13 36.3 14.13 36.3 14.43 36.48 14.43 36.48 13.11 36.3 13.11 36.3 13.41 28.98 13.41 28.98 13.11 28.79 13.11 28.79 14.43 28.98 14.43 28.98 14.13"/>
  <path id="path132" class="cls-1" d="M11.3,21.85l-3.83-8.62h-.7l-3.67,8.39c-.04,.08-.07,.15-.11,.23h-.38v.2h1.36v-.2h-.43c.04-.22,.1-.43,.2-.63l.65-1.61h4.59l.74,1.65c.09,.18,.14,.38,.16,.58h-.33v.2h2.09v-.2h-.36m-6.67-2.69l2.17-4.94,1.98,4.94H4.61Z"/>
  <path id="path134" class="cls-1" d="M64.65,13.3c-2.63,0-4.76,1.85-4.76,4.41s2.01,4.41,4.76,4.41,4.75-1.87,4.75-4.42-2.13-4.41-4.76-4.41m0,8.27c-1.96,0-3.61-1.75-3.61-3.82s1.59-3.86,3.61-3.86,3.61,1.79,3.61,3.86-1.65,3.82-3.61,3.82"/>
  <path id="path136" class="cls-1" d="M79.84,19.04c-.15-.42-.34-.85-.9-.98h-.03c.86-.25,1.78-.93,1.78-2.27,0-1.69-1.42-2.37-2.99-2.37h-5.08v.19h.47v8.26h-.47v.2h2.06v-.2h-.45v-3.7h3.26c.3,.03,.84,.25,1.11,1.08l.94,2.81h1.71v-.2h-.54l-.87-2.82Zm-2.54-1.59h-3.06v-3.33h3.06c1.79,0,2.41,.74,2.41,1.73s-.71,1.6-2.41,1.6"/>
</svg>