<svg width="51" height="25" viewBox="0 0 51 25" fill="none" xmlns="http://www.w3.org/2000/svg">
<path d="M49.5458 11.8467C49.134 11.5492 48.7654 11.4156 47.8017 11.3164L40.769 11.0685C40.3205 11.0361 39.9238 11.0189 39.6091 10.62C39.4814 10.4786 39.4101 10.2953 39.4086 10.1047C39.4189 9.91147 39.489 9.72617 39.6091 9.57438C39.8915 9.20786 40.3033 9.19278 40.7539 9.17553C41.4308 9.16044 42.0927 9.12594 42.7761 9.12594C43.6385 9.12594 44.5182 9.16044 45.3805 9.20787C46.3248 9.31135 46.4908 9.42346 46.7086 10.3203L50.2594 10.3376C50.2918 9.30704 50.2918 8.26356 49.479 7.51761C49.0016 7.10326 48.4132 6.83792 47.7866 6.7544L47.1398 6.65091C45.7298 6.58408 44.3198 6.5 42.912 6.5C41.6356 6.5 40.3593 6.54958 39.0808 6.60348C38.1042 6.72206 37.2052 6.83632 36.5261 7.56719C36.3219 7.78464 36.159 8.03741 36.0453 8.31315C35.7456 9.06127 35.7456 10.3376 35.7456 10.4195C35.7456 11.6139 36.0776 12.3275 36.442 12.7264C36.8761 13.1597 37.4433 13.4346 38.0525 13.5068C38.2185 13.5392 38.4017 13.5564 38.5677 13.5888C39.1153 13.6211 39.663 13.6728 40.2106 13.7052C41.9181 13.8087 43.6428 13.8194 45.3654 13.8539C46.1955 13.9704 46.5598 13.9574 46.8401 14.352C46.9477 14.5024 47.0064 14.6823 47.0083 14.8672C46.9953 15.0671 46.9238 15.2588 46.8027 15.4182C46.6815 15.5777 46.5161 15.698 46.327 15.7641C46.0045 15.8611 45.6664 15.8955 45.3309 15.8654C44.5203 15.8827 43.7226 15.9172 42.9271 15.8999C42.1789 15.8827 41.4502 15.8503 40.7043 15.8158C39.9583 15.7813 39.5918 15.6002 39.4581 15.2208C39.3866 15.0012 39.3588 14.7698 39.3762 14.5395L35.7111 14.518C35.7111 15.3954 35.6939 16.7084 36.3579 17.4199C36.94 18.0516 37.8218 18.2003 38.6001 18.3167C40.1761 18.4008 41.7348 18.5 43.2957 18.5C44.7381 18.5 46.1631 18.4332 47.6076 18.3512C48.3385 18.2348 49.0521 18.1184 49.5976 17.7195C49.7833 17.5795 49.9462 17.4115 50.0805 17.2215C50.4448 16.7062 50.6777 16.0767 50.6777 14.7486C50.6777 13.039 50.1452 12.2736 49.5501 11.8446M29.3683 10.9326H21.6759V6.65523H18.1444V18.3663H21.6759V13.8087H29.364V18.3706H32.8976V6.65523H29.364L29.3683 10.9326ZM14.9062 10.2406C14.9065 9.76889 14.8139 9.30176 14.6336 8.86588C14.4534 8.42999 14.1891 8.03387 13.8557 7.70014C13.5224 7.36641 13.1266 7.10161 12.6909 6.92084C12.2553 6.74007 11.7882 6.64689 11.3166 6.6466H0V18.3599H11.5947C12.558 18.3363 13.4741 17.9375 14.1478 17.2485C14.8215 16.5595 15.1996 15.6347 15.2016 14.671C15.2025 13.7751 14.8482 12.9153 14.2163 12.2801C14.6628 11.6958 14.9039 10.9803 14.9019 10.2449C14.9 9.50947 14.9062 10.2406 14.9062 10.2406ZM3.53144 9.21434H10.3033C10.4378 9.21009 10.5718 9.23237 10.6976 9.27991C10.8235 9.32745 10.9388 9.39932 11.0369 9.49142C11.135 9.58351 11.214 9.69402 11.2694 9.81664C11.3247 9.93926 11.3554 10.0716 11.3597 10.2061C11.3639 10.3406 11.3416 10.4746 11.2941 10.6004C11.2466 10.7263 11.1747 10.8416 11.0826 10.9397C10.9905 11.0378 10.88 11.1168 10.7574 11.1722C10.6348 11.2275 10.5024 11.2582 10.3679 11.2625H3.52713L3.53144 9.21434ZM10.5275 15.7274H3.52713V13.5931H10.5232C10.8056 13.5931 11.0765 13.7053 11.2763 13.905C11.476 14.1047 11.5882 14.3756 11.5882 14.6581C11.5882 14.9406 11.476 15.2115 11.2763 15.4112C11.0765 15.6109 10.8056 15.7231 10.5232 15.7231L10.5275 15.7274Z" fill="#777777"/>
</svg>
