<svg width="413" height="64" viewBox="0 0 413 64" fill="none" xmlns="http://www.w3.org/2000/svg">
<path d="M5.424 25.692C4.00533 25.692 2.90133 25.212 2.112 24.252C1.32267 23.2813 0.928 21.8573 0.928 19.98C0.928 18.1027 1.32267 16.6627 2.112 15.66C2.90133 14.6467 4.00533 14.14 5.424 14.14C6.36267 14.14 7.14667 14.3533 7.776 14.78C8.416 15.2067 8.912 15.8093 9.264 16.588L8.176 17.244C7.952 16.668 7.61067 16.2093 7.152 15.868C6.69333 15.516 6.11733 15.34 5.424 15.34C4.944 15.34 4.512 15.4307 4.128 15.612C3.75467 15.7933 3.43467 16.0547 3.168 16.396C2.912 16.7267 2.71467 17.1267 2.576 17.596C2.43733 18.0547 2.368 18.572 2.368 19.148V20.812C2.368 21.964 2.63467 22.8653 3.168 23.516C3.70133 24.1667 4.45333 24.492 5.424 24.492C6.13867 24.492 6.736 24.3107 7.216 23.948C7.696 23.5747 8.048 23.084 8.272 22.476L9.344 23.148C8.992 23.9373 8.48533 24.5613 7.824 25.02C7.16267 25.468 6.36267 25.692 5.424 25.692ZM11.2975 13.66H12.5775V18.588H12.6415C12.8442 18.1187 13.1268 17.7453 13.4895 17.468C13.8628 17.1907 14.3588 17.052 14.9775 17.052C15.8308 17.052 16.5028 17.3293 16.9935 17.884C17.4948 18.428 17.7455 19.2013 17.7455 20.204V25.5H16.4655V20.428C16.4655 18.9453 15.8415 18.204 14.5935 18.204C14.3375 18.204 14.0868 18.236 13.8415 18.3C13.6068 18.364 13.3935 18.46 13.2015 18.588C13.0095 18.716 12.8548 18.8813 12.7375 19.084C12.6308 19.276 12.5775 19.5053 12.5775 19.772V25.5H11.2975V13.66ZM20.3913 25.5V17.244H21.6713V18.764H21.7513C21.9006 18.3693 22.1673 18.0173 22.5513 17.708C22.9353 17.3987 23.4633 17.244 24.1353 17.244H24.6313V18.524H23.8793C23.1859 18.524 22.6419 18.6573 22.2473 18.924C21.8633 19.18 21.6713 19.5053 21.6713 19.9V25.5H20.3913ZM26.9062 15.308C26.6289 15.308 26.4263 15.244 26.2983 15.116C26.1809 14.9773 26.1223 14.8013 26.1223 14.588V14.38C26.1223 14.1667 26.1809 13.996 26.2983 13.868C26.4263 13.7293 26.6289 13.66 26.9062 13.66C27.1836 13.66 27.3809 13.7293 27.4983 13.868C27.6263 13.996 27.6903 14.1667 27.6903 14.38V14.588C27.6903 14.8013 27.6263 14.9773 27.4983 15.116C27.3809 15.244 27.1836 15.308 26.9062 15.308ZM26.2663 17.244H27.5463V25.5H26.2663V17.244ZM32.7463 25.692C31.9783 25.692 31.3329 25.548 30.8103 25.26C30.2983 24.9613 29.8556 24.5667 29.4823 24.076L30.3943 23.34C30.7143 23.7453 31.0716 24.06 31.4663 24.284C31.8609 24.4973 32.3196 24.604 32.8423 24.604C33.3863 24.604 33.8076 24.4867 34.1063 24.252C34.4156 24.0173 34.5703 23.6867 34.5703 23.26C34.5703 22.94 34.4636 22.668 34.2503 22.444C34.0476 22.2093 33.6743 22.0493 33.1302 21.964L32.4743 21.868C32.0903 21.8147 31.7383 21.7347 31.4183 21.628C31.0983 21.5107 30.8156 21.3613 30.5703 21.18C30.3356 20.988 30.1489 20.7533 30.0103 20.476C29.8823 20.1987 29.8183 19.868 29.8183 19.484C29.8183 19.0787 29.8929 18.7267 30.0423 18.428C30.1916 18.1187 30.3943 17.8627 30.6503 17.66C30.9169 17.4573 31.2316 17.308 31.5943 17.212C31.9569 17.1053 32.3463 17.052 32.7623 17.052C33.4343 17.052 33.9943 17.1693 34.4423 17.404C34.9009 17.6387 35.3009 17.964 35.6423 18.38L34.7943 19.148C34.6129 18.892 34.3463 18.6627 33.9943 18.46C33.6423 18.2467 33.1996 18.14 32.6663 18.14C32.1329 18.14 31.7276 18.2573 31.4503 18.492C31.1836 18.716 31.0503 19.0253 31.0503 19.42C31.0503 19.8253 31.1836 20.1187 31.4503 20.3C31.7276 20.4813 32.1223 20.6147 32.6343 20.7L33.2743 20.796C34.1916 20.9347 34.8423 21.2013 35.2263 21.596C35.6103 21.98 35.8023 22.4867 35.8023 23.116C35.8023 23.916 35.5303 24.5453 34.9863 25.004C34.4423 25.4627 33.6956 25.692 32.7463 25.692ZM39.7778 25.5C39.3298 25.5 38.9884 25.3773 38.7538 25.132C38.5298 24.876 38.4178 24.5453 38.4178 24.14V18.364H37.0578V17.244H37.8258C38.1031 17.244 38.2898 17.1907 38.3858 17.084C38.4924 16.9667 38.5458 16.7693 38.5458 16.492V14.956H39.6978V17.244H41.5058V18.364H39.6978V24.38H41.3778V25.5H39.7778ZM46.6206 25.692C46.066 25.692 45.5593 25.5907 45.1006 25.388C44.642 25.1853 44.2473 24.8973 43.9166 24.524C43.5966 24.14 43.346 23.6867 43.1646 23.164C42.9833 22.6307 42.8926 22.0333 42.8926 21.372C42.8926 20.7213 42.9833 20.1293 43.1646 19.596C43.346 19.0627 43.5966 18.6093 43.9166 18.236C44.2473 17.852 44.642 17.5587 45.1006 17.356C45.5593 17.1533 46.066 17.052 46.6206 17.052C47.1753 17.052 47.6766 17.1533 48.1246 17.356C48.5833 17.5587 48.978 17.852 49.3086 18.236C49.6393 18.6093 49.8953 19.0627 50.0766 19.596C50.258 20.1293 50.3486 20.7213 50.3486 21.372C50.3486 22.0333 50.258 22.6307 50.0766 23.164C49.8953 23.6867 49.6393 24.14 49.3086 24.524C48.978 24.8973 48.5833 25.1853 48.1246 25.388C47.6766 25.5907 47.1753 25.692 46.6206 25.692ZM46.6206 24.556C47.314 24.556 47.8793 24.3427 48.3166 23.916C48.754 23.4893 48.9726 22.8387 48.9726 21.964V20.78C48.9726 19.9053 48.754 19.2547 48.3166 18.828C47.8793 18.4013 47.314 18.188 46.6206 18.188C45.9273 18.188 45.362 18.4013 44.9246 18.828C44.4873 19.2547 44.2686 19.9053 44.2686 20.78V21.964C44.2686 22.8387 44.4873 23.4893 44.9246 23.916C45.362 24.3427 45.9273 24.556 46.6206 24.556ZM52.4538 17.244H53.7338V18.588H53.7978C54.0111 18.0653 54.3204 17.6813 54.7258 17.436C55.1418 17.18 55.6378 17.052 56.2138 17.052C56.7258 17.052 57.1898 17.1533 57.6058 17.356C58.0218 17.5587 58.3738 17.8467 58.6618 18.22C58.9604 18.5933 59.1844 19.0467 59.3338 19.58C59.4938 20.1133 59.5738 20.7107 59.5738 21.372C59.5738 22.0333 59.4938 22.6307 59.3338 23.164C59.1844 23.6973 58.9604 24.1507 58.6618 24.524C58.3738 24.8973 58.0218 25.1853 57.6058 25.388C57.1898 25.5907 56.7258 25.692 56.2138 25.692C55.0938 25.692 54.2884 25.18 53.7978 24.156H53.7338V28.7H52.4538V17.244ZM55.8618 24.54C56.5871 24.54 57.1578 24.316 57.5738 23.868C57.9898 23.4093 58.1978 22.812 58.1978 22.076V20.668C58.1978 19.932 57.9898 19.34 57.5738 18.892C57.1578 18.4333 56.5871 18.204 55.8618 18.204C55.5738 18.204 55.2964 18.2467 55.0298 18.332C54.7738 18.4067 54.5498 18.5133 54.3578 18.652C54.1658 18.7907 54.0111 18.9613 53.8938 19.164C53.7871 19.356 53.7338 19.564 53.7338 19.788V22.86C53.7338 23.1267 53.7871 23.3667 53.8938 23.58C54.0111 23.7827 54.1658 23.9587 54.3578 24.108C54.5498 24.2467 54.7738 24.3533 55.0298 24.428C55.2964 24.5027 55.5738 24.54 55.8618 24.54ZM61.735 13.66H63.015V18.588H63.079C63.2817 18.1187 63.5643 17.7453 63.927 17.468C64.3003 17.1907 64.7963 17.052 65.415 17.052C66.2683 17.052 66.9403 17.3293 67.431 17.884C67.9323 18.428 68.183 19.2013 68.183 20.204V25.5H66.903V20.428C66.903 18.9453 66.279 18.204 65.031 18.204C64.775 18.204 64.5243 18.236 64.279 18.3C64.0443 18.364 63.831 18.46 63.639 18.588C63.447 18.716 63.2923 18.8813 63.175 19.084C63.0683 19.276 63.015 19.5053 63.015 19.772V25.5H61.735V13.66ZM73.9328 25.692C73.3674 25.692 72.8554 25.5907 72.3968 25.388C71.9488 25.1853 71.5594 24.8973 71.2288 24.524C70.9088 24.14 70.6581 23.6867 70.4768 23.164C70.3061 22.6307 70.2208 22.0333 70.2208 21.372C70.2208 20.7213 70.3061 20.1293 70.4768 19.596C70.6581 19.0627 70.9088 18.6093 71.2288 18.236C71.5594 17.852 71.9488 17.5587 72.3968 17.356C72.8554 17.1533 73.3674 17.052 73.9328 17.052C74.4874 17.052 74.9834 17.1533 75.4208 17.356C75.8581 17.5587 76.2314 17.8413 76.5408 18.204C76.8501 18.556 77.0848 18.9773 77.2448 19.468C77.4154 19.9587 77.5008 20.4973 77.5008 21.084V21.692H71.5648V22.076C71.5648 22.428 71.6181 22.7587 71.7248 23.068C71.8421 23.3667 72.0021 23.628 72.2048 23.852C72.4181 24.076 72.6741 24.252 72.9728 24.38C73.2821 24.508 73.6288 24.572 74.0128 24.572C74.5354 24.572 74.9888 24.4493 75.3728 24.204C75.7674 23.9587 76.0714 23.6067 76.2848 23.148L77.1968 23.804C76.9301 24.3693 76.5141 24.828 75.9488 25.18C75.3834 25.5213 74.7114 25.692 73.9328 25.692ZM73.9328 18.124C73.5808 18.124 73.2608 18.188 72.9728 18.316C72.6848 18.4333 72.4341 18.604 72.2208 18.828C72.0181 19.052 71.8581 19.3187 71.7408 19.628C71.6234 19.9267 71.5648 20.2573 71.5648 20.62V20.732H76.1248V20.556C76.1248 19.82 75.9221 19.2333 75.5168 18.796C75.1221 18.348 74.5941 18.124 73.9328 18.124ZM79.61 25.5V17.244H80.89V18.764H80.97C81.1193 18.3693 81.386 18.0173 81.77 17.708C82.154 17.3987 82.682 17.244 83.354 17.244H83.85V18.524H83.098C82.4047 18.524 81.8607 18.6573 81.466 18.924C81.082 19.18 80.89 19.5053 80.89 19.9V25.5H79.61ZM92.5303 25.692C91.6236 25.692 90.8503 25.5213 90.2103 25.18C89.5703 24.828 89.0263 24.348 88.5783 23.74L89.5703 22.908C89.9649 23.4307 90.4023 23.8307 90.8823 24.108C91.3623 24.3747 91.9276 24.508 92.5783 24.508C93.3783 24.508 93.9863 24.316 94.4023 23.932C94.8289 23.548 95.0423 23.036 95.0423 22.396C95.0423 21.8627 94.8823 21.452 94.5623 21.164C94.2423 20.876 93.7143 20.6467 92.9783 20.476L92.0663 20.268C91.0423 20.0333 90.2583 19.6813 89.7143 19.212C89.1809 18.732 88.9143 18.06 88.9143 17.196C88.9143 16.7053 89.0049 16.268 89.1863 15.884C89.3676 15.5 89.6183 15.18 89.9383 14.924C90.2689 14.668 90.6583 14.476 91.1063 14.348C91.5649 14.2093 92.0663 14.14 92.6102 14.14C93.4529 14.14 94.1729 14.2947 94.7703 14.604C95.3783 14.9133 95.8903 15.3667 96.3063 15.964L95.2983 16.7C94.9889 16.2733 94.6156 15.9373 94.1783 15.692C93.7409 15.4467 93.1969 15.324 92.5463 15.324C91.8316 15.324 91.2663 15.4787 90.8503 15.788C90.4449 16.0867 90.2423 16.54 90.2423 17.148C90.2423 17.6813 90.4129 18.0867 90.7543 18.364C91.1063 18.6307 91.6343 18.844 92.3383 19.004L93.2503 19.212C94.3489 19.4573 95.1436 19.8307 95.6343 20.332C96.1249 20.8333 96.3703 21.5 96.3703 22.332C96.3703 22.844 96.2796 23.308 96.0983 23.724C95.9276 24.14 95.6769 24.492 95.3463 24.78C95.0156 25.068 94.6103 25.292 94.1303 25.452C93.6609 25.612 93.1276 25.692 92.5303 25.692ZM100.387 25.5C99.9391 25.5 99.5978 25.3773 99.3631 25.132C99.1391 24.876 99.0271 24.5453 99.0271 24.14V18.364H97.6671V17.244H98.4351C98.7125 17.244 98.8991 17.1907 98.9951 17.084C99.1018 16.9667 99.1551 16.7693 99.1551 16.492V14.956H100.307V17.244H102.115V18.364H100.307V24.38H101.987V25.5H100.387ZM107.214 25.692C106.649 25.692 106.137 25.5907 105.678 25.388C105.23 25.1853 104.841 24.8973 104.51 24.524C104.19 24.14 103.939 23.6867 103.758 23.164C103.587 22.6307 103.502 22.0333 103.502 21.372C103.502 20.7213 103.587 20.1293 103.758 19.596C103.939 19.0627 104.19 18.6093 104.51 18.236C104.841 17.852 105.23 17.5587 105.678 17.356C106.137 17.1533 106.649 17.052 107.214 17.052C107.769 17.052 108.265 17.1533 108.702 17.356C109.139 17.5587 109.513 17.8413 109.822 18.204C110.131 18.556 110.366 18.9773 110.526 19.468C110.697 19.9587 110.782 20.4973 110.782 21.084V21.692H104.846V22.076C104.846 22.428 104.899 22.7587 105.006 23.068C105.123 23.3667 105.283 23.628 105.486 23.852C105.699 24.076 105.955 24.252 106.254 24.38C106.563 24.508 106.91 24.572 107.294 24.572C107.817 24.572 108.27 24.4493 108.654 24.204C109.049 23.9587 109.353 23.6067 109.566 23.148L110.478 23.804C110.211 24.3693 109.795 24.828 109.23 25.18C108.665 25.5213 107.993 25.692 107.214 25.692ZM107.214 18.124C106.862 18.124 106.542 18.188 106.254 18.316C105.966 18.4333 105.715 18.604 105.502 18.828C105.299 19.052 105.139 19.3187 105.022 19.628C104.905 19.9267 104.846 20.2573 104.846 20.62V20.732H109.406V20.556C109.406 19.82 109.203 19.2333 108.798 18.796C108.403 18.348 107.875 18.124 107.214 18.124ZM114.59 25.5L111.694 17.244H112.974L114.414 21.34L115.31 24.156H115.39L116.286 21.34L117.758 17.244H118.99L116.078 25.5H114.59ZM123.62 25.692C123.055 25.692 122.543 25.5907 122.084 25.388C121.636 25.1853 121.247 24.8973 120.916 24.524C120.596 24.14 120.346 23.6867 120.164 23.164C119.994 22.6307 119.908 22.0333 119.908 21.372C119.908 20.7213 119.994 20.1293 120.164 19.596C120.346 19.0627 120.596 18.6093 120.916 18.236C121.247 17.852 121.636 17.5587 122.084 17.356C122.543 17.1533 123.055 17.052 123.62 17.052C124.175 17.052 124.671 17.1533 125.108 17.356C125.546 17.5587 125.919 17.8413 126.228 18.204C126.538 18.556 126.772 18.9773 126.932 19.468C127.103 19.9587 127.188 20.4973 127.188 21.084V21.692H121.252V22.076C121.252 22.428 121.306 22.7587 121.412 23.068C121.53 23.3667 121.69 23.628 121.892 23.852C122.106 24.076 122.362 24.252 122.66 24.38C122.97 24.508 123.316 24.572 123.7 24.572C124.223 24.572 124.676 24.4493 125.06 24.204C125.455 23.9587 125.759 23.6067 125.972 23.148L126.884 23.804C126.618 24.3693 126.202 24.828 125.636 25.18C125.071 25.5213 124.399 25.692 123.62 25.692ZM123.62 18.124C123.268 18.124 122.948 18.188 122.66 18.316C122.372 18.4333 122.122 18.604 121.908 18.828C121.706 19.052 121.546 19.3187 121.428 19.628C121.311 19.9267 121.252 20.2573 121.252 20.62V20.732H125.812V20.556C125.812 19.82 125.61 19.2333 125.204 18.796C124.81 18.348 124.282 18.124 123.62 18.124ZM129.298 25.5V17.244H130.578V18.588H130.642C130.844 18.1187 131.127 17.7453 131.49 17.468C131.863 17.1907 132.359 17.052 132.978 17.052C133.831 17.052 134.503 17.3293 134.994 17.884C135.495 18.428 135.746 19.2013 135.746 20.204V25.5H134.466V20.428C134.466 18.9453 133.842 18.204 132.594 18.204C132.338 18.204 132.087 18.236 131.842 18.3C131.607 18.364 131.394 18.46 131.202 18.588C131.01 18.716 130.855 18.8813 130.738 19.084C130.631 19.276 130.578 19.5053 130.578 19.772V25.5H129.298ZM151.005 16.092H150.925L149.981 17.964L147.309 22.828L144.637 17.964L143.693 16.092H143.613V25.5H142.301V14.332H144.093L147.293 20.348H147.373L150.589 14.332H152.317V25.5H151.005V16.092ZM158.277 25.692C157.722 25.692 157.216 25.5907 156.757 25.388C156.298 25.1853 155.904 24.8973 155.573 24.524C155.253 24.14 155.002 23.6867 154.821 23.164C154.64 22.6307 154.549 22.0333 154.549 21.372C154.549 20.7213 154.64 20.1293 154.821 19.596C155.002 19.0627 155.253 18.6093 155.573 18.236C155.904 17.852 156.298 17.5587 156.757 17.356C157.216 17.1533 157.722 17.052 158.277 17.052C158.832 17.052 159.333 17.1533 159.781 17.356C160.24 17.5587 160.634 17.852 160.965 18.236C161.296 18.6093 161.552 19.0627 161.733 19.596C161.914 20.1293 162.005 20.7213 162.005 21.372C162.005 22.0333 161.914 22.6307 161.733 23.164C161.552 23.6867 161.296 24.14 160.965 24.524C160.634 24.8973 160.24 25.1853 159.781 25.388C159.333 25.5907 158.832 25.692 158.277 25.692ZM158.277 24.556C158.97 24.556 159.536 24.3427 159.973 23.916C160.41 23.4893 160.629 22.8387 160.629 21.964V20.78C160.629 19.9053 160.41 19.2547 159.973 18.828C159.536 18.4013 158.97 18.188 158.277 18.188C157.584 18.188 157.018 18.4013 156.581 18.828C156.144 19.2547 155.925 19.9053 155.925 20.78V21.964C155.925 22.8387 156.144 23.4893 156.581 23.916C157.018 24.3427 157.584 24.556 158.277 24.556ZM164.11 25.5V17.244H165.39V18.764H165.47C165.619 18.3693 165.886 18.0173 166.27 17.708C166.654 17.3987 167.182 17.244 167.854 17.244H168.35V18.524H167.598C166.905 18.524 166.361 18.6573 165.966 18.924C165.582 19.18 165.39 19.5053 165.39 19.9V25.5H164.11ZM173.011 25.692C172.446 25.692 171.934 25.5907 171.475 25.388C171.027 25.1853 170.638 24.8973 170.307 24.524C169.987 24.14 169.736 23.6867 169.555 23.164C169.384 22.6307 169.299 22.0333 169.299 21.372C169.299 20.7213 169.384 20.1293 169.555 19.596C169.736 19.0627 169.987 18.6093 170.307 18.236C170.638 17.852 171.027 17.5587 171.475 17.356C171.934 17.1533 172.446 17.052 173.011 17.052C173.566 17.052 174.062 17.1533 174.499 17.356C174.936 17.5587 175.31 17.8413 175.619 18.204C175.928 18.556 176.163 18.9773 176.323 19.468C176.494 19.9587 176.579 20.4973 176.579 21.084V21.692H170.643V22.076C170.643 22.428 170.696 22.7587 170.803 23.068C170.92 23.3667 171.08 23.628 171.283 23.852C171.496 24.076 171.752 24.252 172.051 24.38C172.36 24.508 172.707 24.572 173.091 24.572C173.614 24.572 174.067 24.4493 174.451 24.204C174.846 23.9587 175.15 23.6067 175.363 23.148L176.275 23.804C176.008 24.3693 175.592 24.828 175.027 25.18C174.462 25.5213 173.79 25.692 173.011 25.692ZM173.011 18.124C172.659 18.124 172.339 18.188 172.051 18.316C171.763 18.4333 171.512 18.604 171.299 18.828C171.096 19.052 170.936 19.3187 170.819 19.628C170.702 19.9267 170.643 20.2573 170.643 20.62V20.732H175.203V20.556C175.203 19.82 175 19.2333 174.595 18.796C174.2 18.348 173.672 18.124 173.011 18.124ZM179.136 18.364H177.792V17.244H179.136V15.58C179.136 15.004 179.285 14.54 179.584 14.188C179.883 13.836 180.336 13.66 180.944 13.66H182.192V14.78H180.416V17.244H185.04V25.5H183.76V18.364H180.416V25.5H179.136V18.364ZM184.4 15.308C184.123 15.308 183.92 15.244 183.792 15.116C183.675 14.9773 183.616 14.8013 183.616 14.588V14.38C183.616 14.1667 183.675 13.996 183.792 13.868C183.92 13.7293 184.123 13.66 184.4 13.66C184.677 13.66 184.875 13.7293 184.992 13.868C185.12 13.996 185.184 14.1667 185.184 14.38V14.588C185.184 14.8013 185.12 14.9773 184.992 15.116C184.875 15.244 184.677 15.308 184.4 15.308ZM190.87 25.692C190.305 25.692 189.793 25.5907 189.334 25.388C188.886 25.1853 188.497 24.8973 188.166 24.524C187.846 24.14 187.596 23.6867 187.414 23.164C187.244 22.6307 187.158 22.0333 187.158 21.372C187.158 20.7213 187.244 20.1293 187.414 19.596C187.596 19.0627 187.846 18.6093 188.166 18.236C188.497 17.852 188.886 17.5587 189.334 17.356C189.793 17.1533 190.305 17.052 190.87 17.052C191.425 17.052 191.921 17.1533 192.358 17.356C192.796 17.5587 193.169 17.8413 193.478 18.204C193.788 18.556 194.022 18.9773 194.182 19.468C194.353 19.9587 194.438 20.4973 194.438 21.084V21.692H188.502V22.076C188.502 22.428 188.556 22.7587 188.662 23.068C188.78 23.3667 188.94 23.628 189.142 23.852C189.356 24.076 189.612 24.252 189.91 24.38C190.22 24.508 190.566 24.572 190.95 24.572C191.473 24.572 191.926 24.4493 192.31 24.204C192.705 23.9587 193.009 23.6067 193.222 23.148L194.134 23.804C193.868 24.3693 193.452 24.828 192.886 25.18C192.321 25.5213 191.649 25.692 190.87 25.692ZM190.87 18.124C190.518 18.124 190.198 18.188 189.91 18.316C189.622 18.4333 189.372 18.604 189.158 18.828C188.956 19.052 188.796 19.3187 188.678 19.628C188.561 19.9267 188.502 20.2573 188.502 20.62V20.732H193.062V20.556C193.062 19.82 192.86 19.2333 192.454 18.796C192.06 18.348 191.532 18.124 190.87 18.124ZM197.908 25.5C197.46 25.5 197.118 25.3773 196.884 25.132C196.66 24.876 196.548 24.556 196.548 24.172V13.66H197.828V24.38H199.044V25.5H197.908ZM206.187 24.156H206.123C205.622 25.18 204.816 25.692 203.707 25.692C203.195 25.692 202.731 25.5907 202.315 25.388C201.899 25.1853 201.542 24.8973 201.243 24.524C200.955 24.1507 200.731 23.6973 200.571 23.164C200.422 22.6307 200.347 22.0333 200.347 21.372C200.347 20.7107 200.422 20.1133 200.571 19.58C200.731 19.0467 200.955 18.5933 201.243 18.22C201.542 17.8467 201.899 17.5587 202.315 17.356C202.731 17.1533 203.195 17.052 203.707 17.052C204.283 17.052 204.774 17.18 205.179 17.436C205.595 17.6813 205.91 18.0653 206.123 18.588H206.187V13.66H207.467V25.5H206.187V24.156ZM204.059 24.54C204.347 24.54 204.619 24.5027 204.875 24.428C205.142 24.3533 205.371 24.2467 205.563 24.108C205.755 23.9587 205.904 23.7827 206.011 23.58C206.128 23.3667 206.187 23.1267 206.187 22.86V19.788C206.187 19.564 206.128 19.356 206.011 19.164C205.904 18.9613 205.755 18.7907 205.563 18.652C205.371 18.5133 205.142 18.4067 204.875 18.332C204.619 18.2467 204.347 18.204 204.059 18.204C203.334 18.204 202.763 18.4333 202.347 18.892C201.931 19.34 201.723 19.932 201.723 20.668V22.076C201.723 22.812 201.931 23.4093 202.347 23.868C202.763 24.316 203.334 24.54 204.059 24.54Z" fill="black"/>
<path d="M5.53711 46.3438C5.53711 46.1445 5.50586 45.9688 5.44336 45.8164C5.38477 45.6602 5.2793 45.5195 5.12695 45.3945C4.97852 45.2695 4.77148 45.1504 4.50586 45.0371C4.24414 44.9238 3.91211 44.8086 3.50977 44.6914C3.08789 44.5664 2.70703 44.4277 2.36719 44.2754C2.02734 44.1191 1.73633 43.9414 1.49414 43.7422C1.25195 43.543 1.06641 43.3145 0.9375 43.0566C0.808594 42.7988 0.744141 42.5039 0.744141 42.1719C0.744141 41.8398 0.8125 41.5332 0.949219 41.252C1.08594 40.9707 1.28125 40.7266 1.53516 40.5195C1.79297 40.3086 2.09961 40.1445 2.45508 40.0273C2.81055 39.9102 3.20703 39.8516 3.64453 39.8516C4.28516 39.8516 4.82812 39.9746 5.27344 40.2207C5.72266 40.4629 6.06445 40.7812 6.29883 41.1758C6.5332 41.5664 6.65039 41.9844 6.65039 42.4297H5.52539C5.52539 42.1094 5.45703 41.8262 5.32031 41.5801C5.18359 41.3301 4.97656 41.1348 4.69922 40.9941C4.42188 40.8496 4.07031 40.7773 3.64453 40.7773C3.24219 40.7773 2.91016 40.8379 2.64844 40.959C2.38672 41.0801 2.19141 41.2441 2.0625 41.4512C1.9375 41.6582 1.875 41.8945 1.875 42.1602C1.875 42.3398 1.91211 42.5039 1.98633 42.6523C2.06445 42.7969 2.18359 42.9316 2.34375 43.0566C2.50781 43.1816 2.71484 43.2969 2.96484 43.4023C3.21875 43.5078 3.52148 43.6094 3.87305 43.707C4.35742 43.8438 4.77539 43.9961 5.12695 44.1641C5.47852 44.332 5.76758 44.5215 5.99414 44.7324C6.22461 44.9395 6.39453 45.1758 6.50391 45.4414C6.61719 45.7031 6.67383 46 6.67383 46.332C6.67383 46.6797 6.60352 46.9941 6.46289 47.2754C6.32227 47.5566 6.12109 47.7969 5.85938 47.9961C5.59766 48.1953 5.2832 48.3496 4.91602 48.459C4.55273 48.5645 4.14648 48.6172 3.69727 48.6172C3.30273 48.6172 2.91406 48.5625 2.53125 48.4531C2.15234 48.3438 1.80664 48.1797 1.49414 47.9609C1.18555 47.7422 0.9375 47.4727 0.75 47.1523C0.566406 46.8281 0.474609 46.4531 0.474609 46.0273H1.59961C1.59961 46.3203 1.65625 46.5723 1.76953 46.7832C1.88281 46.9902 2.03711 47.1621 2.23242 47.2988C2.43164 47.4355 2.65625 47.5371 2.90625 47.6035C3.16016 47.666 3.42383 47.6973 3.69727 47.6973C4.0918 47.6973 4.42578 47.6426 4.69922 47.5332C4.97266 47.4238 5.17969 47.2676 5.32031 47.0645C5.46484 46.8613 5.53711 46.6211 5.53711 46.3438ZM13.5352 47.5801V48.5H9.01758V47.5801H13.5352ZM9.24609 39.9688V48.5H8.11523V39.9688H9.24609ZM12.9375 43.6367V44.5566H9.01758V43.6367H12.9375ZM13.4766 39.9688V40.8945H9.01758V39.9688H13.4766ZM21.498 39.9688V48.5H20.3613L16.0664 41.9199V48.5H14.9355V39.9688H16.0664L20.3789 46.5664V39.9688H21.498ZM24.7148 39.9688V48.5H23.584V39.9688H24.7148ZM33.3398 43.9648V44.5039C33.3398 45.1445 33.2598 45.7188 33.0996 46.2266C32.9395 46.7344 32.709 47.166 32.4082 47.5215C32.1074 47.877 31.7461 48.1484 31.3242 48.3359C30.9062 48.5234 30.4375 48.6172 29.918 48.6172C29.4141 48.6172 28.9512 48.5234 28.5293 48.3359C28.1113 48.1484 27.748 47.877 27.4395 47.5215C27.1348 47.166 26.8984 46.7344 26.7305 46.2266C26.5625 45.7188 26.4785 45.1445 26.4785 44.5039V43.9648C26.4785 43.3242 26.5605 42.752 26.7246 42.248C26.8926 41.7402 27.1289 41.3086 27.4336 40.9531C27.7383 40.5938 28.0996 40.3203 28.5176 40.1328C28.9395 39.9453 29.4023 39.8516 29.9062 39.8516C30.4258 39.8516 30.8945 39.9453 31.3125 40.1328C31.7344 40.3203 32.0957 40.5938 32.3965 40.9531C32.7012 41.3086 32.9336 41.7402 33.0938 42.248C33.2578 42.752 33.3398 43.3242 33.3398 43.9648ZM32.2207 44.5039V43.9531C32.2207 43.4453 32.168 42.9961 32.0625 42.6055C31.9609 42.2148 31.8105 41.8867 31.6113 41.6211C31.4121 41.3555 31.168 41.1543 30.8789 41.0176C30.5938 40.8809 30.2695 40.8125 29.9062 40.8125C29.5547 40.8125 29.2363 40.8809 28.9512 41.0176C28.6699 41.1543 28.4277 41.3555 28.2246 41.6211C28.0254 41.8867 27.8711 42.2148 27.7617 42.6055C27.6523 42.9961 27.5977 43.4453 27.5977 43.9531V44.5039C27.5977 45.0156 27.6523 45.4688 27.7617 45.8633C27.8711 46.2539 28.0273 46.584 28.2305 46.8535C28.4375 47.1191 28.6816 47.3203 28.9629 47.457C29.248 47.5938 29.5664 47.6621 29.918 47.6621C30.2852 47.6621 30.6113 47.5938 30.8965 47.457C31.1816 47.3203 31.4219 47.1191 31.6172 46.8535C31.8164 46.584 31.9668 46.2539 32.0684 45.8633C32.1699 45.4688 32.2207 45.0156 32.2207 44.5039ZM35.0332 39.9688H37.8574C38.498 39.9688 39.0391 40.0664 39.4805 40.2617C39.9258 40.457 40.2637 40.7461 40.4941 41.1289C40.7285 41.5078 40.8457 41.9746 40.8457 42.5293C40.8457 42.9199 40.7656 43.2773 40.6055 43.6016C40.4492 43.9219 40.2227 44.1953 39.9258 44.4219C39.6328 44.6445 39.2812 44.8105 38.8711 44.9199L38.5547 45.043H35.9004L35.8887 44.123H37.8926C38.2988 44.123 38.6367 44.0527 38.9062 43.9121C39.1758 43.7676 39.3789 43.5742 39.5156 43.332C39.6523 43.0898 39.7207 42.8223 39.7207 42.5293C39.7207 42.2012 39.6562 41.9141 39.5273 41.668C39.3984 41.4219 39.1953 41.2324 38.918 41.0996C38.6445 40.9629 38.291 40.8945 37.8574 40.8945H36.1641V48.5H35.0332V39.9688ZM40.0195 48.5L37.9453 44.6328L39.123 44.627L41.2266 48.4297V48.5H40.0195ZM48.4453 44.5098H46.2832L46.2715 43.6016H48.2344C48.5586 43.6016 48.8418 43.5469 49.084 43.4375C49.3262 43.3281 49.5137 43.1719 49.6465 42.9688C49.7832 42.7617 49.8516 42.5156 49.8516 42.2305C49.8516 41.918 49.791 41.6641 49.6699 41.4688C49.5527 41.2695 49.3711 41.125 49.125 41.0352C48.8828 40.9414 48.5742 40.8945 48.1992 40.8945H46.5352V48.5H45.4043V39.9688H48.1992C48.6367 39.9688 49.0273 40.0137 49.3711 40.1035C49.7148 40.1895 50.0059 40.3262 50.2441 40.5137C50.4863 40.6973 50.6699 40.9316 50.7949 41.2168C50.9199 41.502 50.9824 41.8438 50.9824 42.2422C50.9824 42.5938 50.8926 42.9121 50.7129 43.1973C50.5332 43.4785 50.2832 43.709 49.9629 43.8887C49.6465 44.0684 49.2754 44.1836 48.8496 44.2344L48.4453 44.5098ZM48.3926 48.5H45.8379L46.4766 47.5801H48.3926C48.752 47.5801 49.0566 47.5176 49.3066 47.3926C49.5605 47.2676 49.7539 47.0918 49.8867 46.8652C50.0195 46.6348 50.0859 46.3633 50.0859 46.0508C50.0859 45.7344 50.0293 45.4609 49.916 45.2305C49.8027 45 49.625 44.8223 49.3828 44.6973C49.1406 44.5723 48.8281 44.5098 48.4453 44.5098H46.834L46.8457 43.6016H49.0488L49.2891 43.9297C49.6992 43.9648 50.0469 44.082 50.332 44.2812C50.6172 44.4766 50.834 44.7266 50.9824 45.0312C51.1348 45.3359 51.2109 45.6719 51.2109 46.0391C51.2109 46.5703 51.0938 47.0195 50.8594 47.3867C50.6289 47.75 50.3027 48.0273 49.8809 48.2188C49.459 48.4062 48.9629 48.5 48.3926 48.5ZM57.7617 39.9688H58.8867V45.7402C58.8867 46.3809 58.7441 46.9141 58.459 47.3398C58.1738 47.7656 57.7949 48.0859 57.3223 48.3008C56.8535 48.5117 56.3438 48.6172 55.793 48.6172C55.2148 48.6172 54.6914 48.5117 54.2227 48.3008C53.7578 48.0859 53.3887 47.7656 53.1152 47.3398C52.8457 46.9141 52.7109 46.3809 52.7109 45.7402V39.9688H53.8301V45.7402C53.8301 46.1855 53.9121 46.5527 54.0762 46.8418C54.2402 47.1309 54.4688 47.3457 54.7617 47.4863C55.0586 47.627 55.4023 47.6973 55.793 47.6973C56.1875 47.6973 56.5312 47.627 56.8242 47.4863C57.1211 47.3457 57.3516 47.1309 57.5156 46.8418C57.6797 46.5527 57.7617 46.1855 57.7617 45.7402V39.9688ZM65.209 46.3438C65.209 46.1445 65.1777 45.9688 65.1152 45.8164C65.0566 45.6602 64.9512 45.5195 64.7988 45.3945C64.6504 45.2695 64.4434 45.1504 64.1777 45.0371C63.916 44.9238 63.584 44.8086 63.1816 44.6914C62.7598 44.5664 62.3789 44.4277 62.0391 44.2754C61.6992 44.1191 61.4082 43.9414 61.166 43.7422C60.9238 43.543 60.7383 43.3145 60.6094 43.0566C60.4805 42.7988 60.416 42.5039 60.416 42.1719C60.416 41.8398 60.4844 41.5332 60.6211 41.252C60.7578 40.9707 60.9531 40.7266 61.207 40.5195C61.4648 40.3086 61.7715 40.1445 62.127 40.0273C62.4824 39.9102 62.8789 39.8516 63.3164 39.8516C63.957 39.8516 64.5 39.9746 64.9453 40.2207C65.3945 40.4629 65.7363 40.7812 65.9707 41.1758C66.2051 41.5664 66.3223 41.9844 66.3223 42.4297H65.1973C65.1973 42.1094 65.1289 41.8262 64.9922 41.5801C64.8555 41.3301 64.6484 41.1348 64.3711 40.9941C64.0938 40.8496 63.7422 40.7773 63.3164 40.7773C62.9141 40.7773 62.582 40.8379 62.3203 40.959C62.0586 41.0801 61.8633 41.2441 61.7344 41.4512C61.6094 41.6582 61.5469 41.8945 61.5469 42.1602C61.5469 42.3398 61.584 42.5039 61.6582 42.6523C61.7363 42.7969 61.8555 42.9316 62.0156 43.0566C62.1797 43.1816 62.3867 43.2969 62.6367 43.4023C62.8906 43.5078 63.1934 43.6094 63.5449 43.707C64.0293 43.8438 64.4473 43.9961 64.7988 44.1641C65.1504 44.332 65.4395 44.5215 65.666 44.7324C65.8965 44.9395 66.0664 45.1758 66.1758 45.4414C66.2891 45.7031 66.3457 46 66.3457 46.332C66.3457 46.6797 66.2754 46.9941 66.1348 47.2754C65.9941 47.5566 65.793 47.7969 65.5312 47.9961C65.2695 48.1953 64.9551 48.3496 64.5879 48.459C64.2246 48.5645 63.8184 48.6172 63.3691 48.6172C62.9746 48.6172 62.5859 48.5625 62.2031 48.4531C61.8242 48.3438 61.4785 48.1797 61.166 47.9609C60.8574 47.7422 60.6094 47.4727 60.4219 47.1523C60.2383 46.8281 60.1465 46.4531 60.1465 46.0273H61.2715C61.2715 46.3203 61.3281 46.5723 61.4414 46.7832C61.5547 46.9902 61.709 47.1621 61.9043 47.2988C62.1035 47.4355 62.3281 47.5371 62.5781 47.6035C62.832 47.666 63.0957 47.6973 63.3691 47.6973C63.7637 47.6973 64.0977 47.6426 64.3711 47.5332C64.6445 47.4238 64.8516 47.2676 64.9922 47.0645C65.1367 46.8613 65.209 46.6211 65.209 46.3438ZM69 39.9688V48.5H67.8691V39.9688H69ZM77.6191 39.9688V48.5H76.4824L72.1875 41.9199V48.5H71.0566V39.9688H72.1875L76.5 46.5664V39.9688H77.6191ZM85.043 47.5801V48.5H80.5254V47.5801H85.043ZM80.7539 39.9688V48.5H79.623V39.9688H80.7539ZM84.4453 43.6367V44.5566H80.5254V43.6367H84.4453ZM84.9844 39.9688V40.8945H80.5254V39.9688H84.9844ZM90.9902 46.3438C90.9902 46.1445 90.959 45.9688 90.8965 45.8164C90.8379 45.6602 90.7324 45.5195 90.5801 45.3945C90.4316 45.2695 90.2246 45.1504 89.959 45.0371C89.6973 44.9238 89.3652 44.8086 88.9629 44.6914C88.541 44.5664 88.1602 44.4277 87.8203 44.2754C87.4805 44.1191 87.1895 43.9414 86.9473 43.7422C86.7051 43.543 86.5195 43.3145 86.3906 43.0566C86.2617 42.7988 86.1973 42.5039 86.1973 42.1719C86.1973 41.8398 86.2656 41.5332 86.4023 41.252C86.5391 40.9707 86.7344 40.7266 86.9883 40.5195C87.2461 40.3086 87.5527 40.1445 87.9082 40.0273C88.2637 39.9102 88.6602 39.8516 89.0977 39.8516C89.7383 39.8516 90.2812 39.9746 90.7266 40.2207C91.1758 40.4629 91.5176 40.7812 91.752 41.1758C91.9863 41.5664 92.1035 41.9844 92.1035 42.4297H90.9785C90.9785 42.1094 90.9102 41.8262 90.7734 41.5801C90.6367 41.3301 90.4297 41.1348 90.1523 40.9941C89.875 40.8496 89.5234 40.7773 89.0977 40.7773C88.6953 40.7773 88.3633 40.8379 88.1016 40.959C87.8398 41.0801 87.6445 41.2441 87.5156 41.4512C87.3906 41.6582 87.3281 41.8945 87.3281 42.1602C87.3281 42.3398 87.3652 42.5039 87.4395 42.6523C87.5176 42.7969 87.6367 42.9316 87.7969 43.0566C87.9609 43.1816 88.168 43.2969 88.418 43.4023C88.6719 43.5078 88.9746 43.6094 89.3262 43.707C89.8105 43.8438 90.2285 43.9961 90.5801 44.1641C90.9316 44.332 91.2207 44.5215 91.4473 44.7324C91.6777 44.9395 91.8477 45.1758 91.957 45.4414C92.0703 45.7031 92.127 46 92.127 46.332C92.127 46.6797 92.0566 46.9941 91.916 47.2754C91.7754 47.5566 91.5742 47.7969 91.3125 47.9961C91.0508 48.1953 90.7363 48.3496 90.3691 48.459C90.0059 48.5645 89.5996 48.6172 89.1504 48.6172C88.7559 48.6172 88.3672 48.5625 87.9844 48.4531C87.6055 48.3438 87.2598 48.1797 86.9473 47.9609C86.6387 47.7422 86.3906 47.4727 86.2031 47.1523C86.0195 46.8281 85.9277 46.4531 85.9277 46.0273H87.0527C87.0527 46.3203 87.1094 46.5723 87.2227 46.7832C87.3359 46.9902 87.4902 47.1621 87.6855 47.2988C87.8848 47.4355 88.1094 47.5371 88.3594 47.6035C88.6133 47.666 88.877 47.6973 89.1504 47.6973C89.5449 47.6973 89.8789 47.6426 90.1523 47.5332C90.4258 47.4238 90.6328 47.2676 90.7734 47.0645C90.918 46.8613 90.9902 46.6211 90.9902 46.3438ZM98.1152 46.3438C98.1152 46.1445 98.084 45.9688 98.0215 45.8164C97.9629 45.6602 97.8574 45.5195 97.7051 45.3945C97.5566 45.2695 97.3496 45.1504 97.084 45.0371C96.8223 44.9238 96.4902 44.8086 96.0879 44.6914C95.666 44.5664 95.2852 44.4277 94.9453 44.2754C94.6055 44.1191 94.3145 43.9414 94.0723 43.7422C93.8301 43.543 93.6445 43.3145 93.5156 43.0566C93.3867 42.7988 93.3223 42.5039 93.3223 42.1719C93.3223 41.8398 93.3906 41.5332 93.5273 41.252C93.6641 40.9707 93.8594 40.7266 94.1133 40.5195C94.3711 40.3086 94.6777 40.1445 95.0332 40.0273C95.3887 39.9102 95.7852 39.8516 96.2227 39.8516C96.8633 39.8516 97.4062 39.9746 97.8516 40.2207C98.3008 40.4629 98.6426 40.7812 98.877 41.1758C99.1113 41.5664 99.2285 41.9844 99.2285 42.4297H98.1035C98.1035 42.1094 98.0352 41.8262 97.8984 41.5801C97.7617 41.3301 97.5547 41.1348 97.2773 40.9941C97 40.8496 96.6484 40.7773 96.2227 40.7773C95.8203 40.7773 95.4883 40.8379 95.2266 40.959C94.9648 41.0801 94.7695 41.2441 94.6406 41.4512C94.5156 41.6582 94.4531 41.8945 94.4531 42.1602C94.4531 42.3398 94.4902 42.5039 94.5645 42.6523C94.6426 42.7969 94.7617 42.9316 94.9219 43.0566C95.0859 43.1816 95.293 43.2969 95.543 43.4023C95.7969 43.5078 96.0996 43.6094 96.4512 43.707C96.9355 43.8438 97.3535 43.9961 97.7051 44.1641C98.0566 44.332 98.3457 44.5215 98.5723 44.7324C98.8027 44.9395 98.9727 45.1758 99.082 45.4414C99.1953 45.7031 99.252 46 99.252 46.332C99.252 46.6797 99.1816 46.9941 99.041 47.2754C98.9004 47.5566 98.6992 47.7969 98.4375 47.9961C98.1758 48.1953 97.8613 48.3496 97.4941 48.459C97.1309 48.5645 96.7246 48.6172 96.2754 48.6172C95.8809 48.6172 95.4922 48.5625 95.1094 48.4531C94.7305 48.3438 94.3848 48.1797 94.0723 47.9609C93.7637 47.7422 93.5156 47.4727 93.3281 47.1523C93.1445 46.8281 93.0527 46.4531 93.0527 46.0273H94.1777C94.1777 46.3203 94.2344 46.5723 94.3477 46.7832C94.4609 46.9902 94.6152 47.1621 94.8105 47.2988C95.0098 47.4355 95.2344 47.5371 95.4844 47.6035C95.7383 47.666 96.002 47.6973 96.2754 47.6973C96.6699 47.6973 97.0039 47.6426 97.2773 47.5332C97.5508 47.4238 97.7578 47.2676 97.8984 47.0645C98.043 46.8613 98.1152 46.6211 98.1152 46.3438ZM106.828 40.7246L104.004 48.5H102.85L106.102 39.9688H106.846L106.828 40.7246ZM109.195 48.5L106.365 40.7246L106.348 39.9688H107.092L110.355 48.5H109.195ZM109.049 45.3418V46.2676H104.256V45.3418H109.049ZM118.061 39.9688V48.5H116.924L112.629 41.9199V48.5H111.498V39.9688H112.629L116.941 46.5664V39.9688H118.061ZM123.328 40.7246L120.504 48.5H119.35L122.602 39.9688H123.346L123.328 40.7246ZM125.695 48.5L122.865 40.7246L122.848 39.9688H123.592L126.855 48.5H125.695ZM125.549 45.3418V46.2676H120.756V45.3418H125.549ZM133.172 47.5801V48.5H128.906V47.5801H133.172ZM129.129 39.9688V48.5H127.998V39.9688H129.129ZM133.453 39.9688L135.668 44.252L137.889 39.9688H139.172L136.23 45.3125V48.5H135.1V45.3125L132.158 39.9688H133.453ZM144.721 46.3438C144.721 46.1445 144.689 45.9688 144.627 45.8164C144.568 45.6602 144.463 45.5195 144.311 45.3945C144.162 45.2695 143.955 45.1504 143.689 45.0371C143.428 44.9238 143.096 44.8086 142.693 44.6914C142.271 44.5664 141.891 44.4277 141.551 44.2754C141.211 44.1191 140.92 43.9414 140.678 43.7422C140.436 43.543 140.25 43.3145 140.121 43.0566C139.992 42.7988 139.928 42.5039 139.928 42.1719C139.928 41.8398 139.996 41.5332 140.133 41.252C140.27 40.9707 140.465 40.7266 140.719 40.5195C140.977 40.3086 141.283 40.1445 141.639 40.0273C141.994 39.9102 142.391 39.8516 142.828 39.8516C143.469 39.8516 144.012 39.9746 144.457 40.2207C144.906 40.4629 145.248 40.7812 145.482 41.1758C145.717 41.5664 145.834 41.9844 145.834 42.4297H144.709C144.709 42.1094 144.641 41.8262 144.504 41.5801C144.367 41.3301 144.16 41.1348 143.883 40.9941C143.605 40.8496 143.254 40.7773 142.828 40.7773C142.426 40.7773 142.094 40.8379 141.832 40.959C141.57 41.0801 141.375 41.2441 141.246 41.4512C141.121 41.6582 141.059 41.8945 141.059 42.1602C141.059 42.3398 141.096 42.5039 141.17 42.6523C141.248 42.7969 141.367 42.9316 141.527 43.0566C141.691 43.1816 141.898 43.2969 142.148 43.4023C142.402 43.5078 142.705 43.6094 143.057 43.707C143.541 43.8438 143.959 43.9961 144.311 44.1641C144.662 44.332 144.951 44.5215 145.178 44.7324C145.408 44.9395 145.578 45.1758 145.688 45.4414C145.801 45.7031 145.857 46 145.857 46.332C145.857 46.6797 145.787 46.9941 145.646 47.2754C145.506 47.5566 145.305 47.7969 145.043 47.9961C144.781 48.1953 144.467 48.3496 144.1 48.459C143.736 48.5645 143.33 48.6172 142.881 48.6172C142.486 48.6172 142.098 48.5625 141.715 48.4531C141.336 48.3438 140.99 48.1797 140.678 47.9609C140.369 47.7422 140.121 47.4727 139.934 47.1523C139.75 46.8281 139.658 46.4531 139.658 46.0273H140.783C140.783 46.3203 140.84 46.5723 140.953 46.7832C141.066 46.9902 141.221 47.1621 141.416 47.2988C141.615 47.4355 141.84 47.5371 142.09 47.6035C142.344 47.666 142.607 47.6973 142.881 47.6973C143.275 47.6973 143.609 47.6426 143.883 47.5332C144.156 47.4238 144.363 47.2676 144.504 47.0645C144.648 46.8613 144.721 46.6211 144.721 46.3438ZM150.451 39.9688V48.5H149.338V39.9688H150.451ZM153.193 39.9688V40.8945H146.602V39.9688H153.193Z" fill="#777777"/>
<line x1="233.5" y1="8" x2="233.5" y2="56" stroke="#C4C4C4"/>
<g clip-path="url(#clip0_1587_13850)">
<path d="M277.193 25.026H275.658V38.948H284.506V37.5688H277.193V25.026ZM292.182 33.6654L294.836 27.1078L297.491 33.6654H292.182ZM294.134 25.026L288.435 38.948H289.996L291.558 35.0706H298.037L299.599 38.948H301.16L295.461 25.026H294.134ZM307.691 31.974V26.4052H311.985C313.755 26.4052 314.926 27.4981 314.926 29.1896C314.926 30.881 313.781 31.974 311.985 31.974H307.691ZM316.513 29.1896C316.513 26.7955 314.613 25.026 312.011 25.026H306.13V38.948H307.717V33.3792H311.907L315.16 38.948H316.955L313.468 33.171C313.468 33.171 316.513 32.3643 316.513 29.1896ZM322.81 38.9219H324.372V25H322.81V38.9219ZM338.033 37.5688C334.755 37.5688 332.204 35.1487 332.204 31.974C332.204 28.7993 334.755 26.3792 338.033 26.3792C341.312 26.3792 343.862 28.7993 343.862 31.974C343.862 35.1487 341.312 37.5688 338.033 37.5688ZM338.033 25.026C333.948 25.026 330.669 28.1227 330.669 31.974C330.669 35.8253 333.948 38.9219 338.033 38.9219C342.119 38.9219 345.398 35.8253 345.398 31.974C345.398 28.0967 342.119 25.026 338.033 25.026ZM351.201 28.6952C351.201 27.4721 352.32 26.3792 354.323 26.3792C356.509 26.3792 357.576 27.7323 357.576 27.7323L358.617 26.7695C358.617 26.7695 357.134 25.026 354.323 25.026C351.513 25.026 349.613 26.7175 349.613 28.6952C349.613 33.5353 357.55 31.5836 357.55 35.0706C357.55 36.5279 356.405 37.5948 354.193 37.5948C351.487 37.5948 350.238 35.9294 350.238 35.9294L349.275 36.9182C349.275 36.9182 350.836 38.948 354.193 38.948C357.342 38.948 359.112 37.3086 359.112 35.0706C359.138 30.2305 351.201 32.1561 351.201 28.6952ZM264.078 37.6468C260.929 37.6468 258.483 35.2268 258.483 32.052C258.483 28.8773 260.929 26.4572 264.078 26.4572C267.227 26.4572 268.684 28.7732 268.684 28.7732L269.673 27.9145C269.673 27.9145 267.799 25.1041 264.078 25.1041C260.149 25.1041 257 28.2007 257 32.052C257 35.9033 260.149 39 264.078 39C267.799 39 269.777 36.1896 269.777 36.1896L268.788 35.3309C268.788 35.3048 267.227 37.6468 264.078 37.6468Z" fill="#490E6F"/>
</g>
<defs>
<clipPath id="clip0_1587_13850">
<rect width="102.112" height="14" fill="white" transform="translate(257 25)"/>
</clipPath>
</defs>
</svg>
