<svg width="278" height="40" viewBox="0 0 278 40" fill="none" xmlns="http://www.w3.org/2000/svg">
<g clip-path="url(#clip0_1466_18280)">
<path d="M12.2739 12.606C11.4893 12.606 10.3569 12.8554 8.30896 13.5366V26.4562C10.1096 27.0434 11.4893 27.3868 12.2739 27.3868C14.0825 27.3868 15.1021 26.1958 15.1021 24.2853V15.7075C15.1021 13.797 14.0825 12.606 12.2739 12.606ZM12.8633 23.9534C12.8633 24.7011 12.446 24.9499 11.947 24.9499C11.5587 24.9499 10.9592 24.798 10.4704 24.6541V15.3336C10.9592 15.1948 11.5587 15.0429 11.947 15.0429C12.446 15.0429 12.8633 15.2917 12.8633 16.0394V23.9534Z" fill="#E4001C"/>
<path d="M38.1315 10.2801C35.8414 10.1608 34.4775 11.249 34.4775 13.741V26.1211C34.4775 28.7518 35.7126 29.8344 38.1315 29.7209C40.4991 29.6102 41.7342 28.6412 41.7342 25.8441V14.0266C41.7342 11.3597 40.617 10.4102 38.1315 10.2801ZM39.2379 25.8998C39.2379 26.6475 39.0065 27.0351 38.1315 27.0626C37.2312 27.0909 36.9868 26.675 36.9868 25.8998V14.1011C36.9868 13.3259 37.2312 12.8964 38.1315 12.9246C39.0065 12.952 39.2379 13.3534 39.2379 14.1011V25.8998Z" fill="#E4001C"/>
<path d="M60.3944 15.1118V24.864C63.2045 23.4271 64.8178 21.7574 64.8178 19.9684C64.8178 18.1989 63.2045 16.5378 60.3944 15.1118Z" fill="#E4001C"/>
<path d="M0 19.9687C0 21.7548 1.61114 23.4274 4.42052 24.8614V15.115C1.61114 16.5381 0 18.1992 0 19.9687Z" fill="#E4001C"/>
<path d="M21.406 25.4679C21.406 26.2156 21.1667 26.6892 20.2996 26.5757C19.4478 26.465 19.2186 26.0768 19.2186 25.1909V11.1302C18.6531 11.1967 17.3919 11.3848 16.8517 11.468V25.6891C16.8517 27.9598 17.8757 28.8435 20.2996 29.1421C22.5175 29.4162 23.8763 28.2093 23.8763 25.6891V10.6646C23.4135 10.6926 21.8949 10.8308 21.406 10.8866V25.4679Z" fill="#E4001C"/>
<path d="M48.5914 20.8215L45.8507 11.1995C45.1045 11.0939 44.2042 10.9862 43.5092 10.9167V29.0783C43.9981 29.0291 45.244 28.8766 45.8869 28.7876L45.6915 18.0859L48.5913 28.3696C49.2089 28.2647 50.1092 28.0956 50.7014 27.9741V12.0159C50.0839 11.8858 48.9616 11.6811 48.4214 11.5929L48.5914 20.8215Z" fill="#E4001C"/>
<path d="M29.2439 10.3853C28.8143 10.3853 27.2473 10.4431 25.8061 10.5349V29.4608C26.2949 29.4883 27.5814 29.5606 28.2763 29.5801V23.1529L29.2439 23.1508C31.8327 23.1426 32.908 21.894 32.908 19.4903V13.9135C32.908 11.5604 31.6989 10.386 29.2439 10.386M30.4117 19.2907C30.4117 20.105 30.1471 20.5179 29.1434 20.5208L28.2763 20.5228V13.055C28.6625 13.0333 28.8679 13.0275 29.1 13.0275C30.1854 13.0275 30.4117 13.4708 30.4117 14.301V19.2907Z" fill="#E4001C"/>
<path d="M51.9236 14.8074C52.5354 14.9253 53.1377 15.0562 53.7249 15.195V27.2706C54.2651 27.1347 55.2688 26.8527 55.9377 26.6393V15.7648C56.5799 15.9442 57.1851 16.1235 57.7391 16.2942V13.9657C55.992 13.3091 54.1161 12.7747 51.9236 12.2822V14.8074Z" fill="#E4001C"/>
</g>
<defs>
<clipPath id="clip0_1466_18280">
<rect width="64.8178" height="19.4577" fill="white" transform="translate(0 10.2712)"/>
</clipPath>
</defs>
</svg>
