<svg width="52" height="25" viewBox="0 0 52 25" fill="none" xmlns="http://www.w3.org/2000/svg">
<g clip-path="url(#clip0_1554_3106)">
<path d="M8.98931 10.2793C8.60284 10.943 8.01454 11.4659 7.31013 11.7719C6.60572 12.078 5.822 12.1511 5.07314 11.9806C4.32427 11.8102 3.64939 11.4051 3.14681 10.8244C2.64422 10.2436 2.34019 9.5176 2.27901 8.75203H11.7432C11.7432 8.75203 11.7507 8.5569 11.7507 8.4592C11.7507 5.21439 9.12029 2.58398 5.87548 2.58398C2.63067 2.58398 0 5.21439 0 8.4592C0 11.704 2.6304 14.3347 5.87548 14.3347C8.48432 14.3347 10.6957 12.6331 11.4621 10.2793H8.98931ZM5.87468 4.84862C6.64113 4.84835 7.38779 5.09191 8.00667 5.54405C8.62554 5.9962 9.08455 6.63349 9.31728 7.36375H2.43447C2.66703 6.63365 3.12575 5.99643 3.74432 5.54421C4.36288 5.09199 5.10924 4.8482 5.87548 4.84808L5.87468 4.84862Z" fill="#777777"/>
<path d="M35.0947 3.05677V3.97785C34.0349 3.07646 32.6886 2.58227 31.2973 2.58399C28.0522 2.58399 25.4229 5.21439 25.4229 8.4592C25.4229 11.704 28.0533 14.3347 31.2983 14.3347C32.6896 14.3364 34.036 13.8422 35.0958 12.9408V13.9479H37.6178V3.05677H35.0947ZM31.2973 12.0706C30.583 12.0706 29.8847 11.8589 29.2908 11.4621C28.6969 11.0653 28.234 10.5013 27.9606 9.8414C27.6872 9.18151 27.6157 8.45538 27.755 7.75482C27.8943 7.05426 28.2382 6.41075 28.7433 5.90567C29.2483 5.40058 29.8918 5.0566 30.5924 4.91723C31.2929 4.77787 32.019 4.84937 32.679 5.1227C33.3389 5.39603 33.9029 5.85891 34.2997 6.4528C34.6966 7.04669 34.9084 7.74493 34.9084 8.4592C34.9084 9.41695 34.5279 10.3355 33.8507 11.0127C33.1735 11.69 32.255 12.0705 31.2973 12.0706Z" fill="#777777"/>
<path d="M47.2155 10.2463C46.8144 10.951 46.1877 11.5002 45.4365 11.8055C44.6853 12.1108 43.8533 12.1544 43.0742 11.9293C42.2952 11.7043 41.6146 11.2236 41.142 10.5647C40.6694 9.90579 40.4322 9.10702 40.4687 8.29697C40.5053 7.48692 40.8133 6.71272 41.3433 6.09902C41.8733 5.48532 42.5944 5.06783 43.3905 4.91375C44.1866 4.75968 45.0114 4.87798 45.732 5.24963C46.4527 5.62128 47.0274 6.22464 47.3635 6.96258H49.7623C49.1002 4.44292 46.8074 2.58398 44.0798 2.58398C40.835 2.58398 38.2043 5.21439 38.2043 8.4592C38.2043 11.704 40.8363 14.3347 44.0798 14.3347C46.7014 14.3347 48.9214 12.6171 49.6776 10.2463H47.2155Z" fill="#777777"/>
<path d="M15.078 19.7905H14.2432V20.6254H15.078V19.7905Z" fill="#777777"/>
<path d="M13.4081 20.5696H12.6012V21.3765H13.4081V20.5696Z" fill="#777777"/>
<path d="M14.1593 20.5417H13.6027V21.0984H14.1593V20.5417Z" fill="#777777"/>
<path d="M13.9374 21.3765H13.4087V21.9052H13.9374V21.3765Z" fill="#777777"/>
<path d="M13.2409 22.3503H12.7678V22.8234H13.2409V22.3503Z" fill="#777777"/>
<path d="M17.4465 5.14837C17.9489 4.92959 18.4944 4.82802 19.0419 4.85135C19.5893 4.87469 20.1242 5.02233 20.6062 5.28307C21.0353 5.12761 21.5467 4.95643 21.9226 4.87577C22.2889 4.79591 22.8809 4.74267 23.4083 4.70833C22.8576 4.04302 22.1667 3.5076 21.385 3.14037C20.6033 2.77313 19.7501 2.58314 18.8865 2.58399H18.8481C18.5316 3.00486 18.1491 3.54606 17.943 3.95682C17.7921 4.26057 17.611 4.71099 17.4465 5.14837Z" fill="#777777"/>
<path d="M12.601 20.3748H13.4358V19.7892H14.2421V18.9557H15.077V14.8516C14.2783 15.3222 13.1778 15.9539 12.6012 16.2846L12.601 20.3748Z" fill="#777777"/>
<path d="M17.4465 5.14844C17.611 4.71106 17.7926 4.26064 17.9435 3.95769C18.149 3.54693 18.5316 3.00573 18.8486 2.58485C17.4654 2.59164 16.1293 3.08842 15.0775 3.98697V2.17676H12.6018V3.96035L15.3744 7.63083C15.5034 7.08463 15.7579 6.57597 16.1175 6.14512C16.4772 5.71426 16.9322 5.37303 17.4465 5.14844Z" fill="#777777"/>
<path d="M20.6061 5.28324C21.0628 5.53098 21.4607 5.87422 21.7728 6.28959C22.0849 6.70496 22.3038 7.1827 22.4147 7.69029C22.8365 7.94762 23.2396 8.23452 23.6209 8.54881C23.9868 8.86013 24.3341 9.19257 24.6612 9.54443C24.8214 8.69596 24.7923 7.82258 24.5761 6.98664C24.3598 6.1507 23.9616 5.37281 23.41 4.7085C22.884 4.74364 22.2906 4.79741 21.9243 4.87594C21.5466 4.9566 21.0352 5.12777 20.6061 5.28324Z" fill="#777777"/>
<path d="M24.6602 9.54433C24.3331 9.19246 23.9857 8.86002 23.6199 8.54871C23.2389 8.23445 22.8362 7.94756 22.4147 7.69019C22.5257 8.19445 22.5266 8.71674 22.4171 9.22135C22.3077 9.72595 22.0906 10.201 21.7806 10.6139C21.8118 11.1118 21.8403 11.7054 21.8403 12.2218C21.8403 12.6534 21.7804 13.1562 21.7072 13.6152C22.4697 13.1972 23.1301 12.6152 23.6407 11.9113C24.1514 11.2074 24.4996 10.399 24.6602 9.54433Z" fill="#777777"/>
<path d="M21.7796 10.614C21.4662 11.0355 21.0643 11.3834 20.6021 11.6331C20.14 11.8828 19.6288 12.0284 19.1045 12.0595C18.9509 12.2211 18.8116 12.3622 18.7227 12.4445C18.4778 12.6691 17.4401 13.357 16.6295 13.8838C17.4417 14.2218 18.3194 14.3731 19.1978 14.3266C20.0763 14.2801 20.9331 14.037 21.705 13.6152C21.7793 13.1563 21.8381 12.6534 21.8381 12.2219C21.8392 11.7071 21.8107 11.1118 21.7796 10.614Z" fill="#777777"/>
<path d="M16.1929 10.859C15.8049 10.4276 15.5276 9.9084 15.385 9.34603C15.2424 8.78366 15.2387 8.19503 15.3743 7.63093L12.601 3.96045V9.76778C13.0687 9.98846 13.7113 10.2736 14.2983 10.469C14.8853 10.6644 15.6344 10.7879 16.1929 10.859Z" fill="#777777"/>
<path d="M19.1044 12.0594C19.032 12.0639 18.9601 12.0705 18.8864 12.0705C18.3773 12.0706 17.8739 11.9627 17.4096 11.7538C16.9453 11.5449 16.5306 11.2398 16.1929 10.8588C15.6339 10.7877 14.8885 10.6655 14.2983 10.4688C13.7081 10.272 13.0687 9.98826 12.601 9.76758V16.2857C13.1784 15.9551 14.2781 15.3233 15.0767 14.8527V12.9315C15.5415 13.3276 16.0651 13.649 16.6287 13.8842C17.4393 13.3574 18.477 12.6695 18.7219 12.4448C18.8124 12.362 18.9508 12.221 19.1044 12.0594Z" fill="#777777"/>
<path d="M17.5588 17.4945H17.2446V17.2235H17.5588V16.9455C17.5588 16.6423 17.7392 16.4834 18.0752 16.4834C18.1423 16.4842 18.209 16.4939 18.2735 16.5124V16.7786C18.2174 16.7614 18.1589 16.753 18.1002 16.7536C17.9522 16.7536 17.8657 16.8005 17.8657 16.9628V17.2227H18.2267V17.4945H17.8657V19.0917H17.5588V17.4945Z" fill="#777777"/>
<path d="M18.7073 16.5125H19.0139V19.0904H18.7073V16.5125Z" fill="#777777"/>
<path d="M21.2701 18.4979C21.187 18.9095 20.891 19.1333 20.4715 19.1333C19.8757 19.1333 19.593 18.7218 19.5759 18.1513C19.5759 17.5923 19.9441 17.1802 20.4544 17.1802C21.1151 17.1802 21.3172 17.7975 21.2991 18.2487H19.9026C19.8917 18.5738 20.0759 18.8626 20.4837 18.8626C20.7366 18.8626 20.9134 18.7399 20.9677 18.4979H21.2701ZM20.9741 17.978C20.9594 17.6852 20.7393 17.4509 20.436 17.4509C20.1147 17.4509 19.9233 17.6929 19.9018 17.978H20.9741Z" fill="#777777"/>
<path d="M22.3082 18.108L21.6581 17.2234H22.0519L22.4996 17.8769L22.9652 17.2234H23.3336L22.6908 18.083L23.413 19.0903H23.0187L22.4988 18.3183L21.9786 19.0903H21.606L22.3082 18.108Z" fill="#777777"/>
<path d="M24.189 16.8878H23.8821V16.5125H24.189V16.8878ZM23.8821 17.2235H24.189V19.0904H23.8821V17.2235Z" fill="#777777"/>
<path d="M24.8639 16.5125H25.1708V17.4764H25.178C25.2792 17.2706 25.5174 17.1804 25.7738 17.1804C26.3477 17.1804 26.6331 17.6353 26.6331 18.1624C26.6331 18.6895 26.3517 19.1343 25.7812 19.1343C25.5898 19.1343 25.3154 19.0622 25.1783 18.8415H25.1711V19.0909H24.8639V16.5125ZM25.7304 17.4511C25.3188 17.4511 25.1602 17.8049 25.1602 18.1552C25.1602 18.5234 25.326 18.8628 25.7485 18.8628C26.171 18.8628 26.3075 18.5053 26.3075 18.1408C26.3083 17.7905 26.1278 17.4511 25.7307 17.4511H25.7304Z" fill="#777777"/>
<path d="M27.2003 16.5125H27.5073V19.0904H27.2003V16.5125Z" fill="#777777"/>
<path d="M29.764 18.4979C29.6812 18.9095 29.3849 19.1333 28.9653 19.1333C28.3698 19.1333 28.0868 18.7218 28.0701 18.1513C28.0701 17.5923 28.4382 17.1802 28.9486 17.1802C29.609 17.1802 29.8113 17.7975 29.7932 18.2487H28.3959C28.3853 18.5738 28.5692 18.8626 28.9773 18.8626C29.2299 18.8626 29.407 18.7399 29.461 18.4979H29.764ZM29.4693 17.978C29.4546 17.6852 29.2345 17.4509 28.931 17.4509C28.6097 17.4509 28.4185 17.6929 28.3967 17.978H29.4693Z" fill="#777777"/>
<path d="M31.5015 17.2233H31.8081V17.4762H31.8153C31.9165 17.2704 32.1547 17.1802 32.4114 17.1802C32.9853 17.1802 33.2704 17.6351 33.2704 18.1622C33.2704 18.6893 32.989 19.1333 32.4186 19.1333C32.2274 19.1333 31.953 19.0612 31.8156 18.8405H31.8084V19.805H31.5017L31.5015 17.2233ZM32.368 17.4509C31.9561 17.4509 31.7972 17.8047 31.7972 18.155C31.7972 18.5232 31.9636 18.8626 32.3858 18.8626C32.808 18.8626 32.9448 18.5051 32.9448 18.1407C32.9456 17.7903 32.7649 17.4509 32.368 17.4509Z" fill="#777777"/>
<path d="M35.4733 19.0828C35.4061 19.1197 35.3298 19.1372 35.2532 19.1333C35.0934 19.1333 34.9931 19.0468 34.9931 18.8445C34.8235 19.0431 34.5962 19.1333 34.3361 19.1333C33.9967 19.1333 33.7188 18.9819 33.7188 18.6097C33.7188 18.1875 34.0329 18.0973 34.3505 18.0358C34.6899 17.9708 34.9787 17.9924 34.9787 17.7613C34.9787 17.4951 34.7586 17.4509 34.5634 17.4509C34.3036 17.4509 34.1122 17.5308 34.0976 17.8047H33.7909C33.8087 17.3426 34.1662 17.1802 34.5815 17.1802C34.9172 17.1802 35.2819 17.256 35.2819 17.6929V18.6531C35.2819 18.7977 35.2819 18.8626 35.3796 18.8626C35.4117 18.8625 35.4435 18.8563 35.4733 18.8445V19.0828ZM34.975 18.1263C34.856 18.2128 34.6249 18.2163 34.4191 18.2525C34.2134 18.2887 34.0435 18.3608 34.0435 18.5884C34.0435 18.7905 34.2168 18.8626 34.4048 18.8626C34.8091 18.8626 34.975 18.6097 34.975 18.4401V18.1263Z" fill="#777777"/>
<path d="M37.2138 17.823C37.1669 17.5882 37.0045 17.4503 36.7516 17.4503C36.3076 17.4503 36.1705 17.8004 36.1705 18.1797C36.1705 18.5226 36.3257 18.862 36.7157 18.862C37.0117 18.862 37.1885 18.6887 37.2281 18.407H37.5425C37.4739 18.8628 37.1893 19.1343 36.7192 19.1343C36.1487 19.1343 35.8455 18.7371 35.8455 18.1813C35.8455 17.6255 36.1343 17.1812 36.7263 17.1812C37.1491 17.1812 37.4882 17.3797 37.5316 17.8238L37.2138 17.823Z" fill="#777777"/>
<path d="M38.0914 16.5125H38.3984V18.0397L39.2502 17.2235H39.6618L38.9217 17.9023L39.7161 19.0904H39.3261L38.6872 18.1156L38.3984 18.3818V19.0896H38.0914V16.5125Z" fill="#777777"/>
<path d="M41.7894 19.0828C41.722 19.1198 41.6457 19.1373 41.569 19.1333C41.4092 19.1333 41.3091 19.0468 41.3091 18.8445C41.1393 19.0431 40.912 19.1333 40.6521 19.1333C40.3125 19.1333 40.0345 18.9819 40.0345 18.6097C40.0345 18.1875 40.3487 18.0973 40.6665 18.0358C41.0057 17.9708 41.2945 17.9924 41.2945 17.7613C41.2945 17.4951 41.0744 17.4509 40.8795 17.4509C40.6194 17.4509 40.4269 17.5308 40.4136 17.8047H40.1067C40.1248 17.3426 40.4823 17.1802 40.8976 17.1802C41.2333 17.1802 41.598 17.256 41.598 17.6929V18.6531C41.598 18.7977 41.598 18.8626 41.6954 18.8626C41.7276 18.8625 41.7595 18.8563 41.7894 18.8445V19.0828ZM41.291 18.1263C41.1721 18.2128 40.941 18.2163 40.7349 18.2525C40.5289 18.2887 40.3596 18.3608 40.3596 18.5884C40.3596 18.7905 40.5329 18.8626 40.7206 18.8626C41.1249 18.8626 41.291 18.6097 41.291 18.4401V18.1263Z" fill="#777777"/>
<path d="M43.8727 18.9312C43.8727 19.5377 43.5947 19.8483 43.0061 19.8483C42.6561 19.8483 42.2517 19.7075 42.2341 19.2994H42.54C42.5544 19.5233 42.8214 19.6026 43.0237 19.6026C43.4246 19.6026 43.5828 19.3138 43.5828 18.895V18.7723H43.5756C43.4747 18.9997 43.2295 19.1117 42.9942 19.1117C42.4383 19.1117 42.1604 18.6749 42.1604 18.1656C42.1604 17.7253 42.3768 17.1807 43.0232 17.1807C43.258 17.1807 43.4672 17.2853 43.5793 17.4913H43.5828V17.2251H43.8716L43.8727 18.9312ZM43.5694 18.1188C43.5694 17.7903 43.4252 17.4509 43.0386 17.4509C42.6452 17.4509 42.4862 17.7722 42.4862 18.1297C42.4862 18.4654 42.609 18.8407 43.0133 18.8407C43.4177 18.8407 43.5694 18.4686 43.5694 18.1188Z" fill="#777777"/>
<path d="M44.8481 16.8878H44.5411V16.5125H44.8481V16.8878ZM44.5411 17.2235H44.8481V19.0904H44.5411V17.2235Z" fill="#777777"/>
<path d="M45.5126 17.2233H45.8014V17.5196H45.8086C45.9385 17.2885 46.148 17.1802 46.4153 17.1802C46.9062 17.1802 47.0579 17.4618 47.0579 17.8625V19.0902H46.751V17.8265C46.751 17.5989 46.6067 17.4509 46.3719 17.4509C45.9992 17.4509 45.8192 17.7001 45.8192 18.0366V19.091H45.5126V17.2233Z" fill="#777777"/>
<path d="M49.3185 18.9312C49.3185 19.5377 49.0406 19.8483 48.452 19.8483C48.1019 19.8483 47.6976 19.7075 47.68 19.2994H47.9872C48.0016 19.5233 48.2686 19.6026 48.4706 19.6026C48.8715 19.6026 49.0297 19.3138 49.0297 18.895V18.7723H49.0225C48.9213 18.9997 48.6764 19.1117 48.4411 19.1117C47.8852 19.1117 47.6071 18.6749 47.6071 18.1656C47.6071 17.7253 47.8237 17.1807 48.4698 17.1807C48.7046 17.1807 48.9141 17.2853 49.0262 17.4913H49.0297V17.2251H49.3185V18.9312ZM49.0153 18.1188C49.0153 17.7903 48.8707 17.4509 48.4845 17.4509C48.091 17.4509 47.9321 17.7722 47.9321 18.1297C47.9321 18.4654 48.0548 18.8407 48.4592 18.8407C48.8636 18.8407 49.0153 18.4686 49.0153 18.1188Z" fill="#777777"/>
<path d="M51.0757 19.211C51.0464 19.1417 51.0006 19.0807 50.9421 19.0333C50.8837 18.9859 50.8145 18.9535 50.7407 18.9391C50.6668 18.9248 50.5906 18.9287 50.5186 18.9507C50.4467 18.9727 50.3812 19.012 50.328 19.0652C50.2748 19.1184 50.2355 19.1839 50.2136 19.2559C50.1916 19.3278 50.1877 19.4041 50.2021 19.4779C50.2166 19.5518 50.2489 19.6209 50.2963 19.6793C50.3438 19.7378 50.4048 19.7836 50.4741 19.8129C50.5307 19.8366 50.5915 19.8488 50.6529 19.8488C50.7143 19.8488 50.775 19.8366 50.8316 19.8129C50.9416 19.7662 51.0292 19.6786 51.0757 19.5685C51.0996 19.5119 51.1119 19.4512 51.1119 19.3897C51.1119 19.3283 51.0996 19.2676 51.0757 19.211ZM51.0284 19.3896C51.0284 19.4639 51.0064 19.5366 50.9652 19.5984C50.9239 19.6602 50.8653 19.7084 50.7967 19.7368C50.728 19.7653 50.6525 19.7728 50.5796 19.7583C50.5067 19.7439 50.4398 19.7081 50.3872 19.6556C50.3347 19.6031 50.2989 19.5361 50.2844 19.4633C50.2698 19.3904 50.2773 19.3149 50.3057 19.2462C50.3341 19.1775 50.3823 19.1189 50.444 19.0776C50.5058 19.0363 50.5784 19.0143 50.6527 19.0143C50.7523 19.0143 50.8478 19.0539 50.9182 19.1243C50.9886 19.1946 51.0282 19.2901 51.0284 19.3896Z" fill="#777777"/>
<path d="M50.8324 19.4692C50.8228 19.4456 50.8089 19.424 50.7914 19.4055C50.8121 19.3915 50.8288 19.3724 50.84 19.3501C50.8512 19.3278 50.8566 19.303 50.8556 19.278C50.8562 19.2542 50.8509 19.2306 50.8401 19.2094C50.8293 19.1881 50.8134 19.1699 50.7938 19.1564C50.731 19.1106 50.6325 19.1031 50.501 19.1282L50.4818 19.1319V19.6643H50.5939V19.4473H50.6538C50.7203 19.4473 50.7483 19.5538 50.7603 19.6438L50.7627 19.6643H50.8755L50.8718 19.6377C50.8652 19.5802 50.852 19.5236 50.8324 19.4692ZM50.7456 19.2828C50.7466 19.2918 50.7452 19.3008 50.7417 19.3091C50.7383 19.3174 50.7327 19.3246 50.7257 19.3302C50.7033 19.3435 50.6773 19.3495 50.6514 19.3475H50.5944V19.2203C50.6075 19.2203 50.6229 19.2189 50.6397 19.2189C50.7347 19.2184 50.7456 19.2549 50.7456 19.2823V19.2828Z" fill="#777777"/>
</g>
<defs>
<clipPath id="clip0_1554_3106">
<rect width="51.1119" height="20.6466" fill="white" transform="translate(0 2.17676)"/>
</clipPath>
</defs>
</svg>
