<svg width="66" height="25" viewBox="0 0 66 25" fill="none" xmlns="http://www.w3.org/2000/svg">
<path d="M21.1621 5.30988C20.2943 5.30988 17.0496 5.71317 13.0503 11.9641C11.8429 12.1657 10.7488 12.206 10.0319 11.7221C9.73008 11.5205 9.73008 12.0851 9.84327 12.4883C10.2206 13.5772 10.862 14.1015 11.6543 14.2628C9.73008 17.6504 9.12641 19.8281 6.67401 21.6429C5.95715 22.1672 4.93846 22.2075 4.10842 21.8849C3.16518 21.5219 2.48606 20.5137 2.37287 19.1022C2.25968 17.8923 2.75016 17.0051 3.50475 16.2792C3.69339 16.0776 3.69339 15.8759 3.61794 15.7146C3.50475 15.5533 3.35383 15.513 3.24064 15.513C2.82562 15.5533 1.69374 15.7549 0.976886 16.6422C0.561863 17.1261 0.184571 17.852 0.0713828 18.4166C-0.0418051 19.0215 -0.419098 22.4091 2.97654 23.498C3.16518 23.5787 6.07034 24.4659 8.97549 21.9252C11.9184 19.3038 13.5407 16.5615 15.1631 13.8595C16.6723 13.4562 18.2192 13.0529 19.4265 13.5772C19.8415 13.7385 19.9924 13.6175 19.7283 12.7706C19.2379 11.5608 18.0683 11.2785 16.7477 11.3591C16.9364 11.0768 17.125 10.7542 17.3514 10.4719C17.8796 9.62502 19.1247 7.93123 21.3507 6.11645C21.6148 5.91481 21.728 5.71317 21.6525 5.51153C21.6148 5.35021 21.3884 5.30988 21.1621 5.30988ZM30.1039 1.43836C30.0284 1.27704 29.8398 1.23671 29.5002 1.3577C26.746 2.16427 24.2181 2.36591 21.1621 2.08361C19.2379 1.88197 13.8426 1.3577 10.4469 2.24492C7.50405 3.01116 6.74947 5.30988 6.67401 5.43087C5.7685 7.81025 7.54178 9.70568 8.82458 10.109C9.76781 10.4316 10.9751 10.0686 11.5034 9.34272C11.6165 9.22174 11.5788 9.0201 11.5411 8.89911C11.4656 8.77813 11.3147 8.77813 11.1638 8.81846C11.0506 8.81846 10.8997 8.85878 10.7865 8.89911C9.20187 9.06043 7.80589 7.48762 8.22091 5.59218C8.3341 5.14857 8.67366 4.342 9.61689 3.89839C12.4466 2.60788 17.54 4.54364 21.5393 4.86627C27.3874 5.06791 29.5002 2.72887 30.0284 2.00295C30.1793 1.76098 30.2171 1.55934 30.1039 1.43836Z" fill="#777777"/>
<path d="M27.5383 12.8913C27.2742 11.3588 26.1801 10.6732 25.1236 10.6732C24.3313 10.6732 23.0108 11.1169 22.5958 12.8913H27.5383ZM22.6712 14.7464C22.7467 15.3513 23.6145 16.7225 25.1236 16.7225C26.0669 16.7225 26.7837 16.2789 27.161 15.4723H29.4248C28.8966 17.2064 27.1987 18.8196 25.1236 18.8196C22.4826 18.8196 20.4075 16.5612 20.4075 13.7382C20.4075 11.0362 22.3694 8.57617 25.1236 8.57617C27.9156 8.57617 29.7266 11.1975 29.7266 13.5769C29.7266 14.0608 29.6511 14.4238 29.5757 14.7464H22.6712ZM30.2548 8.93913H32.2167V9.78602H32.2545C32.6318 9.1811 33.0468 8.6165 34.1409 8.6165H34.3296V10.8346C32.3677 10.9152 32.3677 12.5687 32.3677 13.1333V18.497H30.2548V8.93913ZM35.0464 8.93913H37.0084V9.78602H37.0461C37.4611 9.1811 37.8384 8.6165 38.9703 8.6165H39.1589V10.8346C37.197 10.9152 37.197 12.5687 37.197 13.1333V18.497H35.0464V8.93913ZM43.7619 10.7136C42.0264 10.7136 41.1209 12.3267 41.1209 13.7785C41.1209 15.3917 42.2527 16.7225 43.7619 16.7225C45.2333 16.7225 46.3652 15.4723 46.3652 13.6979C46.3652 11.7218 45.0447 10.7136 43.7619 10.7136ZM48.4026 18.497H46.4407V17.3274C45.7616 18.1743 44.441 18.8196 43.3091 18.8196C41.0077 18.8196 38.9703 16.8435 38.9703 13.6575C38.9703 10.7539 40.9699 8.6165 43.4601 8.6165C45.2711 8.6165 46.3275 10.028 46.403 10.149H46.4407V8.93913H48.4026V18.497ZM49.4968 8.93913H51.4587V9.78602H51.4964C51.9114 9.1811 52.2887 8.6165 53.4206 8.6165H53.5715V10.8346C51.6473 10.9152 51.6473 12.5687 51.6473 13.1333V18.497H49.4968V8.93913ZM58.5518 10.7136C56.7785 10.7136 55.873 12.3267 55.873 13.7785C55.873 15.3917 57.0049 16.7225 58.5518 16.7225C60.0232 16.7225 61.1174 15.4723 61.1174 13.6979C61.1174 11.7218 59.7968 10.7136 58.5518 10.7136ZM63.1548 18.497H61.1928V17.3274C60.5137 18.1743 59.1932 18.8196 58.099 18.8196C55.7975 18.8196 53.7602 16.8435 53.7602 13.6575C53.7602 10.7539 55.7221 8.6165 58.2122 8.6165C60.0232 8.6165 61.1174 10.028 61.1551 10.149H61.1928V8.93913H63.1548V18.497Z" fill="#777777"/>
<path d="M64.5885 17.9323C64.7394 17.9323 64.8148 17.9323 64.8148 17.771C64.8148 17.65 64.7016 17.65 64.6262 17.65H64.4375V17.9323H64.5885ZM64.5885 18.0936H64.4375V18.4969H64.2489V17.4887H64.6262C64.8903 17.4887 65.0035 17.5693 65.0035 17.771C65.0035 17.9726 64.8903 18.0533 64.7394 18.0533L65.0035 18.4969H64.8148L64.5885 18.0936ZM65.2676 18.013C65.2676 17.6097 64.9658 17.287 64.6262 17.287C64.2866 17.287 63.9848 17.6097 63.9848 18.013C63.9848 18.3759 64.2866 18.6985 64.6262 18.6985C64.9658 18.6985 65.2676 18.3759 65.2676 18.013ZM64.6262 17.1257C65.0789 17.1257 65.4562 17.4887 65.4562 18.013C65.4562 18.4969 65.0789 18.9002 64.6262 18.9002C64.1734 18.9002 63.7961 18.4969 63.7961 18.013C63.7961 17.4887 64.1734 17.1257 64.6262 17.1257Z" fill="#777777"/>
</svg>
