<svg width="24" height="25" viewBox="0 0 24 25" fill="none" xmlns="http://www.w3.org/2000/svg">
<path fill-rule="evenodd" clip-rule="evenodd" d="M19.2594 8.82985H17.3493L14.6738 16.1723H16.5839L19.2594 8.82985ZM11.9979 24.5C11.8801 24.5 11.7611 24.4979 11.6425 24.4941L14.0952 17.754H17.4688C18.0623 17.754 18.7129 17.2991 18.915 16.7424L21.5753 9.43476C22.0116 8.23765 21.327 7.25996 20.052 7.25996H15.3702L11.4421 18.0548H11.4408L9.21307 24.1734C3.93067 22.9182 0 18.167 0 12.5C0 6.83296 3.70658 2.35626 8.76066 0.942672L6.46216 7.25953H6.46089L2.64078 17.754H5.18413L8.43321 8.83663H10.3445L7.09545 17.754L9.63711 17.7553L12.6646 9.43476C13.1001 8.23765 12.4151 7.25996 11.143 7.25996H9.00551L11.4595 0.513555C11.6387 0.50466 11.8183 0.5 11.9979 0.5C18.6269 0.5 23.9991 5.87264 23.9991 12.5C23.9991 19.1274 18.6269 24.5 11.9979 24.5Z" fill="#777777"/>
</svg>
