<svg width="120" height="120" viewBox="0 0 120 120" fill="none" xmlns="http://www.w3.org/2000/svg">
<rect width="120" height="120" rx="4" fill="#F4F4F4"/>
<path d="M73.0583 60.9788C73.0012 55.0512 77.9332 52.2031 78.1552 52.0654C75.382 48.04 71.0662 47.4883 69.5284 47.4218C65.8532 47.0528 62.3589 49.5694 60.496 49.5694C58.6332 49.5694 55.756 47.478 52.7112 47.5352C48.7045 47.5923 45.0144 49.8457 42.9493 53.4028C38.7909 60.5704 41.8863 71.1856 45.9407 76.9989C47.9225 79.8405 50.2836 83.0399 53.3883 82.9237C56.377 82.8085 57.5065 81.0075 61.117 81.0075C64.7275 81.0075 65.7446 82.9237 68.9037 82.8647C72.1189 82.8085 74.156 79.967 76.1237 77.1141C78.3987 73.8136 79.3343 70.618 79.3915 70.4532C79.3212 70.4214 73.123 68.0631 73.0583 60.9779" fill="#333333"/>
<path d="M67.1214 43.5752C68.7697 41.5943 69.8786 38.8408 69.5742 36.0975C67.2019 36.194 64.3285 37.6672 62.6248 39.6462C61.0992 41.3995 59.7627 44.2008 60.1233 46.8897C62.7681 47.0929 65.472 45.5541 67.1204 43.5752" fill="#333333"/>
</svg>
