<svg width="101" height="25" viewBox="0 0 101 25" fill="none" xmlns="http://www.w3.org/2000/svg">
<path d="M13.7114 6.22637H15.4577V18.709H13.7114V6.22637ZM1.74627 17.0274V6.22637H1.19652C0.517412 6.22637 0 6.77612 0 7.42289V16.9303C0 17.9328 0.808458 18.709 1.77861 18.709H9.1194C9.83084 18.709 10.4129 18.1592 10.4129 17.4478V17.0274H1.74627ZM21.2786 18.709H21.8284V12.9527H29.6866V11.3035H21.8284V7.87562H30.107V6.19403H21.408C20.6965 6.19403 20.1144 6.77612 20.1144 7.48756V17.5124C20.1144 18.1915 20.6318 18.709 21.2786 18.709ZM47.796 9.58955C47.408 8.78109 46.8259 8.10199 46.1144 7.55224C45.3706 7.00249 44.5298 6.61443 43.6244 6.38806C42.6219 6.12935 41.6194 6 40.5846 6C39.8731 6 39.194 6.06468 38.5149 6.16169C37.8681 6.25871 37.2537 6.45274 36.6393 6.6791C36.0572 6.90547 35.5398 7.19652 35.0547 7.55224C34.5696 7.90796 34.1492 8.32836 33.8259 8.81343C33.4701 9.33085 33.2114 9.8806 33.0174 10.4627C32.8234 11.1095 32.7264 11.7886 32.7264 12.5C32.694 13.5025 32.9204 14.505 33.3408 15.4104C33.7288 16.2189 34.3109 16.898 35.0224 17.4478C35.7662 17.9975 36.607 18.3856 37.5124 18.6119C38.5149 18.8706 39.5497 19 40.5522 19C41.5871 19 42.5895 18.8706 43.592 18.6119C44.4975 18.3856 45.3383 17.9975 46.0821 17.4478C46.7935 16.9303 47.3756 16.2189 47.7637 15.4104C48.1841 14.505 48.4104 13.5025 48.3781 12.5C48.4104 11.4652 48.2164 10.495 47.796 9.58955ZM46.6318 12.5C46.6318 13.2114 46.5025 13.9229 46.2438 14.602C45.9851 15.1841 45.6293 15.7015 45.1119 16.1219C44.5622 16.5423 43.9154 16.8657 43.2363 17.0597C41.4577 17.4801 39.6468 17.4801 37.8681 17.0597C37.189 16.8657 36.5423 16.5746 35.9602 16.1219C35.4751 15.7338 35.0871 15.2164 34.8284 14.6343C34.5696 13.9876 34.4403 13.2761 34.4403 12.5323C34.4403 11.8209 34.5696 11.1095 34.8284 10.4627C35.0871 9.8806 35.4751 9.36318 35.9602 8.97512C36.5099 8.52239 37.1567 8.19901 37.8681 8.00498C39.6144 7.55224 41.49 7.55224 43.2363 8.00498C43.9154 8.19901 44.5622 8.49005 45.1119 8.94279C45.597 9.33085 45.9851 9.84826 46.2438 10.4303C46.5348 11.0448 46.6642 11.7562 46.6318 12.5ZM61.1517 13.3731C61.8955 13.2114 62.5423 12.8234 63.0597 12.306C63.6094 11.6592 63.8682 10.8184 63.8358 9.94527C63.8358 9.39552 63.7388 8.84577 63.5124 8.32836C63.2861 7.84328 62.9303 7.42289 62.5099 7.13184C61.9925 6.80846 61.4104 6.54975 60.796 6.45274C60.0199 6.29105 59.2114 6.22637 58.403 6.22637H53.5199C52.7761 6.22637 52.194 6.80846 52.194 7.55224V17.6095C52.194 18.2239 52.6791 18.709 53.2935 18.709H53.9403V13.6642H59.2761L62.898 18.4826C63.0273 18.6443 63.2214 18.7413 63.4154 18.7413H65.291L61.1517 13.3731ZM53.9403 7.87562H57.3035C58.2413 7.87562 59.0497 7.90796 59.6642 7.97264C60.1816 8.00498 60.6667 8.10199 61.1517 8.29602C61.4428 8.39303 61.7015 8.6194 61.8632 8.87811C62.0249 9.20149 62.1219 9.58955 62.0895 9.94527C62.1219 10.301 62.0249 10.6891 61.8632 11.0124C61.7015 11.2711 61.4428 11.4652 61.1517 11.5945C60.6667 11.7886 60.1816 11.8856 59.6642 11.9179C59.0174 11.9826 58.2089 12.0149 57.2711 12.0149H53.9403V7.87562ZM76.6418 16.6716L69.8831 6.22637H68.2015V17.5124C68.2015 18.1915 68.7512 18.709 69.398 18.709H69.9478V9.39552L75.5423 18.0299C75.801 18.4502 76.2537 18.709 76.7711 18.709C77.0945 18.709 77.3856 18.5473 77.5796 18.2562L83.2711 9.42786V17.2861C83.2711 18.0622 83.9179 18.709 84.694 18.709H84.9851V6.22637H83.3358L76.6418 16.6716ZM91.4527 17.0274V12.9527H99.699V11.3035H91.4527V7.87562H100.152V6.19403H91.3557C90.4179 6.19403 89.6418 6.97015 89.6418 7.90796V16.6393C89.6418 17.7711 90.5472 18.6766 91.6791 18.6766H99.3433C99.893 18.6766 100.313 18.2562 100.313 17.7065V17.0274H91.4527Z" fill="#777777"/>
</svg>
