<svg width="278" height="40" viewBox="0 0 278 40" fill="none" xmlns="http://www.w3.org/2000/svg">
<path d="M55.3764 13.6031C55.3574 13.6031 55.3764 16.7968 55.3764 16.8158H59.1214V26.3969H62.8854V16.8158H66.6494C66.6684 16.8158 66.6494 13.6031 66.6494 13.6031H55.3764Z" fill="#10238C"/>
<path d="M25.1124 26.3969C26.9183 22.2147 28.7813 17.8613 30.4352 13.6031H26.4051C25.3215 16.3405 23.0783 22.0055 23.0783 22.0055C21.9567 19.3251 20.9302 16.3025 19.7325 13.6031H15.8354C17.4703 17.8994 19.2192 22.2147 21.0632 26.3969H25.1124Z" fill="#10238C"/>
<path d="M52.2778 21.5683L52.1827 21.4162C53.8556 20.4847 54.7871 18.3176 54.483 16.8538C53.7986 13.6031 50.833 13.6031 49.9586 13.6031C48.97 13.6031 43.8563 13.6031 43.8563 13.6031V26.3969H47.5633V21.0741L51.9926 26.3969H56.5361L52.2778 21.5683ZM49.2362 19.3822C48.7229 19.3822 47.5443 19.3822 47.5443 19.3822V16.4356C47.5443 16.4356 48.7799 16.4356 49.2362 16.4356C49.8635 16.4356 50.852 16.8348 50.852 17.9184C50.852 19.002 49.7495 19.3822 49.2362 19.3822Z" fill="#10238C"/>
<path d="M37.526 13.6031H33.5909L28.192 26.3969H31.975L32.7925 24.686H38.2484L39.1798 26.3969H43.1339C43.1339 26.3969 39.408 17.7663 37.526 13.6031ZM34.0661 21.7204L35.5109 17.6522L37.1268 21.7204H34.0661Z" fill="#10238C"/>
<path d="M73.9873 13.6031H70.0522L64.6533 26.3969H68.4363L69.2538 24.686H74.7097L75.6412 26.3969H79.5953C79.5953 26.3969 75.8693 17.7663 73.9873 13.6031ZM70.5274 21.7204L71.9722 17.6522L73.6071 21.7204H70.5274Z" fill="#10238C"/>
<path d="M0.019043 14.0023H11.9764V26.0167H0.019043V14.0023Z" fill="#10238C"/>
<path d="M5.98818 24.629L0 14.0023H11.9764L5.98818 24.629Z" fill="#FFC907"/>
<path d="M5.98816 24.629L0.0570068 14.0784L5.98816 24.629ZM11.9383 14.0784L5.98816 24.629L11.9383 14.0784Z" fill="black"/>
</svg>
