<svg width="278" height="40" viewBox="0 0 278 40" fill="none" xmlns="http://www.w3.org/2000/svg">
<g clip-path="url(#clip0_1458_16404)">
<path d="M20.1933 13.026H18.658V26.948H27.5056V25.5688H20.1933V13.026ZM35.1822 21.6654L37.8364 15.1078L40.4907 21.6654H35.1822ZM37.1338 13.026L31.435 26.948H32.9963L34.5576 23.0706H41.0372L42.5985 26.948H44.1599L38.461 13.026H37.1338ZM50.6915 19.974V14.4052H54.9852C56.7547 14.4052 57.9257 15.4981 57.9257 17.1896C57.9257 18.881 56.7807 19.974 54.9852 19.974H50.6915ZM59.513 17.1896C59.513 14.7955 57.6134 13.026 55.0112 13.026H49.1301V26.948H50.7175V21.3792H54.9071L58.1599 26.948H59.9554L56.4684 21.171C56.4684 21.171 59.513 20.3643 59.513 17.1896ZM65.8104 26.9219H67.3718V13H65.8104V26.9219ZM81.0335 25.5688C77.7547 25.5688 75.2045 23.1487 75.2045 19.974C75.2045 16.7993 77.7547 14.3792 81.0335 14.3792C84.3123 14.3792 86.8625 16.7993 86.8625 19.974C86.8625 23.1487 84.3123 25.5688 81.0335 25.5688ZM81.0335 13.026C76.948 13.026 73.6692 16.1227 73.6692 19.974C73.6692 23.8253 76.948 26.9219 81.0335 26.9219C85.119 26.9219 88.3978 23.8253 88.3978 19.974C88.3978 16.0967 85.119 13.026 81.0335 13.026ZM94.2008 16.6952C94.2008 15.4721 95.3197 14.3792 97.3235 14.3792C99.5093 14.3792 100.576 15.7323 100.576 15.7323L101.617 14.7695C101.617 14.7695 100.134 13.026 97.3235 13.026C94.5131 13.026 92.6134 14.7175 92.6134 16.6952C92.6134 21.5353 100.55 19.5836 100.55 23.0706C100.55 24.5279 99.4053 25.5948 97.1934 25.5948C94.487 25.5948 93.238 23.9294 93.238 23.9294L92.2751 24.9182C92.2751 24.9182 93.8365 26.948 97.1934 26.948C100.342 26.948 102.112 25.3086 102.112 23.0706C102.138 18.2305 94.2008 20.1561 94.2008 16.6952ZM7.07807 25.6468C3.92937 25.6468 1.48327 23.2268 1.48327 20.052C1.48327 16.8773 3.92937 14.4572 7.07807 14.4572C10.2268 14.4572 11.684 16.7732 11.684 16.7732L12.6729 15.9145C12.6729 15.9145 10.7993 13.1041 7.07807 13.1041C3.1487 13.1041 0 16.2007 0 20.052C0 23.9033 3.1487 27 7.07807 27C10.7993 27 12.777 24.1896 12.777 24.1896L11.7881 23.3309C11.7881 23.3048 10.2268 25.6468 7.07807 25.6468Z" fill="#490E6F"/>
</g>
<defs>
<clipPath id="clip0_1458_16404">
<rect width="102.112" height="14" fill="white" transform="translate(0 13)"/>
</clipPath>
</defs>
</svg>
