<svg width="278" height="40" viewBox="0 0 278 40" fill="none" xmlns="http://www.w3.org/2000/svg">
<g clip-path="url(#clip0_1411_15629)">
<path d="M22.1572 13.0465C21.2536 13.0465 17.875 13.4393 13.7107 19.5286C12.4536 19.725 11.3143 19.7643 10.5679 19.2929C10.2536 19.0965 10.2536 19.6465 10.3715 20.0393C10.7643 21.1 11.4322 21.6107 12.2572 21.7679C10.2536 25.0679 9.62503 27.1893 7.07146 28.9572C6.32503 29.4679 5.26431 29.5072 4.40003 29.1929C3.41789 28.8393 2.71074 27.8572 2.59289 26.4822C2.47503 25.3036 2.98574 24.4393 3.77146 23.7322C3.96789 23.5357 3.96789 23.3393 3.88931 23.1822C3.77146 23.025 3.61431 22.9857 3.49646 22.9857C3.06431 23.025 1.88574 23.2215 1.13932 24.0857C0.707173 24.5572 0.314316 25.2643 0.196459 25.8143C0.0786017 26.4036 -0.314255 29.7036 3.22146 30.7643C3.41789 30.8429 6.44289 31.7072 9.46788 29.2322C12.5322 26.6786 14.2215 24.0072 15.9107 21.375C17.4822 20.9822 19.0929 20.5893 20.35 21.1C20.7822 21.2572 20.9393 21.1393 20.6643 20.3143C20.1536 19.1357 18.9357 18.8607 17.5607 18.9393C17.7572 18.6643 17.9536 18.35 18.1893 18.075C18.7393 17.25 20.0357 15.6 22.3536 13.8322C22.6286 13.6357 22.7465 13.4393 22.6679 13.2429C22.6286 13.0857 22.3929 13.0465 22.1572 13.0465ZM31.4679 9.27503C31.3893 9.11789 31.1929 9.0786 30.8393 9.19646C27.9714 9.98217 25.3393 10.1786 22.1572 9.9036C20.1536 9.70717 14.5357 9.19646 11 10.0607C7.93574 10.8072 7.15003 13.0465 7.07146 13.1643C6.1286 15.4822 7.97503 17.3286 9.31074 17.7215C10.2929 18.0357 11.55 17.6822 12.1 16.975C12.2179 16.8572 12.1786 16.6607 12.1393 16.5429C12.0607 16.425 11.9036 16.425 11.7465 16.4643C11.6286 16.4643 11.4715 16.5036 11.3536 16.5429C9.7036 16.7 8.25003 15.1679 8.68217 13.3215C8.80003 12.8893 9.1536 12.1036 10.1357 11.6715C13.0822 10.4143 18.3857 12.3 22.55 12.6143C28.6393 12.8107 30.8393 10.5322 31.3893 9.82503C31.5464 9.58931 31.5857 9.39289 31.4679 9.27503Z" fill="#C4113B"/>
<path d="M28.7965 20.4321C28.5215 18.9393 27.3822 18.2714 26.2822 18.2714C25.4572 18.2714 24.0822 18.7036 23.65 20.4321H28.7965ZM23.7286 22.2393C23.8072 22.8286 24.7107 24.1643 26.2822 24.1643C27.2643 24.1643 28.0107 23.7322 28.4036 22.9464H30.7608C30.2108 24.6357 28.4429 26.2072 26.2822 26.2072C23.5322 26.2072 21.3715 24.0072 21.3715 21.2572C21.3715 18.625 23.4143 16.2286 26.2822 16.2286C29.1893 16.2286 31.075 18.7821 31.075 21.1C31.075 21.5714 30.9965 21.925 30.9179 22.2393H23.7286ZM31.625 16.5821H33.6679V17.4071H33.7072C34.1 16.8179 34.5322 16.2679 35.6715 16.2679H35.8679V18.4286C33.825 18.5071 33.825 20.1179 33.825 20.6679V25.8929H31.625V16.5821ZM36.6143 16.5821H38.6572V17.4071H38.6965C39.1286 16.8179 39.5215 16.2679 40.7 16.2679H40.8965V18.4286C38.8536 18.5071 38.8536 20.1179 38.8536 20.6679V25.8929H36.6143V16.5821ZM45.6893 18.3107C43.8822 18.3107 42.9393 19.8821 42.9393 21.2964C42.9393 22.8679 44.1179 24.1643 45.6893 24.1643C47.2215 24.1643 48.4 22.9464 48.4 21.2179C48.4 19.2929 47.025 18.3107 45.6893 18.3107ZM50.5215 25.8929H48.4786V24.7536C47.7715 25.5786 46.3965 26.2072 45.2179 26.2072C42.8215 26.2072 40.7 24.2822 40.7 21.1786C40.7 18.35 42.7822 16.2679 45.375 16.2679C47.2608 16.2679 48.3608 17.6429 48.4393 17.7607H48.4786V16.5821H50.5215V25.8929ZM51.6608 16.5821H53.7036V17.4071H53.7429C54.175 16.8179 54.5679 16.2679 55.7465 16.2679H55.9036V18.4286C53.9 18.5071 53.9 20.1179 53.9 20.6679V25.8929H51.6608V16.5821ZM61.0893 18.3107C59.2429 18.3107 58.3 19.8821 58.3 21.2964C58.3 22.8679 59.4786 24.1643 61.0893 24.1643C62.6215 24.1643 63.7608 22.9464 63.7608 21.2179C63.7608 19.2929 62.3858 18.3107 61.0893 18.3107ZM65.8822 25.8929H63.8393V24.7536C63.1322 25.5786 61.7572 26.2072 60.6179 26.2072C58.2215 26.2072 56.1 24.2822 56.1 21.1786C56.1 18.35 58.1429 16.2679 60.7358 16.2679C62.6215 16.2679 63.7608 17.6429 63.8 17.7607H63.8393V16.5821H65.8822V25.8929Z" fill="#C4113B"/>
<path d="M67.375 25.3429C67.5321 25.3429 67.6107 25.3429 67.6107 25.1858C67.6107 25.0679 67.4928 25.0679 67.4143 25.0679H67.2178V25.3429H67.375ZM67.375 25.5H67.2178V25.8929H67.0214V24.9108H67.4143C67.6893 24.9108 67.8071 24.9893 67.8071 25.1858C67.8071 25.3822 67.6893 25.4608 67.5321 25.4608L67.8071 25.8929H67.6107L67.375 25.5ZM68.0821 25.4215C68.0821 25.0286 67.7678 24.7143 67.4143 24.7143C67.0607 24.7143 66.7464 25.0286 66.7464 25.4215C66.7464 25.775 67.0607 26.0893 67.4143 26.0893C67.7678 26.0893 68.0821 25.775 68.0821 25.4215ZM67.4143 24.5572C67.8857 24.5572 68.2786 24.9108 68.2786 25.4215C68.2786 25.8929 67.8857 26.2858 67.4143 26.2858C66.9428 26.2858 66.55 25.8929 66.55 25.4215C66.55 24.9108 66.9428 24.5572 67.4143 24.5572Z" fill="#C4113B"/>
</g>
<defs>
<clipPath id="clip0_1411_15629">
<rect width="68.3572" height="22" fill="white" transform="translate(0 9)"/>
</clipPath>
</defs>
</svg>
