<svg width="278" height="40" viewBox="0 0 278 40" fill="none" xmlns="http://www.w3.org/2000/svg">
<g clip-path="url(#clip0_2151_14955)">
<path fill-rule="evenodd" clip-rule="evenodd" d="M23.9321 26.1802C23.7202 26.8267 23.3398 27.6513 23.2774 28.3025C23.3344 28.7356 23.4401 28.9918 23.9867 28.9918C24.7393 28.9918 25.8996 28.2105 26.3839 27.8792C26.6682 27.6849 28.2998 26.4994 28.5063 26.4457C28.3894 26.8713 27.7442 27.324 27.7442 27.9312V27.9844C27.7442 28.1562 27.9419 28.2499 28.1253 28.2499H28.2339C29.2601 28.2499 30.4121 26.0033 30.4121 24.9607C30.4121 24.7889 30.2145 24.6952 30.0311 24.6952C28.3989 24.6952 25.7702 27.4542 25.0212 27.4542C24.896 27.4542 24.858 27.4171 24.858 27.2951V27.2419C24.858 26.936 25.7239 25.3626 25.9156 25.089C26.1441 24.7617 26.2498 24.3697 26.5323 24.0985C26.8196 23.8226 27.0641 23.5809 27.3496 23.3028C28.4084 22.2706 29.7616 21.3372 30.8359 20.3328C31.9469 19.2942 33.1375 18.3412 34.2379 17.2813C34.7869 16.7527 36.8927 14.2696 36.8927 13.4479C36.8927 13.1484 36.355 13.0235 36.0214 13.0235C34.2925 13.0235 32.2443 14.8265 31.1849 15.6326C30.2311 16.3589 29.2542 17.3512 28.4167 18.4129C27.3875 19.7175 26.2468 21.4529 25.591 22.9685C25.2877 23.6682 25.3458 23.5913 24.7879 24.0429C24.1113 24.5911 21.1087 26.9221 20.2286 26.9221H20.0653C19.9431 26.9221 19.946 26.8799 19.8475 26.8163C20.0131 26.5752 21.7486 25.3018 22.1486 24.9734C22.6204 24.5854 23.9861 23.382 23.9861 22.6782V22.466C23.9861 22.1902 23.3884 21.9357 23.0602 21.9357H22.897C21.6257 21.9357 20.2689 22.7754 19.6161 23.408C19.0107 23.9944 18.0504 25.4828 18.0504 26.6047C17.7334 27.0656 15.6816 28.5673 14.9463 28.5673C14.8187 28.5673 14.7284 28.4794 14.7284 28.3551V28.1429C14.7284 27.6409 15.5184 26.0484 16.2639 24.6987C17.1126 23.1622 18.1109 21.705 19.0961 20.2489C19.3674 19.8482 20.7188 18.1197 20.7188 17.7444C20.7188 17.6409 20.4624 17.479 20.2832 17.479H20.0107C19.2445 17.479 13.8779 22.3064 13.358 23.0582L13.3129 22.9963C13.2987 22.9824 15.6223 19.2734 15.6994 19.1676C16.0004 18.7541 17.9958 15.5453 17.9958 15.1977V15.1445C17.9958 15.0202 17.9055 14.9323 17.7779 14.9323H17.6687C16.0633 14.9323 12.6108 19.6279 11.1887 20.556C11.1982 20.5219 12.6387 18.3759 12.8138 18.107C13.342 17.294 13.926 16.4208 14.4192 15.5863C14.8537 14.8519 16.2936 12.5967 16.9025 11.1412C17.0432 10.8052 17.4824 9.99854 16.7974 9.99854H16.5796C15.2709 9.99854 12.5597 13.3623 11.692 14.2025C10.616 15.2452 9.69306 16.3763 8.73988 17.5241C7.59498 18.9045 6.47443 20.1628 5.44764 21.6478C4.21076 23.4369 2.82015 25.1272 1.64736 26.9644C1.37969 27.3836 1.00755 27.9457 0.787359 28.3545C0.588532 28.724 0.299489 29.3139 0.0620832 29.6984C-0.00498408 29.8071 -0.0441561 29.9378 0.0769211 29.9829C0.195031 30.0269 0.242512 29.9743 0.32145 29.891C0.916746 29.2618 3.13887 26.0871 3.47064 25.6633C4.65233 24.1551 5.78654 22.5296 7.00918 21.0082C8.59684 19.0317 10.3519 17.0737 12.1265 15.2625C12.5117 14.8699 13.5135 13.9522 13.9177 13.4745C14.0524 13.3155 14.0839 13.3415 13.9877 13.4681C13.9818 13.4757 13.9385 13.5514 13.9284 13.5693C13.8661 13.674 13.856 13.6827 13.8043 13.7671C13.7141 13.9157 13.6388 14.0476 13.5414 14.2008C13.3509 14.4998 13.2209 14.7999 13.0423 15.0937C12.6927 15.6679 12.3769 16.2161 12.0238 16.8071C11.3324 17.9636 10.686 19.0901 9.98923 20.2362C9.50788 21.0284 5.96104 26.6764 5.96104 27.1344C5.96104 27.3709 6.18182 27.612 6.39668 27.612C6.7789 27.612 7.18961 26.8921 7.44542 26.618C7.76057 26.2808 8.13627 25.8535 8.42116 25.4996C9.05622 24.7114 9.66635 23.995 10.2955 23.1871C10.8142 22.5209 13.8684 19.1173 14.456 18.964C13.742 20.2784 12.7698 21.5304 11.9728 22.8049C11.7365 23.1831 9.77259 26.7643 9.77259 26.9216V27.1338C9.77259 27.3489 10.0735 27.7173 10.2628 27.7173H10.3715C10.5353 27.7173 16.1167 21.9733 16.861 21.3424L16.9061 21.4043C16.9156 21.4136 16.3933 22.0462 16.3387 22.1248C15.8116 22.8847 15.2246 23.6902 14.8169 24.5154C14.3468 25.4672 13.4203 27.0193 13.4203 28.3013C13.4203 29.0432 13.8589 29.6805 14.6186 29.6805H14.8365C16.068 29.6805 17.8622 28.1602 18.7026 27.6114C18.87 27.8549 19.3472 28.1949 19.7371 28.1949H19.7917C20.4856 28.1949 21.2892 27.7826 21.7711 27.5235C22.5278 27.1164 23.2228 26.6405 23.9303 26.1791L23.9321 26.1802ZM36.7835 22.891L37.3093 22.4943L37.0013 23.0506L35.911 24.786L34.9863 24.8548C34.9299 24.937 34.8231 25.048 34.8231 25.1729C34.8231 25.3643 35.2041 25.5175 35.2041 25.8628V25.916C35.2041 26.26 34.5507 27.3362 34.5507 27.985C34.5507 28.1481 34.7103 28.1972 34.8771 28.1972H34.9857C35.9152 28.1972 36.0956 27.1355 36.4185 26.463C36.5348 26.2207 36.8138 25.6147 37.0446 25.5343C37.1924 25.4828 38.2139 25.2799 38.4169 25.2799C38.1118 25.7234 37.6002 26.145 37.6002 26.8713V27.0303C37.6002 27.5652 38.259 27.985 38.8525 27.985C39.6822 27.985 40.3671 27.5155 40.8776 27.1905L40.8129 27.7196C40.7132 28.4268 41.6663 29.2584 42.4462 29.2584C43.711 29.2584 45.5657 28.0908 46.2584 27.0835L46.3753 26.9308L46.0952 27.0303C44.847 27.3136 44.009 28.2504 42.61 28.2504C42.2646 28.2504 42.0112 27.9121 42.0112 27.5606V27.4547C42.0112 26.1322 44.0262 24.1574 44.0262 24.0065V23.8475C44.0262 23.7237 43.8808 23.5821 43.7537 23.5821H43.6991C43.1127 23.5821 42.7335 24.1655 42.61 24.1655C42.4943 24.1655 42.1239 23.6879 41.3577 23.6879C40.5915 23.6879 39.976 23.9394 39.5184 24.2835C39.3671 24.3974 37.8008 24.6426 37.437 24.6426C37.5628 24.1835 39.1973 21.6911 39.5499 21.2366C39.9535 20.7156 40.3695 20.2391 40.7695 19.7192C40.8681 19.5914 42.1554 18.1168 41.6301 18.1168H41.1399C40.5084 18.1168 38.5361 20.7098 38.1058 21.2621C37.8548 21.5841 34.7816 23.6382 34.3875 23.7405C34.4753 23.3745 36.2268 20.3715 36.5016 20.0176C36.7461 19.703 38.8982 16.6799 38.9071 16.5787H38.5807C37.5847 16.5787 36.4149 18.1446 35.562 19.3856C35.0291 20.161 34.5507 21.0169 33.9963 21.768C33.7554 22.0948 33.4562 22.6395 33.2426 22.9963C33.0052 23.3924 32.7755 23.822 32.5381 24.2199C32.1861 24.8092 31.2294 24.5958 31.2294 24.908C31.2294 25.2388 31.6104 25.4487 31.6104 25.8628C31.6104 26.4994 31.1202 26.9921 31.1202 27.6664C31.1202 27.8844 31.4193 27.9844 31.665 27.9844H31.7196C32.3915 27.9844 32.95 25.5129 33.7198 24.9462C34.0723 24.6866 36.5752 22.946 36.7841 22.8916L36.7835 22.891ZM39.3427 26.3393C39.3427 25.7778 40.3036 24.8537 40.9221 24.8537H41.3577C41.5168 24.8537 41.7388 25.1179 41.7388 25.2781C41.7388 25.9622 40.6811 26.8169 39.9416 26.8169H39.833C39.6205 26.8169 39.3427 26.6145 39.3427 26.4457V26.3398V26.3393ZM19.6843 25.809C20.1306 25.5175 22.4068 23.5821 22.4068 23.1033C22.4068 22.9812 22.3688 22.9442 22.2435 22.9442H22.1343C21.12 22.9442 19.6837 24.8271 19.6837 25.809H19.6843ZM30.1397 22.8378V22.9969C30.1397 23.3392 30.3433 23.6335 30.6839 23.6335H30.8471C31.4223 23.6335 31.9909 22.9801 31.9909 22.4134V22.2012C31.9909 21.8987 31.7042 21.6709 31.392 21.6709C30.8133 21.6709 30.1397 22.4452 30.1397 22.8378ZM27.9615 21.0342L27.8202 21.3251L28.1253 21.0874C28.9253 20.5652 34.4421 15.5089 34.4421 14.8803V14.8271C34.4421 14.7051 34.4041 14.6681 34.2789 14.6681C33.3459 14.6681 31.3184 16.8672 30.7267 17.4675C30.275 17.926 28.0814 20.5334 27.9621 21.0342H27.9615ZM46.2032 18.3262C47.0561 18.3262 47.7475 18.9999 47.7475 19.8308C47.7475 20.6618 47.0561 21.3355 46.2032 21.3355C45.3503 21.3355 44.6589 20.6618 44.6589 19.8308C44.6589 18.9999 45.3503 18.3262 46.2032 18.3262ZM46.2032 18.0804C47.1955 18.0804 48.0003 18.8646 48.0003 19.8314C48.0003 20.7983 47.1955 21.5824 46.2032 21.5824C45.2108 21.5824 44.406 20.7983 44.406 19.8314C44.406 18.8646 45.2108 18.0804 46.2032 18.0804ZM46.4525 19.6666H45.799V19.0299H46.4525C46.6359 19.0299 46.8335 19.1236 46.8335 19.2954C46.8335 19.5429 46.7065 19.6666 46.4525 19.6666ZM47.0133 19.6892C47.1599 19.5168 47.1528 19.123 46.9653 18.9669C46.751 18.7882 46.4631 18.8177 46.234 18.8177H45.526V20.7804H45.7984V19.9315H46.2768L46.7866 20.7804H47.0507C46.8744 20.4878 46.6988 20.1946 46.5225 19.902C46.7344 19.8777 46.8638 19.8644 47.0127 19.6892H47.0133Z" fill="#E2001A"/>
</g>
<defs>
<clipPath id="clip0_2151_14955">
<rect width="48" height="20" fill="white" transform="translate(0 10)"/>
</clipPath>
</defs>
</svg>
