<svg width="52" height="25" viewBox="0 0 52 25" fill="none" xmlns="http://www.w3.org/2000/svg">
<path fill-rule="evenodd" clip-rule="evenodd" d="M25.6501 19.2996C25.423 20.0108 25.0153 20.9178 24.9485 21.6341C25.0096 22.1105 25.1228 22.3923 25.7086 22.3923C26.5152 22.3923 27.7587 21.5329 28.2778 21.1684C28.5825 20.9547 30.3311 19.6507 30.5524 19.5916C30.4271 20.0597 29.7357 20.5578 29.7357 21.2257V21.2842C29.7357 21.4731 29.9475 21.5762 30.1441 21.5762H30.2605C31.3603 21.5762 32.5949 19.105 32.5949 17.9581C32.5949 17.7692 32.3831 17.6661 32.1865 17.6661C30.4373 17.6661 27.6201 20.7009 26.8173 20.7009C26.6831 20.7009 26.6424 20.6602 26.6424 20.526V20.4675C26.6424 20.131 27.5705 18.4002 27.7759 18.0993C28.0208 17.7393 28.134 17.308 28.4368 17.0097C28.7447 16.7063 29.0067 16.4404 29.3127 16.1344C30.4475 14.999 31.8978 13.9724 33.0491 12.8675C34.2398 11.7251 35.5158 10.6768 36.6951 9.51088C37.2835 8.92949 39.5403 6.19814 39.5403 5.29426C39.5403 4.96477 38.964 4.82737 38.6066 4.82737C36.7536 4.82737 34.5585 6.81069 33.4231 7.69739C32.4009 8.49632 31.3539 9.58784 30.4564 10.7557C29.3534 12.1907 28.1308 14.0996 27.428 15.7668C27.1029 16.5365 27.1653 16.4519 26.5673 16.9486C25.8422 17.5517 22.6242 20.1157 21.6809 20.1157H21.506C21.375 20.1157 21.3782 20.0693 21.2726 19.9993C21.45 19.7341 23.3099 18.3334 23.7387 17.9721C24.2444 17.5453 25.708 16.2216 25.708 15.4475V15.214C25.708 14.9106 25.0675 14.6307 24.7157 14.6307H24.5408C23.1783 14.6307 21.7242 15.5543 21.0245 16.2502C20.3757 16.8952 19.3465 18.5325 19.3465 19.7665C19.0068 20.2735 16.8079 21.9254 16.0198 21.9254C15.883 21.9254 15.7863 21.8287 15.7863 21.6919V21.4585C15.7863 20.9064 16.6329 19.1546 17.4319 17.67C18.3415 15.9799 19.4114 14.3769 20.4673 12.7753C20.758 12.3345 22.2063 10.4332 22.2063 10.0204C22.2063 9.90652 21.9315 9.72842 21.7395 9.72842H21.4475C20.6263 9.72842 14.8748 15.0385 14.3176 15.8654L14.2692 15.7973C14.254 15.7821 16.7443 11.7022 16.827 11.5858C17.1494 11.131 19.288 7.60134 19.288 7.21906V7.16054C19.288 7.02378 19.1913 6.92709 19.0545 6.92709H18.9375C17.2169 6.92709 13.5168 12.0921 11.9927 13.113C12.0029 13.0755 13.5467 10.715 13.7343 10.4192C14.3004 9.52487 14.9263 8.56438 15.4549 7.64651C15.9205 6.83868 17.4637 4.35794 18.1163 2.75691C18.2671 2.38734 18.7378 1.5 18.0037 1.5H17.7703C16.3677 1.5 13.4621 5.20012 12.5321 6.12435C11.3789 7.27122 10.3898 8.5154 9.3682 9.77803C8.14119 11.2964 6.94026 12.6805 5.83983 14.314C4.51422 16.282 3.02387 18.1413 1.76696 20.1622C1.48009 20.6233 1.08126 21.2416 0.845273 21.6913C0.632184 22.0978 0.32241 22.7466 0.0679753 23.1696C-0.00390249 23.2892 -0.0458842 23.4329 0.0838775 23.4825C0.210459 23.5309 0.261346 23.473 0.345945 23.3814C0.98394 22.6893 3.36545 19.1972 3.72102 18.731C4.98747 17.072 6.20303 15.284 7.51337 13.6105C9.2149 11.4363 11.0958 9.28252 12.9977 7.2903C13.4105 6.8584 14.4842 5.84893 14.9174 5.32352C15.0618 5.14859 15.0955 5.17722 14.9925 5.31652C14.9861 5.32479 14.9397 5.40812 14.9289 5.42784C14.8621 5.54297 14.8513 5.55251 14.7959 5.64538C14.6992 5.80885 14.6185 5.95388 14.5141 6.12244C14.31 6.4513 14.1707 6.78143 13.9792 7.10456C13.6045 7.7362 13.2661 8.33921 12.8877 8.98929C12.1466 10.2615 11.4539 11.5006 10.7072 12.7613C10.1913 13.6327 6.39004 19.8454 6.39004 20.3492C6.39004 20.6093 6.62667 20.8746 6.85693 20.8746C7.26657 20.8746 7.70674 20.0826 7.98089 19.7811C8.31866 19.4103 8.7213 18.9402 9.02662 18.5509C9.70723 17.684 10.3611 16.8958 11.0354 16.0072C11.5913 15.2745 14.8646 11.5305 15.4944 11.3619C14.7291 12.8077 13.6872 14.1848 12.833 15.5868C12.5798 16.0028 10.475 19.9421 10.475 20.1151V20.3485C10.475 20.5851 10.7975 20.9903 11.0004 20.9903H11.1168C11.2924 20.9903 17.2741 14.6721 18.0718 13.9781L18.1201 14.0462C18.1303 14.0564 17.5705 14.7522 17.512 14.8387C16.9472 15.6746 16.3181 16.5606 15.8811 17.4683C15.3773 18.5153 14.3844 20.2226 14.3844 21.6328C14.3844 22.4489 14.8544 23.1499 15.6686 23.1499H15.9021C17.222 23.1499 19.1449 21.4776 20.0456 20.8739C20.2249 21.1417 20.7363 21.5157 21.1543 21.5157H21.2128C21.9564 21.5157 22.8176 21.0622 23.3341 20.7772C24.1451 20.3294 24.89 19.8059 25.6482 19.2983L25.6501 19.2996ZM39.4233 15.6816L39.9869 15.2452L39.6567 15.8571L38.4883 17.766L37.4972 17.8417C37.4368 17.932 37.3223 18.0542 37.3223 18.1916C37.3223 18.4021 37.7307 18.5707 37.7307 18.9504V19.0089C37.7307 19.3874 37.0303 20.5712 37.0303 21.2848C37.0303 21.4642 37.2015 21.5183 37.3802 21.5183H37.4966C38.4927 21.5183 38.6861 20.3504 39.0321 19.6107C39.1568 19.3441 39.4557 18.6775 39.7032 18.5891C39.8616 18.5325 40.9563 18.3092 41.1738 18.3092C40.8469 18.7971 40.2986 19.2608 40.2986 20.0597V20.2347C40.2986 20.823 41.0046 21.2848 41.6407 21.2848C42.5299 21.2848 43.264 20.7683 43.811 20.4109L43.7417 20.9929C43.6348 21.7708 44.6564 22.6855 45.4922 22.6855C46.8477 22.6855 48.8355 21.4012 49.5778 20.2932L49.7031 20.1253L49.4029 20.2347C48.0652 20.5463 47.167 21.5768 45.6678 21.5768C45.2976 21.5768 45.026 21.2047 45.026 20.818V20.7016C45.026 19.2468 47.1855 17.0746 47.1855 16.9086V16.7336C47.1855 16.5975 47.0296 16.4417 46.8935 16.4417H46.835C46.2065 16.4417 45.8001 17.0835 45.6678 17.0835C45.5437 17.0835 45.1468 16.5581 44.3256 16.5581C43.5044 16.5581 42.8448 16.8348 42.3544 17.2133C42.1922 17.3386 40.5136 17.6083 40.1236 17.6083C40.2585 17.1032 42.0103 14.3617 42.3881 13.8617C42.8206 13.2886 43.2665 12.7645 43.6953 12.1926C43.8008 12.052 45.1805 10.43 44.6176 10.43H44.0922C43.4154 10.43 41.3017 13.2822 40.8405 13.8897C40.5714 14.244 37.2778 16.5034 36.8554 16.616C36.9496 16.2133 38.8267 12.9101 39.1212 12.5208C39.3832 12.1748 41.6897 8.84935 41.6992 8.73803H41.3494C40.282 8.73803 39.0283 10.4606 38.1142 11.8256C37.543 12.6786 37.0303 13.62 36.4362 14.4463C36.178 14.8057 35.8574 15.4049 35.6284 15.7973C35.374 16.233 35.1278 16.7057 34.8734 17.1433C34.4962 17.7915 33.4708 17.5567 33.4708 17.9002C33.4708 18.2641 33.8792 18.495 33.8792 18.9504C33.8792 19.6507 33.3538 20.1927 33.3538 20.9344C33.3538 21.1742 33.6744 21.2842 33.9377 21.2842H33.9962C34.7163 21.2842 35.3148 18.5656 36.1398 17.9422C36.5177 17.6566 39.2 15.742 39.4239 15.6822L39.4233 15.6816ZM42.1661 19.4745C42.1661 18.8569 43.1959 17.8404 43.8587 17.8404H44.3256C44.4961 17.8404 44.734 18.1311 44.734 18.3073C44.734 19.0598 43.6005 19.9999 42.8079 19.9999H42.6915C42.4638 19.9999 42.1661 19.7773 42.1661 19.5916V19.4752V19.4745ZM21.0976 18.8913C21.576 18.5707 24.0154 16.4417 24.0154 15.915C24.0154 15.7808 23.9747 15.7401 23.8404 15.7401H23.7234C22.6363 15.7401 21.097 17.8112 21.097 18.8913H21.0976ZM32.3029 15.623V15.798C32.3029 16.1745 32.5211 16.4983 32.8862 16.4983H33.0612C33.6775 16.4983 34.2869 15.7795 34.2869 15.1561V14.9227C34.2869 14.59 33.9797 14.3394 33.6451 14.3394C33.0249 14.3394 32.3029 15.1911 32.3029 15.623ZM29.9685 13.6391L29.8171 13.959L30.1441 13.6976C31.0015 13.1232 36.9139 7.56127 36.9139 6.86984V6.81133C36.9139 6.67711 36.8732 6.6364 36.739 6.6364C35.7391 6.6364 33.5662 9.05544 32.932 9.7157C32.448 10.2201 30.097 13.0882 29.9691 13.6391H29.9685ZM49.5186 10.6603C50.4327 10.6603 51.1737 11.4013 51.1737 12.3154C51.1737 13.2294 50.4327 13.9705 49.5186 13.9705C48.6046 13.9705 47.8635 13.2294 47.8635 12.3154C47.8635 11.4013 48.6046 10.6603 49.5186 10.6603ZM49.5186 10.3899C50.5822 10.3899 51.4447 11.2525 51.4447 12.316C51.4447 13.3796 50.5822 14.2421 49.5186 14.2421C48.4551 14.2421 47.5926 13.3796 47.5926 12.316C47.5926 11.2525 48.4551 10.3899 49.5186 10.3899ZM49.7858 12.1347H49.0855V11.4344H49.7858C49.9823 11.4344 50.1942 11.5375 50.1942 11.7264C50.1942 11.9986 50.058 12.1347 49.7858 12.1347ZM50.3869 12.1595C50.544 11.97 50.5364 11.5368 50.3354 11.3651C50.1057 11.1685 49.7972 11.201 49.5517 11.201H48.7929V13.3598H49.0848V12.4261H49.5975L50.1439 13.3598H50.427C50.238 13.038 50.0498 12.7155 49.8608 12.3936C50.0879 12.3669 50.2266 12.3523 50.3863 12.1595H50.3869Z" fill="#777777"/>
</svg>
