<svg width="120" height="120" viewBox="0 0 120 120" fill="none" xmlns="http://www.w3.org/2000/svg">
<rect width="120" height="120" rx="4" fill="#F4F4F4"/>
<path fill-rule="evenodd" clip-rule="evenodd" d="M68.2927 36.0975C70.4468 36.0975 72.1951 37.8458 72.1951 40V51.8952C71.1603 51.5702 70.0592 51.395 68.9171 51.395C68.7075 51.395 68.4993 51.4009 68.2927 51.4125V45.8068H48.7805V73.1707H67.6054C68.0355 73.2222 68.4732 73.2486 68.9171 73.2486C70.0592 73.2486 71.1603 73.0734 72.1951 72.7484V79.0244C72.1951 81.1785 70.4468 82.9268 68.2927 82.9268H48.7805C46.6263 82.9268 44.8781 81.1785 44.8781 79.0244V40C44.8781 37.8458 46.6263 36.0975 48.7805 36.0975H68.2927ZM61.4634 40H55.6098C55.0712 40 54.6341 40.437 54.6341 40.9756C54.6341 41.5141 55.0712 41.9512 55.6098 41.9512H61.4634C62.002 41.9512 62.439 41.5141 62.439 40.9756C62.439 40.437 62.002 40 61.4634 40ZM56.5854 77.0731C56.5854 78.1502 57.4576 79.0244 58.5366 79.0244C59.6137 79.0244 60.4859 78.1502 60.4859 77.0731C60.4859 75.9961 59.6137 75.1219 58.5366 75.1219C57.4576 75.1219 56.5854 75.9961 56.5854 77.0731Z" fill="#333333"/>
<path fill-rule="evenodd" clip-rule="evenodd" d="M70.986 65.5089C70.3951 67.8679 69.3625 69.3333 68.917 69.9707C68.4714 69.3333 67.4382 67.8685 66.848 65.5089H70.986ZM75.871 65.5089C74.8779 67.6703 72.9071 69.2906 70.5258 69.8005C71.3639 68.4823 71.9548 67.0201 72.2958 65.5089H75.871ZM61.963 65.5089H65.5381C65.8817 67.0297 66.4751 68.4906 67.3082 69.8005C64.9269 69.2906 62.956 67.6703 61.963 65.5089ZM71.2371 64.2341H66.5968C66.412 62.9688 66.412 61.6756 66.5968 60.4097H71.2377C71.4213 61.6756 71.4213 62.9688 71.2371 64.2341ZM65.3099 64.2341H61.5098C61.3517 63.6234 61.2682 62.9822 61.2682 62.3219C61.2682 61.6615 61.3517 61.0209 61.5098 60.4097H65.3099C65.1423 61.6768 65.1423 62.9669 65.3099 64.2341ZM76.3242 64.2341H72.5234C72.6923 62.9669 72.6923 61.6768 72.524 60.4097H76.3242C76.4816 61.0209 76.5657 61.6615 76.5657 62.3219C76.5657 62.9822 76.4816 63.6234 76.3242 64.2341ZM70.986 59.1349H66.848C67.4376 56.7752 68.4708 55.3105 68.917 54.6731C69.678 55.7618 70.4748 57.0946 70.986 59.1349ZM65.5375 59.1342H61.9623C62.956 56.9735 64.9269 55.3532 67.3082 54.8426C66.5197 56.0792 65.897 57.5433 65.5375 59.1342ZM75.871 59.1342H72.2958C71.9408 57.565 71.3314 56.1066 70.5251 54.8426C72.9064 55.3532 74.8779 56.9735 75.871 59.1342Z" fill="#333333"/>
</svg>
