<svg width="63" height="25" viewBox="0 0 63 25" fill="none" xmlns="http://www.w3.org/2000/svg">
<path d="M0 4H62.1917V21H0V4Z" fill="#777777"/>
<path d="M17.4532 6.83325V18.1666H13.5149L13.7132 13.2366L11.5599 18.1666H8.9249L8.18824 13.1516L6.91324 18.1666H2.86157L6.17657 6.83325H10.4549L11.1349 11.4233L13.0616 6.83325H17.4532Z" fill="white"/>
<path d="M39.6099 10.4316L37.8249 10.3466L36.9182 18.1666H32.6115L33.6032 10.3749L31.9599 10.4316L29.2115 6.83325H39.9782L39.6099 10.4316Z" fill="white"/>
<path d="M45.0782 6.83327L44.2849 13.8599C44.2565 14.2849 44.4549 14.7099 44.8232 14.8799C45.2199 15.0216 45.7015 14.9649 46.0132 14.6816C46.2682 14.4549 46.3815 14.1433 46.4382 13.8033L47.4015 6.80493H51.5099L50.6315 14.5683C50.4332 15.6733 49.9232 16.7216 48.9315 17.4299C47.5149 18.4499 45.6165 18.6199 43.7749 18.3649C42.3299 18.1099 40.6582 17.1466 40.1765 15.6733C39.9782 15.1349 40.0065 14.4833 40.0065 13.9166L40.8565 6.83327H45.0782Z" fill="white"/>
<path d="M55.9866 14.5683H59.3583L58.3666 18.1666H51.1699L52.6716 6.83325H56.9499L55.9866 14.5683Z" fill="white"/>
<path d="M25.2165 10.3466C24.3099 10.2332 23.4315 10.6582 22.9782 11.4516C22.5815 12.1316 22.4965 13.0666 22.8932 13.7749C23.1765 14.3699 23.7999 14.7666 24.4232 14.8232C25.2732 14.9082 26.0099 14.4832 26.4349 13.7749C26.8882 13.1232 26.9165 12.0466 26.5482 11.3382C26.3498 10.8282 25.7832 10.4599 25.2165 10.3466ZM27.8232 7.25824L28.2482 7.59824L30.7698 10.8282C31.0532 11.3666 31.0532 12.0749 31.0248 12.7266C30.9965 14.9082 29.5798 16.9199 27.5965 17.8266C25.1882 18.9599 21.9582 18.4216 20.0599 16.5516C18.3882 14.9649 18.0482 12.2732 18.9265 10.2049C19.9465 7.9099 22.3549 6.4649 24.8199 6.57824C25.8965 6.60657 26.9165 6.8049 27.8232 7.25824Z" fill="white"/>
</svg>
