<svg width="278" height="40" viewBox="0 0 278 40" fill="none" xmlns="http://www.w3.org/2000/svg">
<g clip-path="url(#clip0_1587_13643)">
<path d="M0 10H72.5V30H0V10Z" fill="#ED1D24"/>
<path d="M20.3462 13.3333V26.6667H15.7551L15.9863 20.8667L13.4761 26.6667H10.4043L9.54556 20.7667L8.05923 26.6667H3.33599L7.20046 13.3333H12.1879L12.9806 18.7333L15.2267 13.3333H20.3462Z" fill="white"/>
<path d="M46.1754 17.5667L44.0945 17.4667L43.0376 26.6667H38.0171L39.1731 17.5L37.2574 17.5667L34.0535 13.3333H46.6048L46.1754 17.5667Z" fill="white"/>
<path d="M52.5501 13.3334L51.6253 21.6C51.5923 22.1 51.8235 22.6 52.2528 22.8C52.7153 22.9667 53.2768 22.9 53.6401 22.5667C53.9374 22.3 54.0695 21.9334 54.1355 21.5334L55.2585 13.3H60.0478L59.0239 22.4334C58.7927 23.7334 58.1982 24.9667 57.0421 25.8C55.3907 27 53.1777 27.2 51.0308 26.9C49.3462 26.6 47.3975 25.4667 46.836 23.7334C46.6048 23.1 46.6378 22.3334 46.6378 21.6667L47.6287 13.3334H52.5501Z" fill="white"/>
<path d="M65.2665 22.4333H69.197L68.041 26.6667H59.6515L61.4021 13.3333H66.3895L65.2665 22.4333Z" fill="white"/>
<path d="M29.3964 17.4667C28.3394 17.3333 27.3155 17.8333 26.787 18.7667C26.3246 19.5667 26.2255 20.6667 26.6879 21.5C27.0182 22.2 27.7449 22.6667 28.4715 22.7333C29.4624 22.8333 30.3212 22.3333 30.8166 21.5C31.3451 20.7333 31.3781 19.4667 30.9487 18.6333C30.7175 18.0333 30.057 17.6 29.3964 17.4667ZM32.4351 13.8333L32.9305 14.2333L35.8702 18.0333C36.2005 18.6667 36.2005 19.5 36.1674 20.2667C36.1344 22.8333 34.4829 25.2 32.1708 26.2667C29.3633 27.6 25.598 26.9667 23.385 24.7667C21.4362 22.9 21.0399 19.7333 22.0638 17.3C23.2529 14.6 26.0604 12.9 28.9339 13.0333C30.1891 13.0667 31.3781 13.3 32.4351 13.8333Z" fill="white"/>
</g>
<defs>
<clipPath id="clip0_1587_13643">
<rect width="72.5" height="20" fill="white" transform="translate(0 10)"/>
</clipPath>
</defs>
</svg>
