<svg width="69" height="25" viewBox="0 0 69 25" fill="none" xmlns="http://www.w3.org/2000/svg">
<path fill-rule="evenodd" clip-rule="evenodd" d="M67.5084 17.3997C66.926 17.3997 66.4346 17.8906 66.4346 18.4497C66.4346 19.01 66.926 19.4997 67.5084 19.4997C68.1454 19.4997 68.6011 19.01 68.6011 18.4497C68.6011 17.8558 68.1454 17.3997 67.5084 17.3997ZM67.5084 19.3775C66.9813 19.3775 66.5431 18.9394 66.5431 18.4497C66.5431 17.9432 66.9813 17.523 67.5084 17.523C68.0544 17.523 68.4555 17.9432 68.4555 18.4497C68.4555 18.9394 68.0544 19.3775 67.5084 19.3775ZM67.9438 18.2054C67.9438 18.0833 67.8724 17.8382 67.4727 17.8382H67.1255V19.0795H67.2914V18.5373H67.5637L67.7989 19.0795H67.9438L67.7261 18.519C67.8549 18.5022 67.9438 18.3634 67.9438 18.2054ZM67.4895 18.4315H67.2914V17.977H67.5259C67.6897 17.977 67.8164 18.0306 67.8164 18.2054C67.8164 18.3108 67.7618 18.4315 67.4895 18.4315Z" fill="#777777"/>
<path fill-rule="evenodd" clip-rule="evenodd" d="M9.92687 18.8002L1.00557 7.84297V18.6065H0V5.55284L0.237654 5.5L9.08602 16.3339V5.69392H10.1096V18.765L9.92687 18.8002Z" fill="#777777"/>
<path fill-rule="evenodd" clip-rule="evenodd" d="M18.0251 18.8002C14.8833 18.8002 12.998 17.0281 12.998 13.8598V5.5H14.0331V13.8417C14.0331 16.5269 15.604 17.8874 18.0251 17.8874C20.4463 17.8874 22.0542 16.4912 22.0542 13.8417V5.5H23.1077V13.8598C23.1077 16.9386 21.0931 18.8002 18.0251 18.8002Z" fill="#777777"/>
<path fill-rule="evenodd" clip-rule="evenodd" d="M32.747 18.8002C31.3258 18.8002 30.0505 18.3435 28.8845 17.6055L29.3765 16.7447C30.4514 17.4474 31.6357 17.9043 32.838 17.9043C34.6051 17.9043 35.7895 16.8148 35.7895 15.3917C35.7895 13.8983 34.7512 13.2481 32.8563 12.4224C30.7976 11.5439 29.5404 10.6302 29.5404 8.85586C29.5404 6.9934 31.1619 5.5 33.5484 5.5C34.7144 5.5 35.7711 5.86891 36.5546 6.37837L36.0627 7.20421C35.3885 6.74729 34.4596 6.39594 33.4575 6.39594C31.672 6.39594 30.5608 7.45016 30.5608 8.78544C30.5608 10.1734 31.6903 10.841 33.3117 11.5616C35.6072 12.563 36.8278 13.4239 36.8278 15.2687C36.8278 17.3771 35.006 18.8002 32.747 18.8002Z" fill="#777777"/>
<path fill-rule="evenodd" clip-rule="evenodd" d="M47.0593 18.8002L40.7163 12.2319V18.8002H39.7161V5.5H40.7163V11.6873L46.8451 5.5H48.1311L41.6812 11.9594L48.3817 18.8002H47.0593Z" fill="#777777"/>
<path fill-rule="evenodd" clip-rule="evenodd" d="M50.5483 18.8002H51.4871V5.5H50.5483V18.8002Z" fill="#777777"/>
<path fill-rule="evenodd" clip-rule="evenodd" d="M64.8081 18.8002L55.8864 7.84297V18.6065H54.8812V5.55284L55.1192 5.5L63.9667 16.3339V5.69392H64.9908V18.765L64.8081 18.8002Z" fill="#777777"/>
</svg>
