<svg width="134" height="25" viewBox="0 0 134 25" fill="none" xmlns="http://www.w3.org/2000/svg">
<path d="M11.7009 19.1477L9.60975 19.1458C9.3335 19.1458 9.1954 19.0463 9.01769 18.8094L4.28938 12.0924C4.23044 12.0133 4.25068 11.9145 4.36947 11.9145L5.375 11.9154C7.01218 11.9164 8.37405 10.9503 8.37589 9.19251C8.37681 7.65223 7.25342 6.64471 5.61623 6.64288L3.03248 6.64029C2.95329 6.64029 2.91369 6.68001 2.91369 6.75918L2.90272 19.1395L0.989302 19.1386L0.999478 7.88279C0.999478 7.76468 0.98018 7.68551 0.921217 7.56754L0.0151393 5.6309C-0.023543 5.55173 0.0151448 5.49268 0.0943365 5.49268L5.97271 5.4979C8.63566 5.49973 10.4883 6.78565 10.4865 9.17488C10.4846 11.3272 8.84654 12.4315 7.03165 12.7062L11.7009 19.1477ZM13.2883 7.81449L19.8371 7.81971L19.8362 8.94519L15.2008 8.93997L15.1972 12.534L19.478 12.5366L19.4771 13.722L15.1963 13.7194L15.1926 17.7678C15.1926 17.9061 15.2525 17.9651 15.351 17.9651L20.0259 17.9677L20.025 19.1531L13.7912 19.1479C13.4956 19.1479 13.2783 18.9893 13.2792 18.6142L13.2883 7.81449ZM15.8334 7.44211L17.1557 5.68517C17.2551 5.56628 17.3537 5.5083 17.5121 5.5083L19.1686 5.50922L17.5498 7.26516C17.4108 7.40339 17.3325 7.4431 17.1944 7.4431L15.8334 7.44211ZM33.2209 19.1661L31.3075 19.1643L31.3148 10.4563L27.6997 16.8313C27.6408 16.9308 27.5423 16.9308 27.4834 16.8303L23.8388 10.8646L23.8315 19.1578L22.4503 19.1569L22.4595 8.73165L21.9871 7.98039C21.9282 7.88188 21.9871 7.82286 22.0663 7.82286L24.1372 7.8247L27.8406 13.7711L31.1592 8.04777C31.2384 7.88916 31.3572 7.83011 31.5349 7.83115L33.231 7.83207L33.2209 19.1661ZM39.3 15.1831L35.0846 7.83387L37.3535 7.83566L40.4851 13.4659C41.3543 11.8675 42.579 9.61746 43.4675 8.05873C43.5466 7.90013 43.6654 7.84136 43.8433 7.84136L45.3027 7.8432L41.2134 15.0856L41.2108 19.1737L39.2974 19.1718L39.3 15.1831ZM57.7786 18.8324C57.1083 19.1873 56.0816 19.4426 54.9969 19.4417C51.7419 19.4391 49.4371 17.3834 49.4399 13.3156C49.4425 9.682 51.8717 7.61172 54.9684 7.61446C56.0724 7.6154 57.0788 7.85221 57.7289 8.209L57.7271 10.7171C57.7261 10.8352 57.6276 10.8546 57.5493 10.7558L56.426 9.33257C56.2879 9.17501 56.1699 9.07626 55.9729 8.99706C55.6967 8.89751 55.3818 8.8578 55.007 8.8578C53.1525 8.85689 51.5531 10.3557 51.5503 13.3173C51.5477 16.7141 53.3219 17.9594 55.1958 17.9613C56.1819 17.9622 57.0696 17.7447 57.7804 17.352L57.7786 18.8324ZM63.8338 19.4491C60.8753 19.4473 58.9443 17.3724 58.9471 13.3239C58.9497 9.90784 60.8854 7.61907 63.8449 7.62184C67.0401 7.62445 68.8531 9.91611 68.8494 13.3322C68.8468 17.282 67.029 19.4528 63.8338 19.4491ZM63.8442 8.80633C62.069 8.80447 61.0607 10.5217 61.0588 13.3258C61.0562 16.5243 62.0404 18.1642 63.836 18.166C65.7881 18.1678 66.7374 16.5299 66.7393 13.3304C66.7419 10.5466 65.8166 8.80816 63.8442 8.80633ZM72.928 19.2012L71.0145 19.1993L71.025 7.86516L72.9384 7.86704L72.928 19.2012ZM84.9214 19.2116H84.5466L77.7677 10.7147L77.7598 19.2051L76.3796 19.2042L76.3874 9.35047C76.3883 9.13386 76.3691 8.93569 76.2694 8.81769L75.5208 7.86919L77.9867 7.87102L83.5428 14.8664L83.548 7.87653L84.9292 7.87748L84.9214 19.2116ZM86.7455 7.87932L94.3798 7.88454L94.378 9.16767L91.517 9.16579L91.5092 19.2159L89.5967 19.215L89.6045 9.16396L86.7436 9.16137L86.7455 7.87932ZM105.317 19.2291L103.245 19.2282C103.088 19.2273 102.95 19.1286 102.851 18.9711L99.5427 13.6165C99.503 13.5373 99.5427 13.4589 99.6414 13.4589H100.016C101.298 13.4598 102.245 12.5325 102.246 11.0521C102.248 9.70914 101.42 8.85927 100.118 8.85836L98.856 8.85744C98.7576 8.85744 98.6986 8.91649 98.6986 9.03538L98.6881 19.2237L96.7747 19.2219L96.7825 9.64555C96.7825 9.52666 96.7643 9.4475 96.7034 9.34876L95.9364 8.00574C95.9182 7.96603 95.9182 7.88761 96.0155 7.88761L100.749 7.89024C102.958 7.89207 104.358 9.11804 104.356 10.9736C104.354 12.8696 103.092 13.6578 101.887 13.9528L105.317 19.2291ZM107.004 7.89682L113.079 7.90204L113.078 9.02753L108.916 9.02489L108.914 12.618L112.74 12.6206L112.739 13.8051L108.913 13.8025L108.91 17.8896C108.91 17.9882 108.969 18.0472 109.068 18.0472L113.21 18.0498L113.21 19.2352L107.212 19.23C107.094 19.23 106.996 19.1315 106.996 18.993L107.004 7.89682ZM114.45 19.2374L118.069 7.90699L120.318 7.90882C120.437 7.90882 120.496 7.9475 120.535 8.06639L124.391 19.2456L122.478 19.2438C122.319 19.2438 122.221 19.1654 122.162 18.9479L121.041 15.5705L117.116 15.5679L116.007 19.2393L114.45 19.2374ZM118.995 9.32834L117.452 14.4221L120.667 14.4247L118.995 9.32834ZM125.585 7.91341L127.498 7.91436L127.49 15.6941C127.489 17.3929 128.416 18.1239 129.698 18.1248C131.019 18.1258 131.966 17.3966 131.968 15.7374L131.976 7.91803L133.356 7.91986L133.351 15.6794C133.348 18.3055 131.671 19.5093 129.54 19.5075C127.331 19.5057 125.577 18.418 125.58 15.6139L125.585 7.91341Z" fill="#777777"/>
</svg>
