<svg width="107" height="25" viewBox="0 0 107 25" fill="none" xmlns="http://www.w3.org/2000/svg">
<path fill-rule="evenodd" clip-rule="evenodd" d="M98.8158 16.5881V8.48751H96.1539V10.7005H94.3524V6.80038H106.316V10.7005H104.515V8.48751H101.852V16.5881H103.84V18.2752H96.7901V16.5881H98.8158ZM88.353 16.5881V8.48751H86.5161V6.7997H93.2285V8.48751H91.3902V16.5881H93.2285V18.2752H86.5161V16.5881H88.353ZM50.3267 12.6505H51.7516C53.2889 12.6505 54.9767 12.5756 54.9767 10.663C54.9767 8.60058 53.3645 8.56312 51.7142 8.56312H50.326L50.3267 12.6505ZM47.2896 16.5881V8.48751H45.4519V6.7997H53.2147C55.9146 6.7997 58.3898 7.47468 58.3898 10.6623C58.3898 12.1996 57.7148 13.4379 56.1019 13.963C55.3146 14.1878 54.3017 14.3383 53.1016 14.3383H50.3267V16.5881H52.6521V18.2752H45.4519V16.5881H47.2896ZM37.7641 6.7997H44.027V8.52497H42.002V16.5874H44.027V18.3127H37.164V16.5874H39.2639V8.45005H39.0392L34.7263 18.3134H33.001L28.7263 8.5999V16.5881H30.3011V18.3134H25.2008V16.5881H26.9636V8.52497H25.0135V6.7997H31.4637L34.6514 13.963L37.7641 6.7997ZM12.2629 18.2745V16.5874H14.138V8.48751H12.2629V6.7997H24.0763V10.1753H22.5758V8.48751H17.1758V11.8625H21.3014V13.4379H17.1758V16.5881H22.5009V14.525H24.0756V18.2752L12.2629 18.2745ZM0 14.9759H1.65036L1.72528 15.2749C2.02497 16.4001 3.52549 16.8129 5.36247 16.8129C6.11238 16.8129 6.71245 16.6623 7.16267 16.3633C7.6129 16.0629 7.83767 15.6876 7.83767 15.2006C7.83767 14.7886 7.65036 14.4501 7.31252 14.1885C7.16267 14.038 6.9379 13.9249 6.71245 13.8507C6.37462 13.7376 5.73709 13.5884 4.83733 13.4011C4.01249 13.2138 3.41242 13.1007 2.9622 12.9509C2.53469 12.8464 2.11992 12.6955 1.72528 12.5007C0.638211 11.9374 0.113066 11.0751 0.113066 9.87496C0.113066 9.23743 0.375298 8.63804 0.788058 8.15036C1.20014 7.62522 1.76342 7.21245 2.47588 6.91276C3.18833 6.61307 4.20116 6.5 5.10092 6.5C6.22545 6.5 8.47588 6.95022 9.37564 7.70014V6.83784H10.7631V10.4382H9.37564C9.07594 9.9131 8.77557 9.46288 8.43841 9.16319C7.35066 8.22596 5.62606 7.92559 4.23794 8.45073C3.93824 8.56312 3.67533 8.71296 3.52549 8.90095C3.33818 9.12572 3.26257 9.35117 3.26257 9.61341C3.26257 9.95124 3.4131 10.2135 3.67533 10.4382C3.9001 10.6256 4.20048 10.7761 4.53763 10.9259C4.87547 11.0383 5.47485 11.1882 6.3753 11.4136C7.72528 11.7514 8.70065 12.0511 9.26325 12.3508C10.3878 12.9509 10.9511 13.8139 10.9511 14.9766C10.9511 15.501 10.8387 16.0262 10.6132 16.4382C10.3833 16.886 10.049 17.272 9.63855 17.5635C9.18833 17.8625 8.70065 18.0879 8.10058 18.2752C7.46305 18.4258 6.78806 18.5 6.03814 18.5C4.80123 18.5 2.73811 18.0879 1.80089 17.3387V18.3141H0V14.9759ZM58.6521 18.2745V16.5874H60.4897V8.48751H58.6521V6.7997H70.428V10.1753H68.9275V8.48751H63.5275V11.8625H67.6517V13.4379H63.5275V16.5881H68.8907V14.525H70.4286V18.2752L58.6521 18.2745ZM73.352 16.5881V8.48751H71.515V6.7997H80.6652C82.9531 6.7997 85.3908 7.81184 85.4276 10.2121C85.5032 12.6498 83.7779 13.7369 81.8654 13.9242L83.8529 16.6991H85.3534V18.2739H81.2278L77.0655 12.7616H79.053C80.3662 12.7616 81.8279 12.0866 81.8279 10.5486C81.8279 8.82331 80.1782 8.48615 78.9025 8.48615H76.3905V12.7616H76.428V13.0245H76.3905V16.5867H78.7145V18.2739H71.515V16.5867L73.352 16.5881Z" fill="#777777"/>
</svg>
