<svg width="120" height="120" viewBox="0 0 120 120" fill="none" xmlns="http://www.w3.org/2000/svg">
<rect width="120" height="120" rx="4" fill="#F4F4F4"/>
<path d="M69.7082 52.1649C65.0875 52.4073 61.0679 53.8063 57.8061 56.9727C54.5099 60.1696 53.0059 64.088 53.4163 68.9455C51.6107 68.7222 49.9655 68.4759 48.3107 68.3366C47.74 68.2889 47.0606 68.3576 46.5777 68.6305C44.9706 69.5371 43.4304 70.5602 41.6057 71.7015C41.9416 70.1861 42.1573 68.8596 42.5409 67.5846C42.8234 66.6475 42.6917 66.1245 41.829 65.5138C36.2807 61.5973 33.9426 55.7359 35.6928 49.7009C37.3113 44.1182 41.2889 40.7323 46.6903 38.9668C54.0652 36.5581 62.3505 39.0145 66.8357 44.8702C68.4543 46.9849 69.4486 49.3592 69.7101 52.1649H69.7082ZM48.4386 50.2849C48.4806 49.1817 47.5243 48.1873 46.3887 48.153C45.2264 48.1186 44.2682 49.008 44.2358 50.1532C44.2014 51.3156 45.0909 52.2451 46.2608 52.2756C47.4213 52.3042 48.3966 51.4148 48.4386 50.2849ZM59.5353 48.153C58.3958 48.174 57.432 49.1455 57.4511 50.2525C57.4721 51.4015 58.4168 52.3004 59.5887 52.2851C60.7644 52.2718 61.6558 51.3633 61.6443 50.1895C61.6348 49.0386 60.6938 48.1301 59.5334 48.1511L59.5353 48.153Z" fill="#333333"/>
<path d="M80.091 80.9757C78.627 80.3249 77.2853 79.3458 75.8557 79.1969C74.4319 79.048 72.9355 79.8687 71.4468 80.0214C66.91 80.4852 62.8447 79.2217 59.4932 76.1221C53.1184 70.2264 54.0307 61.1872 61.4037 56.3546C67.9579 52.0602 77.5697 53.4916 82.1923 59.4503C86.2253 64.6494 85.7519 71.551 80.8277 75.9179C79.4039 77.1814 78.8904 78.2216 79.8047 79.8878C79.9726 80.1951 79.9917 80.5845 80.091 80.9738V80.9757ZM63.4344 64.8479C64.3659 64.8479 65.1331 64.1188 65.1675 63.1989C65.2056 62.2255 64.4212 61.4086 63.4459 61.4028C62.4801 61.399 61.6709 62.2274 61.7052 63.1874C61.7377 64.1035 62.5088 64.846 63.4344 64.8479ZM74.1723 61.4086C73.2676 61.4028 72.5004 62.1415 72.4641 63.0557C72.424 64.0329 73.1837 64.8345 74.1513 64.8364C75.0866 64.8403 75.8252 64.1322 75.8595 63.2027C75.8958 62.2236 75.1362 61.4162 74.1742 61.4086H74.1723Z" fill="#333333"/>
</svg>
