<svg width="58" height="25" viewBox="0 0 58 25" fill="none" xmlns="http://www.w3.org/2000/svg">
<path d="M54.3474 13.4697C53.9514 14.4829 52.9288 15.3746 51.8751 15.5492C50.6872 15.7581 49.4464 15.4369 48.5984 14.4923C47.8408 13.6349 47.4978 12.3598 47.8813 11.2499C48.2679 9.98411 49.4776 9.0831 50.7621 8.93033C52.1027 8.82121 53.2811 9.35745 54.0387 10.458C54.6093 11.2592 54.7215 12.525 54.3474 13.4697ZM57.0722 9.95293C56.0839 7.73002 53.7862 6.24912 51.3981 6.12753C48.7823 6.01841 46.3287 7.5679 45.2406 9.85628C44.5672 8.3598 43.0863 7.01919 41.5805 6.47983C39.8533 5.73159 37.4464 6.10571 35.9842 7.10649V6.36448L32.9258 6.37071V22.2241H35.9842V12.02C36.0591 10.9101 36.8291 9.85317 37.8517 9.40422C38.812 8.92098 40.2492 9.0301 41.1284 9.6131C42.3038 10.3613 42.8213 11.702 42.5251 13.0239C42.3069 14.0122 41.3591 14.9911 40.3926 15.2873C39.2266 15.6521 37.8517 15.4089 36.9632 14.5733L36.9476 17.9654C37.5836 18.2522 38.3287 18.4206 39.0427 18.511C41.6927 18.6856 44.1869 17.0051 45.278 14.6856C46.0699 16.3785 47.7753 17.875 49.5992 18.2491C51.8875 18.7323 54.2071 18.1618 55.8002 16.5125C57.4495 14.7635 58.0013 12.2133 57.0754 9.95917L57.0722 9.95293Z" fill="#777777"/>
<path d="M31.4418 9.7751C32.4551 11.8078 31.9718 14.6356 30.4411 16.2848C28.8791 17.9996 26.625 18.8133 24.3491 18.3519L23.2267 18.0151V17.7688L23.2361 14.5483C24.1278 15.3059 25.4029 15.6363 26.5564 15.2841C27.5354 14.9879 28.48 14.1305 28.745 13.1173C29.1098 12.0385 28.745 10.9193 28.0436 10.1149C27.2298 9.25757 26.0732 8.92709 24.876 9.13598C23.9064 9.31057 22.9399 10.037 22.5221 10.9598C22.226 11.4867 22.2696 12.2568 22.2353 12.8055V22.2178H19.2018V6.60754L19.1831 6.36124H22.2353C22.2135 6.57013 22.2571 6.80707 22.2353 7.04713C22.5221 6.96919 22.9274 6.69483 23.2361 6.57324C25.4684 5.48517 28.2836 6.1773 30.042 7.81408C30.5907 8.35344 31.1207 9.05804 31.4387 9.77199" fill="#777777"/>
<path d="M12.3086 7.02539L6.27278 15.3371L6.31643 15.4151H14.2883L14.3445 15.2623V10.3488H17.4559V17.638C17.4123 17.8812 17.2034 18.2148 16.7201 18.1524H0L3.39204 13.5663L6.69055 9.18907H0.0717067L2.03585 6.36133L12.7389 6.36756L12.3086 7.02539Z" fill="#777777"/>
<path d="M16.6079 5.12349C16.7732 4.89279 16.8511 4.57478 16.8511 4.25366C18.0265 5.13285 18.4349 6.71663 18.092 8.02606C17.961 8.76183 17.2315 9.4976 16.5051 9.67219C16.5051 9.44149 16.5206 9.07983 16.5113 8.80548C16.5051 8.44694 16.424 8.26924 16.2588 8.16012C16.1621 8.07906 16.0935 8.03541 15.8316 8.02294C15.6103 8.051 15.5978 8.03541 15.3765 8.16012C15.311 8.25988 15.2455 8.316 15.2112 8.40642C15.1832 8.50306 15.1426 8.65271 15.1551 8.80548C15.1426 9.0393 15.1426 9.33237 15.1426 9.66908C14.3507 9.25754 13.6586 8.49995 13.6804 7.60517C13.6929 5.92162 15.286 4.4719 14.2104 2.77588C15.3858 2.98476 16.1216 4.14142 16.6079 5.11726" fill="#777777"/>
</svg>
