<svg width="143" height="20" viewBox="0 0 143 20" fill="none" xmlns="http://www.w3.org/2000/svg">
<path d="M0 14.5946H3.50755C3.50755 16.1433 4.60568 17.0244 6.55102 17.0244C8.49366 17.0244 9.51085 16.3568 9.51085 15.2622C9.51085 14.3811 8.88219 13.7433 7.47647 13.4703L4.75408 12.9541C2.24213 12.4676 0.566604 11.0108 0.566604 8.33787C0.569302 5.75679 2.75208 3.78381 6.46198 3.78381C10.1719 3.78381 12.6811 5.88111 12.6811 8.91895H9.4434C9.38404 7.49192 8.19417 6.57571 6.4296 6.57571C4.87549 6.57571 3.88798 7.21354 3.88798 8.3676C3.88798 9.30814 4.54632 9.82435 5.83332 10.0676L8.46668 10.5838C11.1567 11.1027 12.9509 12.2865 12.9509 15.2622C12.9509 18.3 10.1395 20 6.55102 20C2.39323 20 0.0890377 17.9054 0 14.5946Z" fill="#222222"></path>
<path d="M110.353 14.5946H113.86C113.86 16.1433 114.959 17.0244 116.904 17.0244C118.846 17.0244 119.864 16.3568 119.864 15.2622C119.864 14.3811 119.235 13.7433 117.829 13.4703L115.107 12.9541C112.595 12.4676 110.919 11.0108 110.919 8.33787C110.919 5.75679 113.102 3.78381 116.812 3.78381C120.522 3.78381 123.034 5.88111 123.034 8.91895H119.796C119.737 7.49192 118.547 6.57571 116.782 6.57571C115.228 6.57571 114.241 7.21354 114.241 8.3676C114.241 9.30814 114.899 9.82435 116.186 10.0676L118.82 10.5838C121.51 11.1 123.306 12.2838 123.306 15.2595C123.304 18.3 120.492 20 116.904 20C112.746 20 110.442 17.9054 110.353 14.5946Z" fill="#222222"></path>
<path d="M31.5679 15.1108C31.5679 12.3379 33.3406 10.5406 37.5712 10.5406H41.551V9.18922C41.551 7.73246 40.4339 6.63787 38.2431 6.63787C36.1628 6.63787 35.3453 7.84868 35.3453 9.18922H32.1076C32.1076 6.073 34.374 3.78381 38.3321 3.78381C42.4737 3.78381 44.7887 6.18111 44.7887 9.27841V19.7298H42.0906L41.7668 17.8757H41.3783C40.4636 19.2108 38.8825 20 36.7807 20C33.3082 20 31.5679 17.8757 31.5679 15.1108ZM41.551 13.5217V12.8379H37.7736C35.5234 12.8379 34.6708 13.6027 34.6708 15C34.6708 16.2757 35.6529 17.246 37.5416 17.246C40.0184 17.246 41.551 15.6757 41.551 13.5217Z" fill="#222222"></path>
<path d="M48.0264 4.05679L50.7245 4.05408L51.1131 6.09192H51.5043C52.3272 4.75679 53.8624 3.78381 56.1208 3.78381C59.5986 3.78381 61.7868 5.9703 61.7868 9.49192V19.7298H58.2793V10.4703C58.2793 8.34598 57.254 6.91084 55.0739 6.91084C52.8237 6.91354 51.534 8.42435 51.534 11.0811V19.7298H48.0264V4.05679Z" fill="#222222"></path>
<path d="M108.194 19.727L105.496 19.7298L105.108 17.6919H104.716C103.894 19.027 102.358 20 100.1 20C96.6221 20 94.434 17.8135 94.434 14.2919V4.05408H97.9415V13.3135C97.9415 15.4379 98.9668 16.873 101.147 16.873C103.397 16.873 104.687 15.3622 104.687 12.7054V4.05408H108.194V19.727Z" fill="#222222"></path>
<path d="M67.0724 15.1757V7.02703H63.1358V4.05405H67.1938V0H70.499V4.05405H76.0868V7.02703H70.499V16.7568H76.0868V19.7297H71.6403C68.3351 19.7297 67.0724 17.8784 67.0724 15.1757Z" fill="#222222"></path>
<path d="M128.05 15.1757V7.02703H124.113V4.05405H128.171V0H131.476V4.05405H137.064V7.02703H131.476V16.7568H137.064V19.7297H132.618C129.312 19.7297 128.05 17.8784 128.05 15.1757Z" fill="#222222"></path>
<path d="M78.7849 16.7568H81.823V7.02706H78.7849V4.05408H84.451L84.7208 6.48652H85.2604C85.9241 4.8703 87.373 3.78381 89.3345 3.78381H91.466V7.02706H89.2428C86.6175 7.02706 85.2631 8.81354 85.2631 12.046V16.7568H91.466V19.7298H78.7768L78.7849 16.7568Z" fill="#222222"></path>
<path d="M22.4375 17.0541C19.7853 17.0541 18.4821 14.9892 18.4821 11.8919C18.4821 8.85408 19.7421 6.75679 22.3943 6.75679C24.1508 6.75679 25.3218 7.70814 25.6321 9.18922H29.1396C28.6 5.94598 26.5764 3.78381 22.3943 3.78381C17.5998 3.78381 15.1094 7.06219 15.1094 11.8919C15.1094 16.7514 17.7023 20 22.4996 20C26.5953 20 28.7727 17.7352 29.1396 14.5946H25.6321C25.3623 16.0919 24.221 17.0541 22.4375 17.0541Z" fill="#222222"></path>
<path d="M143 4.05408H140.032V7.02705H143V4.05408Z" fill="#15BBF0"></path>
<path d="M143 16.7568H140.032V19.7297H143V16.7568Z" fill="#15BBF0"></path>
</svg>