<svg width="12" height="20" viewBox="0 0 12 20" fill="none" xmlns="http://www.w3.org/2000/svg">
  <path fill-rule="evenodd" clip-rule="evenodd"
    d="M6 16C9.31371 16 12 13.3137 12 10C12 9.00636 11.7585 8.06914 11.3309 7.24384L5.68442 12.5002C5.58593 12.5919 5.45464 12.64 5.32023 12.6337C5.18582 12.6273 5.05963 12.5671 4.97018 12.4666L2.62645 9.83227C2.4429 9.62596 2.46135 9.30992 2.66765 9.12637C2.87396 8.94281 3.19001 8.96126 3.37356 9.16757L5.37737 11.4198L10.7878 6.38321C9.69238 4.93543 7.95543 4 6 4C2.68629 4 0 6.68629 0 10C0 13.3137 2.68629 16 6 16Z"
    fill="#3FC135" />
</svg>