<?xml version="1.0" encoding="UTF-8"?><svg id="Layer_2" xmlns="http://www.w3.org/2000/svg" viewBox="0 0 4100 4100"><defs><style>.cls-1{fill:#262628;}</style></defs><g id="_Слой_1"><path class="cls-1" d="M3771.47,936.45c-103.67-159.95-229.12-304.76-372.84-430.4-144.43-126.26-305.4-231.46-478.43-312.7-133.39-62.63-273.88-110.81-417.55-143.2C2355.01,16.87,2202.72,0,2050,0c-83.72,0-168.04,5.1-250.6,15.17-160.41,19.56-318.27,58.17-469.18,114.77-147.38,55.27-288.62,127.86-419.79,215.74-139.16,93.22-266.87,203.52-379.57,327.83l-12.96,14.3v.13c-130.94,147.16-239.67,311.69-323.37,489.33-88.64,188.13-147.79,388.13-175.79,594.45C6.3,1863.32,0,1956.95,0,2050c0,68.66,3.44,137.96,10.22,205.97,21.11,211.57,74.74,417.4,159.4,611.79,82.37,189.15,192.76,364.54,328.11,521.29,102.3,118.48,218.22,225.33,344.55,317.58l13.18,9.62h.11c168.11,120.73,352.5,214.85,548.29,279.82,207.79,68.96,425.18,103.92,646.14,103.92,138.07,0,276.09-13.82,410.23-41.06,130.77-26.56,259.45-66.21,382.47-117.84,120.78-50.69,237.35-113.44,346.48-186.51,108.07-72.36,209.81-155.49,302.41-247.09,92.57-91.57,176.8-192.38,250.33-299.63,74.22-108.25,138.22-224.04,190.22-344.16,52.94-122.29,93.99-250.35,122.01-380.62,28.73-133.57,44.11-271.13,45.7-408.86,.1-8.28,.14-16.43,.14-24.23,0-396.9-113.6-781.96-328.53-1113.55Zm-205.84,482.38c18.44,44.34,49.34,118.63,25.18,140.39-20,18.01-78.54,.75-99.21-35.24-15.68-27.31,3.83-42.1-3.53-85.98-11.52-68.69-67.47-80.99-63.22-133.06,2.45-29.98,23.03-50.8,37.38-65.32,7.8-7.89,53.44-54.08,102.87-40.41,16.42,4.54,40.72,17.75,40.41,33.06-.52,26.19-72.25,24.03-87.67,64.14-10.77,28.02,16.9,48.16,47.79,122.43Zm-533.23-219.64c31.1-.57,36.2,63.44,77.15,69.8,46.7,7.25,87.21-68.65,107.71-57.49,14.59,7.94-8.27,45.1,9.85,83.21,23.6,49.63,92.29,49.49,91.84,73.48-.32,17.28-36.29,33.65-67,38.2-57.43,8.52-72.53-27.85-140.6-30.46-56.23-2.16-77.18,21.46-104.67,3.28-27.41-18.12-30.08-57.13-30.9-69.15-3.53-51.6,27-110.32,56.62-110.87Zm189.77-680.13c-23.13,14.73-29.89,31.54-55.28,37.49-18.95,4.44-47.79,2.71-61.02-14.96-17.85-23.84-.06-67.03,24.53-88.73,5.95-5.25,12.63-9.53,19.83-12.84,31.95,21.93,63.15,44.77,93.59,68.46-8.66,3.12-15.79,6.84-21.65,10.58ZM109.84,2247.2c10.55,1.58,19.95,5.4,26.58,12.74,12.09,13.39,5.71,28.27,12.07,56.08,7.37,32.22,31.35,75.97,66.13,88.17,40.35,14.15,58.47-27.23,109.14-14.2,31.28,8.05,67.77,34.98,67.2,61.96-.04,1.78-.37,3.4-.89,6.56-6.38,38.72-30.01,61.73-46.68,82.05-3.32,4.05-29.32,36.15-45.04,75.31-24.05,59.93-15.43,114.92-12.7,130.99,4.36,25.78,11.72,44.31,17.14,57.77,19.68,48.78,38.54,61.9,69.16,112.26,39.69,65.31,22.19,66.65,48.29,95.53,41.58,46,80.4,36.39,110.94,82.37,15.27,22.97,18.4,44.68,22.23,73.52,6.68,50.33,2.31,95.08-3.53,127.61-249.21-299.53-401.14-661.32-440.03-1048.72Zm1940.16,1752.8c-411.81,0-804.88-126.57-1137.7-366.14,24.32-23.38,53.48-56.85,95.86-105.5,53.92-61.9,68.75-89.27,73.34-121.79,4.02-28.42-2.36-42.5,8.74-69.56,16.85-41.09,53.83-62.9,68.87-70.52,58.25-29.51,84.94,3.22,120.9-21.01,53.06-35.74,50.71-144.5,49.73-189.71-1.04-48.01-9.88-72.68,8.19-102.49,8.27-13.64,14.03-14.92,55.08-61.41,28.17-31.9,31.66-38.32,33.95-43.16,2.3-4.84,23.09-50.27,3.29-84.4-10.24-17.64-21.25-14.89-62.85-40.96-47.33-29.67-45.71-41.16-72.3-51.3-37.77-14.4-54.04,3.82-98.61,1.66-55.83-2.71-114.76-35.39-146.43-79.37-44.79-62.18-15.04-119.13-59.12-144.6-27.29-15.77-47.86,.76-94.36-23.78-16.19-8.54-32.97-17.4-46.44-36.23-16.45-22.99-13.1-40.1-33.02-62.69-3.52-4-15.35-17.41-31.62-24.13-42.4-17.51-70.02,29.04-122.68,27.8-57-1.34-56.85-56.65-123.57-60.86-49.55-3.12-102.62,24.05-108.18,27.16-6.76,3.79-11.86,7.29-11.86,7.29-6.09,4.18-8.08,6.27-13.47,10.1,0,0-13.67,8.29-14.78,8.96-9.22,5.55-34.02,16.24-52.93,15.25-30.24-1.58-58.29-33.75-68.05-64.67-14.21-44.98,16.97-66.08,0-99.07-16.66-32.39-53.13-24.5-65.1-56.61-10.61-28.46,14.27-44.75,2.83-70.76-12.17-27.68-53.11-38.25-81.67-36.86-9.37,.46-17.96,2.23-25.73,4.8,1.35-77.14,7.23-154.44,17.52-230.27,.23-1.68,.47-3.35,.71-5.02,26.37-4.09,53.3-9.54,74.05,10.51,33.14,32.02,8.2,83.5,47.76,124.91,26.78,28.03,72.3,40.1,88.17,25.71,19.01-17.24-2.6-74.28-14.48-105.66-15.15-39.98-28.81-53.77-28.3-85.03,.42-25.25,9.81-45.06,15-54.28,38.3-68.02,130.77-60.82,137.99-100.36,2.09-11.43-2.56-28.85-33.77-54.5,14.87-16.86,38.23-41.22,70.51-66.74,20.74-16.39,29.85-21.15,44.08-33.06,20.71-17.33,47.4-45.71,69.97-93.15,25.07-1.63,61.11-6.35,102.03-20.59,4.94-1.72,97.39-34.44,93.56-59.89-2.09-13.91-30.54-9.84-59.83-39.45-19.47-19.69-14.62-29.31-29.93-43.79-37.3-35.28-103.33-13.4-105.04-22.41-1.33-6.96,37.45-23.59,80.29-29.59,28.85-4.05,64.8-9.08,102.11,10.37,26.28,13.69,41.9,33.63,49.86,45.69,61.99,51.89,125.72,60.13,149.58,35.67,19.22-19.7,9.59-57.52,8.95-59.9-9.07-33.87-40.89-59.64-80.98-64.27,7.27-11.75,21.3-38.18,19.85-72.83-1.96-46.61-30.66-77.01-45.26-92.48-33.68-35.69-73.35-48.22-92.47-52.82-10.07-24.44-22.67-54.72-37.38-89.45-27.24-64.34-39.31-90.97-50.29-89.51-7.71,1.03-6.96,14.88-21.87,41.56-10.31,18.45-28.24,50.54-51.41,50.69-16.85,.12-29.51-16.74-36.11-25.53-.99-1.31-1.91-2.64-2.79-3.96,7.44-8.5,14.96-16.94,22.56-25.33l3.01-3.33c102.43-112.46,217.79-212.77,343.15-298.45,6.7,22.97,15.63,49.02,27.66,76.96,24.43,56.73,48.97,113.74,105.58,159.38,15.31,12.34,94.74,76.38,141.65,50.86,16.6-9.03,18.49-23.5,63.58-156.63,15.94-47.07,21.09-61.15,36.95-74.18,36.01-29.55,64.17-1.85,103.83-29.71,39.09-27.46,41.4-75.21,84.92-85.99,.51-.12,5.88-1.06,16.61-2.94,37.65-6.58,63.57-10.72,67.75-11.41,30.65-5.11,100.66-17.09,135.43-67.92,14.12-20.63,18.05-41.27,18.87-45.97,4.68-26.7-1.25-48.54-5.05-59.42,10.03-6.85,35.44-26.16,49.14-61.82,1.91-4.98,3.43-9.85,4.63-14.57,2.95-.37,5.9-.75,8.85-1.11,78.56-9.58,158.81-14.43,238.5-14.43,262.27,0,515.6,50.82,754.21,151.17-22.23,6.73-46.74,15.55-72.6,27.23-51.89,23.42-149.5,76.48-141.05,110.93,4.87,19.84,40.21,14.45,47.07,35.59,14.96,46.1-131.56,138.14-148.66,148.88-71.13,44.68-101.63,49.15-106.83,78-7.14,39.65,39.06,94.58,88.18,102.86,47.31,7.98,69.21-32.07,110.21-18.36,41.45,13.85,44.09,63.18,73.47,62.45,23.5-.58,44.68-32.69,51.44-58.78,7.88-30.45-6.6-42.17-2.48-72.97,4.19-31.36,21.74-38.02,52.49-81.8,51.31-73.08,41.75-110.48,78.57-124.44,27.53-10.43,64.01-1.32,69.8,14.7,4.1,11.32-7.6,24.83-16.16,35.09-45.12,54.13-101.41,121.64-89.79,161.17,7.45,25.36,41.93,36.09,50.84,38.86,54.26,16.88,96.22-25.24,120.39-4.26,11.56,10.05,15.19,31.18,8.2,44.67-13.55,26.14-58.41,7.04-113.89,33.07-24.88,11.66-19.7,17.31-73.18,61.73-51.64,42.9-77.46,64.35-110.51,74.19-40.72,12.14-105.92,14.9-132.69-19.4-21.28-27.27,5.19-65.01-15.88-83.85-15.42-13.79-45.5-9.42-65.16-.3-76.43,35.48-28.38,158.38-120.71,249.22-33.94,33.39-63.81,62.78-108.72,69.3-21.08,3.06-49.98,1.73-73.24,22.62-4.39,3.94-17.05,15.64-18.5,33.24-1.14,13.84,4.7,30.72,13.3,32.31,5.24,.96,7.59-4.48,15.2-7.6,15.12-6.21,34.31,3.59,43.71,11.4,20.13,16.73,26.04,49.89,14.48,71.46-15.98,29.81-64.55,35.99-95.58,28.9-18.64-4.26-28.08-12.65-46.23-9.14-2.59,.5-27.33,5.64-36.46,24.78-12.06,25.27,19.19,44.36,11.43,78.2-7.2,31.41-34.96,35.39-35.22,57.28-.33,27.61,43.37,60.5,86.55,65.44,44.74,5.12,75.39-21.32,185.14-108.73,132.94-105.88,157.1-122.14,191.46-118.36,57.98,6.38,114.45,66.48,109.96,110.21-2.62,25.52-24.67,32.62-25.72,62.46-1.2,34.48,26.55,73.22,50.84,73.12,30.61-.13,63.95-62.34,64.29-119.39,.44-72.99-53.22-123.43-35.94-140.21,9.81-9.53,33.34,.7,36.11,1.9,13.32,5.79,31.1,18.99,56.63,88.19,8.58,23.26,39.14,110.71,63.21,122.11,3.78,1.79,24.21,11.45,41.36,3.08,25.01-12.21,15.6-67.48,35.78-72.89,11.14-2.99,24.91,11.71,31.07,21.04,15.01,22.71,2.02,39.38,10.11,61.33,15.79,42.85,98.4,69.1,135.85,44.6,11.24-7.35,18.44-19.29,36.48-22.31,10.77-1.8,25.62-.46,34.2,6.45,27.53,22.17,14.74,121.35-43.09,157.26-40.42,25.1-92.38,11.72-129.03,2.36-56.72-14.51-68.64-37.62-126.8-41.99-42.15-3.18-68.76,6.49-75,8.87-31.32,11.96-31.57,24.55-54.72,32.74-47.44,16.78-117.7-10.81-137.45-56.04-11.05-25.32,1.99-37.24-9.02-63.32-18.95-44.87-78.66-59.5-90.81-62.47-83.33-20.41-106.63,37.95-249.86,61.56-75.75,12.48-113.43,3.45-143.83,37.29-17.69,19.69-13.46,32.25-41.72,88.06-13.78,27.2-27.76,48.47-55.16,89.89-63.57,96.06-71.33,93.92-84.69,124.54-13.63,31.24-25.75,79.78-12.86,151.35-30.33,75.08-22.62,124.17-11.24,154.02,18.78,49.24,47.22,45.38,113.83,134.24,43.35,57.82,47.74,81.4,79.35,90.66,29.22,8.56,43.9-6.18,104.24-1.96,41.88,2.93,37.96,10.26,64.81,10.46,77.63,.57,111.99-60.7,151.41-42.9,24.2,10.92,16,36.13,45.86,52.23,36.64,19.76,68.91-7.46,86.7,9.46,19.12,18.17-13,54.49-10.72,112.25,2.43,61.73,41.43,78.99,76.14,160.49,13.21,31,28.88,78.55,33.06,143.46-40.45,55.06-47.79,99.42-47.59,128.76,.36,52.62,25.06,69.88,48.74,161.76,18.2,70.57,4.21,62.64,21.2,120.15,27.98,94.71,60.45,97.68,73.36,177.39,6.38,39.35,2.7,64.76,21.94,78.24,21.48,15.06,55.53,4.01,81.67-8.21,17.58,7.3,54.56,19.48,91.94,5.41,31.57-11.89,48.51-36.89,68.4-69.74,25.86-42.69,59.21-102.83,93.02-180.16,21.72-8.52,48.96-23.63,61.26-51.31,19.11-43.02-17.23-72.88,1.42-121.28,8.31-21.55,28.79-39.8,69.76-76.29,37.9-33.77,41.34-28.85,50.81-42.96,21.88-32.59,7.81-65.22-7.7-162.82-12.53-78.87-18.6-119.07-9.38-157.14,9.91-40.91,29.39-66.51,61.83-108.18,79.33-101.89,121.24-96.45,172.12-176.26,44.5-69.82,61.56-151.09,42.81-163.34-8.57-5.6-19.98,6.21-65.37,21.8-19.39,6.66-53.18,18.27-74.23,18.26-57.11-.03-98.65-80.48-123.63-127.62-51.69-97.54-23.61-122.26-71.86-173.12-18.45-19.45-47.09-41.7-49.41-77.92-.17-2.68-1.77-32.04,11.6-38.18,25.16-11.57,85.2,67.31,102.87,91.84,63.21,87.74,113.88,198.38,113.88,198.38,7.05,15.4,15.03,33.64,33.07,40.42,27.31,10.26,51.17-15.75,106.54-44.09,71.49-36.6,77.61-16.74,128.88-49.81,7.15-4.61,57.85-38.17,90.22-101.06,12.44-24.16,20.03-38.39,14.36-52.36-7.25-17.86-27.31-14.27-39.59-35.22-12.15-20.75,1.27-34.94-11.32-56.61-1.28-2.21-15.28-25.63-34.99-26.65-36.18-1.88-50.46,74.02-101.05,79.1-5.28,.53-14.49,1.33-22.98-3.85-19.04-11.62-12.92-40.09-20.34-69.27-14.91-58.68-73.26-74.28-65.65-92.05,8.53-19.93,73.47-10.56,121.24-3.67,34.04,4.91,75.77,11.18,129.67,31.19,42.21,15.66,43.79,21.9,160.55,79.02,52.64,25.75,51.71,24.18,56.81,28.62,58.38,50.8,34.92,129.52,86.47,162.42,3.97,2.53,8.12,4.62,12.33,6.34-.01,1.4-.03,2.79-.04,4.2-12.31,1062.51-887.01,1926.93-1949.86,1926.93Zm-154.32-3439.63c-42.34,17.27-81.06,33.06-119.71,14.61-9.8-4.68-29.02-16.06-44.49-43.34-25.46-4.03-42.99-22.29-43.41-40.87-.51-22.5,24.3-35.87,28.34-37.94,21.78-11.17,49.96-6.83,73.39,10.13,9.5-.68,22.89-1.49,38.93-1.98,93.62-2.89,108.21,10.16,113.21,15.52,9.26,9.92,15.45,25.38,12.56,39.41-4.5,21.91-29.51,32.51-58.82,44.46Zm152.16,355.94c32.53-26.84,69.8-8.67,84.21-32.72,16.02-26.73-24.68-58.17-9.94-94.18,11.41-27.87,51.28-46.89,83.71-38.42,37.86,9.89,52.26,53.78,55.11,62.45,16.35,49.84-14.35,74.22,4.91,121.51,12.38,30.39,29.15,30.37,30.47,50.76,3.18,49.25-90.64,111.63-129.21,89.97-35.77-20.08-19.87-110.11-35.78-111.61-9.73-.92-12.34,33.06-43.06,55.1-17.42,12.5-46.89,23.33-61.85,12.26-22.43-16.61-15.28-84.83,21.43-115.12Zm1473.23,1987.54c23.15,43.16-65.47,217.62-80.69,247.28-1.24,2.41-5.92,11.76-13.52,23.4-25,38.3-49.58,75.98-73.85,71.39-23.78-4.5-44.52-49.05-36.23-83.02,7.73-31.67,36.95-38.81,39.51-74.6,1.1-15.35-4.18-15.42-3.81-38.32,.26-16.24,.7-43.87,17.32-59.96,13.78-13.35,24.88-5.4,44.79-14.87,38.02-18.09,25.27-70.75,59.99-85.34,1.29-.54,20.27-7.59,34.95,1.34,0,0,7,4.26,11.54,12.72Z"/></g></svg>